<?xml version="1.0" encoding="utf-8"?>
<!-- Generator: Adobe Illustrator 25.4.1, SVG Export Plug-In . SVG Version: 6.00 Build 0)  -->
<svg version="1.1" id="Layer_1" xmlns="http://www.w3.org/2000/svg" xmlns:xlink="http://www.w3.org/1999/xlink" x="0px" y="0px"
	 viewBox="0 0 683.9 230" style="enable-background:new 0 0 683.9 230;" xml:space="preserve">
<style type="text/css">
	.st0{fill:#1D1D1B;}
	.st1{fill:#E81826;}
	.st2{fill:#590D08;}
	.st3{fill:none;}
	.st4{fill:#1D1D1B;stroke:#1D1D1B;stroke-width:0.65;stroke-miterlimit:10;}
	.st5{fill:none;stroke:#000000;stroke-width:0.25;stroke-miterlimit:10;}
</style>
<path class="st0" d="M498.4,219.8V10.1h0.6v209.7H498.4 M513.3,182.6c1,3.4,3,4.9,6.5,4.9c3,0,5.6-1.7,5.6-4.8c0-2.6-1-3.9-6.2-5.8
	c-3.4-1.3-3.7-2.1-3.7-3.4c0-2.1,1.5-3.4,3.6-3.4s3.9,1.4,4.4,3.4l1.4-0.4c-0.7-2.7-3.1-4.5-5.9-4.4c-3.4,0-5.3,2-5.3,4.7
	c0,6.1,9.9,4.1,9.9,9c0.1,1.9-1.3,3.5-3.1,3.6H520c-2.9,0-4.5-1.2-5.2-4L513.3,182.6L513.3,182.6z M540,187.2v-1.4h-9.2v-7.4h6.3
	V177h-6.3v-6.7h8.8V169h-10.4v18.3L540,187.2L540,187.2z M543.3,187.2h1.7V169h-1.7V187.2L543.3,187.2z M548.4,170.3h5.4v16.9h1.7
	v-16.9h5.4V169h-12.5L548.4,170.3L548.4,170.3z M577.9,187.2v-1.4h-3v-17.2h-1.1l-4.1,1.3v1l3.5-0.5v15.3h-3.1v1.4L577.9,187.2
	L577.9,187.2z M579.6,183.8c1,2.5,3.2,3.6,6.2,3.6c3.6,0,6.2-1.6,6.2-5.4c0-2.5-1.5-3.9-3.5-4.6c2.1-1,2.9-2.2,2.9-4.3
	c0-3.4-3.2-4.4-5.5-4.4c-2.2,0-4.2,1.1-5.5,2.9l1.2,0.9c1.3-1.6,2.5-2.4,4.2-2.4c2.5,0,4,1,4,3.2c0,2.4-1.7,3.6-5,3.6h-1.4v1.4h1.7
	c3.5,0,5.3,1.3,5.3,3.9s-1.4,4-4.5,4c-2.1,0.2-4.1-1-4.9-3L579.6,183.8z M601.5,168.7c-3.5,0-5.7,1.6-5.7,4.6c0,2,1.2,3.5,3.5,4.3
	c-3.1,1.4-4.2,3.1-4.2,4.9c0,3.6,2.6,5,6.4,5s6.4-1.3,6.4-5c0-1.8-1.1-3.5-4.2-4.9c2.3-0.8,3.5-2.3,3.5-4.3
	C607.2,170.3,605,168.7,601.5,168.7z M596.7,182.5c0-2,1.8-3,4.8-4.2c3,1.2,4.8,2.2,4.8,4.2c0,2.5-2.1,3.6-4.8,3.6
	S596.7,185,596.7,182.5z M597.5,173.2c0-2.1,1.7-3.2,4-3.2c2.4,0,4,1,4,3.2c0,2-1.8,3.1-4,3.7C599.2,176.3,597.5,175.2,597.5,173.2z
	 M622.2,170.2c-1.2-1-2.7-1.5-4.3-1.6c-5.2,0-7.3,5.4-7.3,10c0,4.2,1.2,8.7,6.3,8.7c3.3,0,6.2-2.2,6.2-5.7s-2.1-6-5.9-6
	c-1.9,0.1-3.7,1-4.9,2.4c0-3.5,1.4-8.1,5.6-8.1c1.3-0.1,2.7,0.4,3.6,1.4L622.2,170.2L622.2,170.2z M621.3,181.6
	c0,2.8-1.6,4.6-4.5,4.6c-2.8,0-4.6-2.1-4.6-5.4c0-0.7,1.9-3.6,4.6-3.6c2.3-0.2,4.3,1.5,4.5,3.8V181.6L621.3,181.6z M514.4,143.8h8.8
	l-9.5,15.6v1.4h11.8v-1.4h-9.7l9.5-15.5v-1.4h-10.8L514.4,143.8L514.4,143.8L514.4,143.8z M529.1,142.4v12.3c0,4.1,2.2,6.2,6.6,6.2
	c4.4,0,6.6-2.1,6.6-6.2v-12.3h-1.7v12.5c0,3.5-1.7,4.7-4.9,4.7s-4.9-1.2-4.9-4.7v-12.5H529.1L529.1,142.4z M547.3,160.7h1.7v-6.1
	l3.5-4l5.8,10.1h1.9l-6.6-11.3l5.9-7h-2l-8.4,9.9v-9.9h-1.7L547.3,160.7L547.3,160.7z M562.8,142.4v12.3c0,4.1,2.2,6.2,6.6,6.2
	c4.4,0,6.6-2.1,6.6-6.2v-12.3h-1.7v12.5c0,3.5-1.7,4.7-4.9,4.7s-4.9-1.2-4.9-4.7v-12.5H562.8L562.8,142.4z M581.1,160.7h1.7v-16.9
	l9.8,16.9h1.7v-18.3h-1.7v15.2l-8.7-15.2h-2.8V160.7z M601,160.7v-8.8h6.6v-1.4H601v-6.7h9.1v-1.4h-10.7v18.3L601,160.7L601,160.7z
	 M611.7,143.8h5.4v16.9h1.7v-16.9h5.4v-1.4h-12.5L611.7,143.8L611.7,143.8z M517.3,134.2V126h7.4v8.2h3.6v-19.1h-3.6v7.6h-7.4v-7.6
	h-3.6v19.1L517.3,134.2L517.3,134.2z M545.6,134.2v-3.1h-9.3v-5.3h6.5v-3.1h-6.5v-4.6h9V115h-12.6v19.1h12.9L545.6,134.2z
	 M552.8,134.2v-19.1h-3.6v19.1H552.8z M557.5,134.2h6.3c5,0,8.5-2.8,8.6-9.5c0-6.7-3.5-9.5-8.6-9.5h-6.3V134.2z M561.1,118.2h2.4
	c4.2,0,5.2,3.1,5.2,6.5c0,3.4-1,6.5-5.2,6.5h-2.4V118.2z M588.2,134.2v-3.1h-9.3v-5.3h6.5v-3.1h-6.5v-4.6h9V115h-12.6v19.1h12.9
	L588.2,134.2z M603.2,134.2v-3.1h-8.3v-16h-3.6v19.1H603.2L603.2,134.2z M605.9,134.2h7c4.9,0,7-2.1,7-5s-0.9-4-3.3-5
	c1.8-0.6,3-2.4,2.9-4.3c-0.2-3.4-2.7-4.7-6.5-4.7h-7.1L605.9,134.2L605.9,134.2z M609.6,125.7h3.6c2.1,0,3,1,3,2.8s-0.9,2.8-3,2.8
	h-3.6C609.6,131.3,609.6,125.7,609.6,125.7z M609.6,118h3.6c1.8,0,2.6,1,2.6,2.3s-0.9,2.3-2.6,2.3h-3.6V118L609.6,118z M636.6,134.2
	v-3.1h-9.3v-5.3h6.5v-3.1h-6.5v-4.6h9V115h-12.6v19.1h12.9L636.6,134.2z M643.3,134.2v-7.8h3.2l3.6,7.8h4l-4.2-8.5
	c2.2-0.6,3.7-2.6,3.5-4.9c0-3.2-1.8-5.7-6.1-5.7h-7.6v19.1H643.3z M643.3,118h3.3c2,0,3.1,0.9,3.1,2.7s-0.9,2.7-3.7,2.7h-2.7
	L643.3,118L643.3,118z M670.9,119.7c-0.9-3-3.8-5.1-6.9-4.9c-6.1,0-8,5.2-8,10.1c0,5.4,2.4,9.5,7.6,9.5c1.9,0.1,3.8-0.7,5-2.2v2h2.6
	v-9.6h-7.1v3.1h3.6c0,2.1-1.7,3.8-3.8,3.8h-0.2c-2.5,0-4-2.5-4-6.6c0-4.2,1.3-6.9,4-6.9c1.9,0,3,0.8,3.8,2.7L670.9,119.7
	L670.9,119.7z M524.6,99.9c0,3.1-1.2,4.2-3.7,4.2s-3.7-1.1-3.7-4.2V87.8h-3.6v11.9c0,5.6,3.4,7.4,7.3,7.4s7.3-1.8,7.3-7.4V87.8h-3.6
	V99.9z M536.1,106.9V93.3l7.8,13.6h3.5V87.8H544v13l-7.5-13h-3.8v19.1H536.1L536.1,106.9z M555.8,106.9V87.8h-3.6v19.1H555.8z
	 M563.7,106.9h4.1l5-19.1h-3.6l-3.5,14.1l-3.4-14.1h-3.6L563.7,106.9z M588.2,106.9v-3.1h-9.3v-5.3h6.5v-3.1h-6.5v-4.6h9v-3.1h-12.6
	v19.1L588.2,106.9L588.2,106.9z M594.9,106.9v-7.8h3.1l3.6,7.8h4l-4.2-8.5c2.2-0.6,3.7-2.7,3.5-4.9c0-3.2-1.8-5.7-6.1-5.7h-7.6v19.1
	H594.9z M594.9,90.8h3.3c2,0,3.1,0.9,3.1,2.7s-0.9,2.7-3.7,2.7h-2.7L594.9,90.8L594.9,90.8z M621.2,91.8c-1.1-2.7-3.8-4.4-6.7-4.3
	c-3.3,0-6.2,1.9-6.2,5.3c0,5.9,9.8,5.1,9.8,8.9c0,1.8-1.4,2.5-3.2,2.5c-2.1,0-3.3-1.2-4.1-3l-3,1.3c1.2,2.8,4.1,4.6,7.1,4.5
	c4.2,0,6.7-2,6.7-5.9c0-6.2-9.8-5.5-9.8-8.8c0-1.5,1.1-2.1,2.7-2.1c1.5,0,2.9,1,3.4,2.5L621.2,91.8z M629.2,106.8v-19h-3.6v19.1
	L629.2,106.8z M632.3,87.8v3.1h5v16h3.6v-16h5v-3L632.3,87.8z M653.2,91.4l2.2,8.3h-4.5L653.2,91.4z M645.4,106.8h3.6l1.1-4.1h6
	l1,4.1h3.6l-5.4-19.1h-4.5L645.4,106.8L645.4,106.8z M649,83.4v3.1h3.2v-3.1H649z M654,83.4v3.1h3.2v-3.1H654z M660.2,87.8v3.1h5v16
	h3.6v-16h5v-3.1H660.2z"/>
<circle class="st1" cx="378.7" cy="115" r="104.9"/>
<path class="st2" d="M367.2,59.8h1.2v-1.2h1.2v-1.2h-1.2v-1.2h-1.2v1.2H366v1.2h1.1v1.2H367.2z M387.6,126.8h1.1v-0.9h0.9v-1.2h-0.9
	v-0.9h-1.1v0.9h-0.9v1.2h0.9V126.8z M362.9,59.8h1.1v-1.2h1.1v-1.2H364v-1.2h-1.1v1.2h-1.2v1.2h1.2V59.8z M388.6,161.1
	c1.3,8.4,1.6,16.2,2.5,20.3l1.1-0.3c-0.9-3.8-1.2-11.8-2.5-20.2L388.6,161.1z M377.1,115.3c-1-0.4-2.2,0-2.9,0.9l0.4,0.4
	c0.4-0.5,1-0.9,1.6-0.9c0.9,0,1.7,0.8,1.8,1.7v1.3h0.6v-1.4C378.4,116.4,377.8,115.7,377.1,115.3z M380.5,115.3
	c-0.8,0.4-1.4,1.1-1.5,2v1.4h0.6v-1.4c0.1-0.9,0.8-1.6,1.8-1.7c0.6,0,1.2,0.4,1.6,0.9l0.4-0.4C382.7,115.3,381.6,114.9,380.5,115.3z
	 M381.5,116.6c-1,0-1.4,0.4-1.4,0.8h1.1c-0.2,0.1-0.3,0.2-0.3,0.4c0,0.3,0.2,0.5,0.5,0.5s0.5-0.2,0.5-0.5c0-0.2-0.1-0.3-0.2-0.3h1.1
	C382.7,117,382.1,116.6,381.5,116.6L381.5,116.6z M404,80.5l-1.2-1.8l-1.1,1.8l1.1,1.8L404,80.5z M402.9,121.2
	c1.5,0,2.8-1.3,2.8-2.8s-1.3-2.8-2.8-2.8s-2.8,1.2-2.8,2.8C400.1,119.9,401.3,121.2,402.9,121.2z M402.9,116.2c1.2,0,2.2,1,2.2,2.2
	s-1,2.2-2.2,2.2s-2.2-1-2.2-2.2C400.6,117.1,401.6,116.2,402.9,116.2C402.8,116.1,402.9,116.1,402.9,116.2z M402.3,119.9h1.1V119
	h0.9v-1.2h-0.9v-0.9h-1.1v0.9h-0.9v1.2h0.9V119.9z M382.2,59.9h1.1v-1.2h1.2v-1.2h-1.2v-1.2h-1.1v1.2H381v1.2h1.2L382.2,59.9
	L382.2,59.9z M378.2,59.9h1.1v-1.2h1.1v-1.2h-1.1v-1.2h-1.2v1.2H377v1.2h1.2L378.2,59.9L378.2,59.9z M374.1,59.9h1.1v-1.2h1.2v-1.2
	h-1.2v-1.2H374v1.2h-1.2v1.2h1.1L374.1,59.9L374.1,59.9z M376.3,116.6c-1,0-1.4,0.4-1.4,0.8h1.2c-0.2,0.1-0.3,0.2-0.3,0.4
	c0,0.3,0.2,0.5,0.5,0.5s0.5-0.2,0.5-0.5c0-0.2-0.1-0.3-0.2-0.3h1.1C377.6,116.9,377,116.5,376.3,116.6L376.3,116.6z M386.9,157.8
	c0-0.3-0.1-0.7-0.2-1s-0.4-0.6-0.8-0.6c-0.4,0.1-0.8,0.3-1.1,0.6l-0.9,0.9c-1,1-2.4,1.5-3.8,1.5c-1.2,0-2.4-0.4-3.3-1.1
	c-0.5-0.6-1.2-0.9-2-1.1c-0.4,0-0.8,0.3-1,0.7c-0.2,0.5-0.2,0.9-0.2,1.4v0.1c0,0.4,0.2,1.6,0.5,3.4c0.5,2.7,1.2,6.6,2,10.1
	c0.4,1.7,0.8,3.4,1.2,4.7c0.3,1.1,0.7,2.1,1.2,3c0.5,0.7,1.3,1.2,2.1,1.2c1.2-0.1,2.3-1,2.5-2.2c0.3-1,1.7-7.5,2.7-13.3V166
	c0.3-1.7,0.6-3.4,0.7-4.8c0.1-1,0.2-2.1,0.2-3.1C386.9,158,386.9,157.9,386.9,157.8L386.9,157.8z M382,179.1c-0.3,1-0.9,1.4-1.4,1.4
	s-0.9-0.3-1.2-0.8l-0.3-0.6c1.6-1.8,3-3.8,4-6.1l0.3-0.7C382.8,175.8,382.2,178.5,382,179.1L382,179.1z M382.1,172.6
	c-0.9,1.9-2.1,3.8-3.4,5.4c-0.2-0.7-0.5-1.4-0.7-2.3v-0.1c2.7-2.5,5-5.5,6.5-8.9C383.9,168.8,383.1,170.7,382.1,172.6L382.1,172.6z
	 M385.5,160.9c-1.4,5.1-4.1,9.7-7.9,13.4c-0.7-2.8-1.4-6.1-1.9-8.9c-0.5-2.8-1-5.3-1-6c0.8,2.5,2.1,4.7,4,6.5l0.8-0.9
	c-0.8-0.7-1.5-1.5-2-2.4c0.6,0.2,1.2,0.2,1.8,0.2c1.9,0.1,3.7-0.6,5.1-1.7l-0.8-0.8c-1.2,0.9-2.8,1.4-4.3,1.4c-1,0.1-2-0.3-2.8-0.9
	c-0.4-0.7-0.6-1.5-0.8-2.3l0.4,0.3c1.1,0.9,2.5,1.4,4,1.4c1.7,0,3.4-0.7,4.6-1.9c0.3-0.3,0.6-0.7,0.9-0.9l0.1-0.1v0.6
	C385.7,159,385.6,160,385.5,160.9L385.5,160.9z M370,157.2c-1,5.9-2,15-6.2,22.7l1,0.6c4.4-7.9,5.4-17.2,6.3-23.1L370,157.2
	L370,157.2z M371.2,169.3c-0.2,4.8-0.8,9.6-2.7,11.8l0.9,0.8c2.3-2.7,2.7-7.6,3-12.5s0.1-9.7,0.7-11.7l-1.1-0.4
	C371.3,159.8,371.4,164.5,371.2,169.3L371.2,169.3z M376.3,41l-1.1-1.8l-1.1,1.8l1.1,1.8L376.3,41z M405.9,22.3l-2.5-0.8l-0.8,2.8
	l-2.8-0.8L399,26l2.8,0.8l-0.8,2.8l2.5,0.8l0.8-2.8l2.8,0.8l0.7-2.5l-2.8-0.8L405.9,22.3L405.9,22.3z M422.9,98.7l-1.1-1.7l-1.1,1.8
	l1.1,1.8C421.8,100.6,422.9,98.7,422.9,98.7z M473,100.6l0.1,0.7l-6.5,0.8c-0.2,0-0.5-0.1-0.6-0.2h-0.1c-0.3,0.9-0.7,1.8-1.1,2.7
	l2,1.5l0.2-0.3c-0.7-0.4-0.5-0.8,0-1.8l6.4-0.8l0.2,1.4l0.9,0.3l-0.2-1.8l2.7-0.4v-0.2c-1.3-0.3-2.6-0.9-3.5-1.9
	C473.5,100.6,473,100.6,473,100.6z M474.3,82.7l-2.3-0.9c-0.2,0.1-0.4,0.3-0.7,0.4c0.7,0.5,1.4,1,2.1,1.4
	C473.8,83.4,474.1,83,474.3,82.7z M411.9,146.4v1l2.6-1.7l1.1,1.4l-3,2.3l0.5,0.8l3.1-2.4l0.7,0.9l-1.2,1l0.6,0.6l2-1.6l-0.9-1.1
	l1.7-1.6l-0.8-2.3l0.6-0.4v-0.6h-1.6l0.9,3l-0.6,0.5l-1.1-1.3V142h-2.4v0.8l0.5,0.6l-0.5,0.4l-1.6-1.9h-0.8v0.5l2.1,2.4L411.9,146.4
	L411.9,146.4z M411.5,98.7l1.1,1.8l1.1-1.8l-1.1-1.8L411.5,98.7z M474,107.9l-6.7,0.3c-0.5,0-0.6-0.3-0.6-0.3h-0.1l-1.2,1.8l1.4,1.3
	h0.1c0-0.3,0.1-0.7,0.3-0.9l6.8-0.3c0.2,0,0.4,0.1,0.5,0.2h0.1l1.3-1.7c-0.5-0.4-1-0.8-1.4-1.3h-0.1
	C474.5,107,474.6,107.9,474,107.9L474,107.9z M463.4,89.1c-0.2,1-0.5,1.9-0.8,2.8l2.2,1.2l0.2-0.3c-0.8-0.3-0.6-0.7-0.3-1.8l6.2-1.7
	l0.4,1.4l1,0.2l-0.5-1.8l2.6-0.7l-0.1-0.2c-1.4-0.1-2.7-0.6-3.8-1.4l-0.4,0.1l0.2,0.7l-6.3,1.7C463.8,89.3,463.5,89.3,463.4,89.1
	L463.4,89.1z M465.9,100.9c0-0.4,0.1-1,0.2-1l6.9-1.4c0.2-0.1,0.5,0,0.6,0.2h0.1c0-0.8,0.1-1.7,0.3-2.5c-1.2-0.5-1.5-2.9-3.2-2.6
	l-5.5,1.1c-0.2,0-0.4,0-0.5-0.2h-0.1l-0.9,2.2l1.4,1.2l-0.9,1.8C464.8,100.1,465.4,100.5,465.9,100.9z M465.6,96.5l6.8-1.3
	c-0.1,0.5-0.2,1.1-0.2,1.7l-6.3,1.3l-0.6-0.5L465.6,96.5L465.6,96.5z M470.4,118.2c0.2,0,0.4,0.1,0.5,0.3h0.1l0.9-1.9l2.6,1.8
	c0.4-0.8,1-1.5,1.6-2.2c-0.5-1-1-2-1.3-3.1L472,113c-0.2,0-0.4-0.1-0.6-0.3h-0.1l-1.2,2.1l-3.3-2.2c-0.3,0.9-0.7,1.7-1.3,2.4
	c0.6,1,1.2,2,1.6,3.1L470.4,118.2L470.4,118.2z M472,114.8l3.1,0.1l0.1,0.1c-0.6,0.7-1.2,1.4-1.7,2.1l-2-1.5
	C471.5,115.6,472,114.8,472,114.8z M466.7,116.1c0.5-0.7,1-1.5,1.3-2.2l2.6,1.8l-0.4,0.8l-3.4-0.1
	C466.8,116.4,466.7,116.1,466.7,116.1z M439.9,100.5l1.1-1.8l-1.1-1.8l-1.1,1.8L439.9,100.5z M364.2,212.8l0.3,1.2l1.9-1.6v-0.8
	C365.7,211.9,365,212.3,364.2,212.8L364.2,212.8z M429.6,98.7l1.1,1.8l1.1-1.8l-1.1-1.8L429.6,98.7z M363,208.4
	c0.1-0.4,1.1-6,1.3-6.6c0.1-0.6,0.4-0.5,0.4-0.5v-0.1l-1.4-1.6l-1.6,1.1v0.1c0.3,0.1,0.6,0.3,0.8,0.5c0,0-1.2,6.3-1.3,6.7
	c0,0.2-0.2,0.4-0.4,0.4v0.1l1.4,1.6c0.5-0.4,1-0.8,1.6-1.1v-0.1C363.9,209.1,362.9,208.9,363,208.4L363,208.4z M375,210
	c0,0,0.5-6.1,0.5-6.5c0-0.2,0.2-0.4,0.4-0.5v-0.1l-2.3-1.8l-3.2,1.8l-0.6,7.1c0,0.2-0.1,0.4-0.3,0.5v0.1c1.8,1.4,3.2,2.7,5,4.3
	c0.4-0.5,0.9-1,1.5-1.3v-0.1c-0.5,0-3-2.3-3-2.3L375,210z M371.6,209.8l0.6-7.6h0.1l1.4,1.1l-0.6,7.2l-0.4,0.2L371.6,209.8z
	 M365.7,201.4c0.3,0.1,0.6,0.3,0.8,0.6c0,0-0.9,6.4-1,6.7c0,0.2-0.2,0.4-0.3,0.5v0.1l1.4,1.6c0.5-0.4,1-0.8,1.6-1.1v-0.1
	c0,0-1-0.1-0.9-0.7c0-0.4,0.9-6.1,1-6.6s0.4-0.6,0.4-0.6v-0.1l-1.5-1.5L365.7,201.4L365.7,201.4z M382.9,203.2
	c0-0.2,0.1-0.4,0.3-0.5v-0.1l-2.3-1.3c-1,0.8-2.1,1.5-3.2,2.2c0,0,0.1,6.2,0.1,6.6c0,0.2-0.1,0.5-0.3,0.6v0.1l1.4,1.1l1.3-1.3v-0.1
	l-0.6-0.4l-0.1-7.4l0.3-0.2l1.3,0.8c0,0,0.1,6.1,0.1,6.6s-0.3,0.6-0.3,0.6v0.1l1.7,1.2l1.3-1.4v-0.1c-0.3,0-0.6-0.2-0.9-0.4
	C383,210,383,203.5,382.9,203.2L382.9,203.2z M413.9,196.2l-0.3-0.2l-0.5,0.7c-0.8,1.2-2.1,1.9-3.6,2l-5-0.1
	c0.2,0.9,0.2,1.8-0.2,2.7h2.5l-0.4,0.6c-0.9,1.4-2.5,2.3-4.2,2.4h-2.8c0.2,0.4,0.2,0.7,0.2,1.1c0,1-0.4,1.2-0.4,1.2h2.3
	c0.5,0,1-0.1,1.5-0.4c-0.8,1-1.2,2.1-1.4,3.4v1.2c0.9-0.3,1.9-0.3,2.9-0.2v-2.3c0-1.4,0.3-2.8,0.9-4l1.9-2.9c1.3,0,2.5-0.3,3.6-1
	v4.9c-0.5,0.6-1.3,0.9-2.1,1h-2.5c0.1,0.7,0.1,1.5,0,2.2c0.9,0.1,1.8-0.1,2.6-0.5c-0.1,0.7-0.2,1.4-0.1,2.1c0.7-0.2,1.5-0.2,2.2,0
	v-3c0-0.5,0-1,0.2-1.5h2.8V205c-0.5,0-0.8-0.4-0.8-1.6v-2.2c0-1.5-0.1-3.5,0.8-4.8L413.9,196.2L413.9,196.2z M396.3,205.5l-2.3-0.9
	l1.7-3.6c-0.9-0.1-1.8-0.4-2.6-0.9c-0.9,0.8-1.8,1.5-2.8,2.1l0.4,3.1c0,0.2,0,0.4-0.2,0.5v0.1l2,0.6l-1.4,2.9
	c0.9,0.3,1.7,0.7,2.4,1.3c0.9-0.7,1.9-1.3,2.9-1.8c0,0-0.3-2.4-0.4-2.8L396.3,205.5L396.3,205.5z M392.5,204.9l-0.5-3.4l0.2-0.2
	c0.8,0.4,1.6,0.7,2.4,0.9l-1.3,2.9L392.5,204.9L392.5,204.9z M394.6,209.5c-0.7-0.5-1.5-1-2.4-1.3l1.1-2.2l0.9,0.4l0.4,3V209.5z
	 M388.4,209.4c0,0-0.3-6.1-0.4-6.5c0-0.2,0.1-0.5,0.3-0.6v-0.1c-0.9-0.3-1.7-0.7-2.5-1.2l-1.6,1.9l0.3,0.2c0.5-0.7,0.8-0.4,1.8,0.1
	l0.4,6.4l-1.5,0.1l-0.3,0.9l1.9-0.1l0.1,2.7h0.2c0.4-1.3,1.1-2.5,2.2-3.4v-0.4L388.4,209.4L388.4,209.4z M431.1,34.4l0.6-1l-1-0.7
	l-0.6,1l-0.9-0.6l-0.6,1l1,0.6l-0.6,1l1,0.7l0.6-1l1,0.6l0.6-1L431.1,34.4z M462.9,87.8c-0.1-0.3-0.1-0.7,0-1l6.4-2.4
	c0.2-0.1,0.4-0.1,0.6,0.1h0.1l0.7-2c-0.6-0.2-1.2-0.5-1.7-0.8h-0.1c0,0,0.4,0.9-0.2,1.1l-6.2,2.3c-0.5,0.2-0.7-0.1-0.7-0.1h-0.1
	l-0.6,2L462.9,87.8L462.9,87.8z M464.1,158.8c0.3-0.7,0.4-1.4,0.3-2.2c-0.9,0.2-1.9,0.2-2.8,0v2.8c0.1,0.8-0.1,1.6-0.4,2.3h-2.5
	l0.1,5.1c0.1,1.1-0.2,2.2-0.8,3.2h-3.2c-1.2,0-2.4,0.3-3.4,1c0.7-1.3,1.1-2.7,1.1-4.1v-3.1c0.6-0.5,1.3-0.7,2-0.8h2.4
	c-0.1-0.8-0.1-1.7,0-2.6c-0.7,0-1.3,0-2,0.2c0.3-0.7,0.4-1.4,0.3-2.2c-0.9,0.2-1.9,0.2-2.8,0v2.8c0.1,0.8-0.1,1.7-0.4,2.4l-0.1,0.1
	c-0.5,0.5-1.2,0.7-1.9,0.7v4.4c0,0.9,0.2,3.2-0.4,4.4l-1.5,2.2l0.4,0.2c0,0,1.5-2.9,4.5-2.9h6.7c-0.2-0.8-0.1-1.7,0.2-2.5h-1.3
	c0.5-0.5,1-1,1.4-1.5c0.7-0.6,1.5-1,2.4-1.1h2.4c-0.1-0.8-0.1-1.7,0-2.6c-1.8,0-2.4,0.1-3.4,1.3c0.2-0.4,0.2-0.9,0.2-1.3v-3
	c0.6-0.5,1.3-0.7,2-0.8h2.4c-0.1-0.8-0.1-1.7,0-2.6C465.4,158.6,464.7,158.6,464.1,158.8L464.1,158.8z M457.6,73.5l5.7-3.1l0.4,0.1
	c-0.3,0.7-0.7,1.4-1.1,2.1v0.1c0.6,0,1.3,0.1,1.9,0.3h0.1l1-2.2l-1.7-0.6l0.4-1.9c-0.6-0.1-1.2-0.3-1.8-0.6h-0.1
	c0.2,0.4,0.3,0.9,0.1,1l-5.9,3.2c-0.2,0.1-0.5,0.1-0.6,0l-0.1,0.1c0.1,1,0,1.9-0.1,2.9l2.4,0.7l0.1-0.3
	C457.5,75,457.5,74.6,457.6,73.5L457.6,73.5z M474.9,126c0.3-0.6,0.4-1.3,0.3-2c-0.8,0.2-1.7,0.2-2.6,0v2.5c0.1,0.7-0.1,1.5-0.4,2.1
	c-0.8,0.5-1.8,0.8-2.8,0.8v0.4c0.6,0,0.8,0.9,0.8,1.5v0.9c0,1.3,0,3.8-0.6,4.7l-0.8,1.2l-3.6,5.4l-2,3v0.1v-7l0.9-1.4
	c0.6-0.6,1.3-0.9,2.2-1h1.6c-0.1-0.8-0.1-1.6,0-2.3c-0.4,0-0.8,0-1.2,0.1c0.3-0.7,0.4-1.4,0.4-2.2c-0.9,0.2-1.9,0.2-2.8,0v2.7
	c0.1,0.8-0.1,1.6-0.4,2.3l-0.9,1.3c-0.3,0.3-1.1,0.9-3.1,0.9v0.4c0.6,0,0.9,0.9,0.9,1.5v6.7c0,1.3,0,3.8-0.6,4.7
	c-0.3,0.4-0.8,1.2-0.8,1.2l0.3,0.2c0,0,0.7-0.9,1.5-2.1l0.2-0.4c1-1.5,2.7-2.4,4.5-2.5h2.4c-0.1-0.8,0.3-1.6,0.9-2.1
	c-2.9,0-4.6-0.3-6.3,1.8l-0.2,0.2c0.3-0.8,0.4-1.6,0.4-2.4l0.5-0.7c1.2-1.6,3-2.6,5-2.7h2.7c-0.1-0.9,0.3-1.8,0.9-2.4
	c0.5-0.4,1.1-0.7,1.8-0.7h2.1c-0.1-0.7-0.1-1.5,0-2.2c-0.6,0-1.2,0-1.8,0.2c0.3-0.6,0.4-1.2,0.3-1.9c-0.8,0.2-1.7,0.2-2.5,0v2.4
	c0.1,0.7,0,1.5-0.4,2.1l-0.1,0.1c-2.2,0-3.9-0.1-5.3,0.8l2.7-4.1l0.1-0.2l1.1-1.7l0.2-0.2v-0.1l0.2-0.3c0.6-0.6,1.5-1,2.4-1.1h2.6
	c-0.1-0.8-0.1-1.7,0-2.5c-1.9,0-2.8,0.2-3.9,1.6c0.4-1,0.6-2,0.6-3v-2c0.7-0.5,1.5-0.7,2.4-0.8h1.6c-0.1-0.8-0.1-1.5,0-2.3
	C476,125.6,475.4,125.8,474.9,126L474.9,126z M454.4,67.6l2-1.3c1.3,0.3,2.6,0.6,3.9,1.1h0.1l1.6-3.1c-1-0.5-2-1.1-2.9-1.8l-5.6,3.6
	c-0.2,0.1-0.4,0.1-0.6,0h-0.1c0.2,1.2,0.2,2.4,0.2,3.5l2.4,0.5v-0.4C454.5,69.7,454.5,69,454.4,67.6z M460.2,63.8l-1.3,2.7l-2-0.5
	L460.2,63.8z M464.1,81.2c0.2-0.1,0.4-0.1,0.6,0h0.1v-2.1l3.1,0.6c0.1-0.9,0.2-1.8,0.6-2.7c-0.9-0.7-1.8-1.4-2.5-2.3l-2.6,1.1
	c-0.2,0.1-0.5,0.1-0.6-0.1h-0.1l-0.2,2.4l-3.9-0.7c0.1,0.9,0.1,1.9-0.1,2.8c1,0.6,1.9,1.3,2.8,2.2L464.1,81.2L464.1,81.2z
	 M464.1,77.5l2.8-1.2l0.1,0.1c-0.3,0.9-0.5,1.7-0.6,2.7l-2.5-0.5L464.1,77.5z M460.1,81l-0.2-0.2c0.2-0.9,0.3-1.7,0.3-2.6l3.1,0.5
	v0.9L460.1,81L460.1,81z M451,130.8h-1.1v0.9H449v1.1h0.9v0.9h1.1v-0.9h0.9v-1.1H451V130.8z M477.5,108.1c0,0-0.6,0.1-0.7,0.1
	c0.5,0.7,1,1.4,1.6,2c0.4-0.1,0.8-0.3,1.1-0.6L477.5,108.1z M378.8,10.1c-57.9,0-104.9,46.9-104.9,104.8s46.9,104.9,104.9,104.9
	S483.6,172.9,483.6,115S436.6,10.2,378.8,10.1L378.8,10.1z M390,33.3c0.9,0.1,1.8,0.3,2.7,0.4v6l-2.7-4.1
	C390,35.6,390,33.3,390,33.3z M393.7,190.6l-1,0.9v1.1h1.1v1.2h-1.1v1.1h-1.2v-1.1h-1.1v-1.2h1.1v-1.1l-1-0.9H387l-1,0.9v1.1h1.1
	v1.2H386v1.1h-1.2v-1.1h-1.1v-1.2h1.1v-1.1l-1-0.9h-3.4l-1,0.9v1.1h1.1v1.2h-1.1v1.1h-1.2v-1.1h-1.1v-1.2h1.1v-1.1l-1-0.9h-3.5
	l-1,0.9v1.1h1.1v1.2h-1.1v1.1h-1.2v-1.1h-1.1v-1.2h1.1v-1.1l-1-0.9H367l-1,0.9v1.1h1.1v1.2H366v1.1h-1.2v-1.1h-1.1v-1.2h1.1v-1.1
	l-1-0.9h-10c0.4,0.4,3.5,3.1,5.1,4.5c-2.8-0.7-5.5-1.5-8.2-2.5v-1.5l0.6-0.6l2-1.8h17.9c0.4,0.5,1,0.9,1.7,1h0.3
	c0.4,0,0.8,0,1.1-0.1c0.3-0.1,0.7-0.2,1-0.3c0.3-0.2,0.5-0.3,0.8-0.5h8.2c0.1,0.1,0.3,0.3,0.5,0.4c0.7,0.5,1.5,0.8,2.3,0.8
	c0.7,0,1.3-0.2,1.9-0.5c0.3-0.2,0.4-0.4,0.6-0.7h14.3l2.6,2.2v1.6l-0.6,0.2c-2.5,0.9-5,1.6-7.6,2.2l4.4-4.6L393.7,190.6L393.7,190.6
	z M394.9,196c-10.7,2.1-21.7,2.1-32.4,0H394.9z M370.7,55.4v5.1h-10.1v-5.1H370.7z M364.7,54.2V46c0-0.3,0.2-0.7,0.4-0.9
	c0.3-0.3,0.6-0.4,1-0.4c0.7,0,1.3,0.6,1.3,1.3v8.2L364.7,54.2L364.7,54.2z M368.5,46c0-0.4,0.1-0.7,0.3-1c0.2-0.2,0.4-0.3,0.7-0.3
	c0.3,0,0.6,0.1,0.8,0.4c0.2,0.3,0.4,0.6,0.4,0.9v8.2h-2.1L368.5,46L368.5,46z M378.7,55.4h6.3v5.1h-12.6v-5L378.7,55.4L378.7,55.4z
	 M372.4,54.2V46c0-0.6,0.4-1.2,1.1-1.3c0.3,0,0.5,0.1,0.7,0.4c0.2,0.3,0.4,0.6,0.4,0.9v8.2C374.6,54.2,372.4,54.2,372.4,54.2z
	 M375.7,54.2V46c0-0.7,0.5-1.2,1.2-1.2s1.2,0.5,1.2,1.2v8.2H375.7L375.7,54.2z M379.3,54.2V46c-0.1-0.7,0.4-1.2,1.1-1.3
	s1.2,0.4,1.3,1.1v8.4H379.3z M378.7,93.7c-1.3,0-2.4,0.1-3.6,0.4l3.6-5.5l3.6,5.5C381.1,93.8,379.9,93.7,378.7,93.7z M381.7,95.1
	v6.2c-0.8-0.2-1.6-0.3-2.4-0.3v-6.1C380.1,94.9,380.9,95,381.7,95.1z M378.1,94.9v6.1c-0.9,0-1.8,0.2-2.7,0.4v-6.2
	C376.3,95,377.2,94.9,378.1,94.9z M378.7,86.5l-5.2,8c-0.4,0.1-0.7,0.2-1,0.4v-2.1l6.3-9.6l6.3,9.6V95c-0.3-0.1-0.7-0.2-1-0.4
	L378.7,86.5L378.7,86.5z M378.7,77.7l6.3,9.5v3.4l-6.2-9.6l-6.3,9.6v-3.2C372.5,87.4,378.7,77.7,378.7,77.7z M372.4,69.1
	c0.1-0.7,0.6-1.2,1.3-1.2c0.7,0,1.3,0.6,1.3,1.3v12.2l-2.6,4L372.4,69.1L372.4,69.1z M378.1,70.6v4.5h-2v-5.9c0-0.5,0.3-0.9,0.7-1.2
	c0.4-0.3,0.9-0.4,1.3-0.5v1.2c-0.5,0.3-0.7,1-0.4,1.5C377.9,70.4,378,70.6,378.1,70.6z M377.9,76.9l-1.8,2.7v-3.7
	C376.6,76.3,377.2,76.7,377.9,76.9z M379.3,68.7v-1.2c0.4,0.1,0.9,0.2,1.2,0.5c0.4,0.3,0.7,0.7,0.7,1.2v5.9h-1.9v-4.5
	c0.5-0.3,0.7-1,0.4-1.5C379.5,69,379.4,68.8,379.3,68.7L379.3,68.7z M381.2,75.9v3.6l-1.7-2.6C380.1,76.7,380.7,76.3,381.2,75.9z
	 M382.3,81.3V69.2c0-0.7,0.6-1.3,1.3-1.3c0.7,0,1.2,0.6,1.3,1.2v16L382.3,81.3L382.3,81.3z M382.9,95.4c0.8,0.2,1.6,0.5,2.4,0.8v6.4
	c-0.8-0.4-1.5-0.7-2.4-1C382.9,101.6,382.9,95.4,382.9,95.4z M385,54.3h-2.1V46c0-0.4,0.1-0.7,0.3-1c0.2-0.2,0.4-0.3,0.7-0.3
	c0.3,0,0.6,0.1,0.8,0.4c0.2,0.2,0.4,0.6,0.4,0.9L385,54.3L385,54.3z M385,61.6v5.5c-0.4-0.2-0.8-0.4-1.3-0.4c-0.7,0-1.4,0.3-1.8,0.9
	l-0.6-0.6c-0.6-0.4-1.2-0.6-1.9-0.7v-0.6h1v-1.2h-1v-1h-1.1v1h-1v1.2h1v0.6c-0.7,0.1-1.4,0.3-2,0.7l-0.6,0.6
	c-0.4-0.5-1.1-0.9-1.8-0.9c-0.5,0-0.9,0.1-1.3,0.4v-5.5L385,61.6L385,61.6z M374.3,95.5v6.2c-0.8,0.3-1.6,0.7-2.3,1.1v-6.5
	C372.7,96,373.5,95.7,374.3,95.5z M378.7,102.1c3.2,0,6.2,1.2,8.4,3.5c2.2,2.1,3.5,5.1,3.5,8.1c0,4.5-2.7,8.2-7,10.5
	c0-0.2,0-0.5,0.1-0.8c0.3-1.5,0.9-2.9,1.7-4.2c0.6,0.1,1.2-0.2,1.5-0.7s0.3-1.1,0.1-1.5c0.6-0.2,1.1-0.7,1.2-1.4
	c0.1-0.8-0.4-1.5-1.1-1.7c0.4-0.5,0.5-1.1,0.3-1.7c-0.3-0.7-1-1.1-1.8-0.9c0,0,0.2-0.7-0.7-1.2c-0.9-0.5-1.4-0.2-1.4-0.2
	c-0.1-0.3-0.4-0.6-0.7-0.7c-0.3-0.1-0.7-0.1-1.1-0.1c-0.2-0.2-0.5-0.4-0.8-0.4c-0.3-0.1-0.7,0-1,0.1c-0.6-0.7-1.6-0.7-2.2-0.2
	c-0.1,0-0.1,0.1-0.2,0.2c0,0-0.2-0.2-0.8-0.2c-0.4,0-0.8,0.2-1,0.5c-0.3-0.2-0.7-0.2-1.1,0c-0.3,0.2-0.6,0.5-0.8,0.8
	c0,0-0.4-0.4-1.4,0.2c-0.4,0.3-0.7,0.7-0.7,1.2c-0.6-0.1-1.2,0.1-1.6,0.6c-0.4,0.6-0.4,1.3,0,1.9c-0.7,0.2-1.2,0.9-1.1,1.6
	c0,0.7,0.6,1.4,1.3,1.6c-0.1,0.5-0.1,1,0.2,1.5c0.4,0.5,1,0.7,1.6,0.7c0.1,0.5,0.9,3.5,1,4.7c-0.7-0.5-1.3-0.9-1.3-0.9
	c-5.2-3.3-6.7-10.1-3.5-15.3c0.5-0.8,1.1-1.5,1.8-2.2C372.5,103.3,375.5,102.1,378.7,102.1z M403.5,69.9v-1h-1.1v1h-1V71h1v3.3
	l-2.9,4.4V56.6l6.7,10.2v11.8l-2.7-4.1V71h1v-1.2C404.5,69.8,403.5,69.9,403.5,69.9z M402.9,75.6l3.3,5v2.9
	c-1.1-0.7-2.5-0.5-3.4,0.5c-0.5-0.6-1.2-0.9-2-0.9c-0.5,0-1,0.1-1.4,0.4v-2.7C399.4,80.8,402.9,75.6,402.9,75.6z M406.1,85.4v26.8
	l-2.8-4.2V85.5c0.1-0.7,0.7-1.3,1.4-1.3C405.5,84.2,406.1,84.7,406.1,85.4z M399.4,85.5c0-0.7,0.7-1.3,1.4-1.3s1.3,0.6,1.4,1.3V108
	l-2.8,4.2C399.4,112.2,399.4,85.5,399.4,85.5z M402.8,109.2l3.4,5.1v9.8c-0.4-0.3-0.9-0.4-1.3-0.4c-0.8,0-1.5,0.4-2,0.9
	c-0.5-0.6-1.2-0.9-2-0.9c-0.5,0-0.9,0.1-1.3,0.4v-9.7L402.8,109.2L402.8,109.2z M403.4,179.7V154h2.8v18l-2.7,4.8L403.4,179.7
	L403.4,179.7L403.4,179.7z M403.5,185.8v1.3h-0.8l0.2-0.2C403.1,186.5,403.3,186.2,403.5,185.8L403.5,185.8z M403.4,151.4v-25.2
	c0-0.3,0.2-0.7,0.4-0.9c0.3-0.2,0.6-0.4,1-0.4c0.7,0,1.3,0.6,1.3,1.3v25.2H403.4L403.4,151.4z M400.7,124.9c0.4,0,0.7,0.2,1,0.4
	c0.3,0.2,0.4,0.5,0.4,0.9v25.2h-2.8v-25.6C399.5,125.2,400.1,124.8,400.7,124.9z M402.2,154v24.6l-0.4-0.3c-0.9-0.8-1.7-1.7-2.3-2.8
	v-0.1l-0.1-0.1V154H402.2z M401.1,179.1c0.9,0.8,1.7,1.5,2.1,1.9c-0.2,1.3-0.4,2.5-0.6,3.8c-0.1,0.5-0.3,0.9-0.6,1.3
	c-0.2,0.2-0.4,0.4-0.7,0.4c-0.3,0-0.6-0.1-0.8-0.4c-0.7-0.8-0.8-3-0.8-4.1v-1c-1.2-0.4-2.2-1-3.1-1.8c-1.1-1.1-2.3-3.2-2.9-7.2
	c-0.2-1.4-0.4-4.4-0.8-7.5c-0.2-2.6-0.7-5.2-1.5-7.8l-1.1,0.5c0.8,2.4,1.2,4.9,1.4,7.4c0.3,3,0.6,6,0.8,7.5c0.6,4.1,1.9,6.4,3.2,7.8
	c0.8,0.8,1.8,1.4,2.9,1.8c-0.3,0.4-0.7,0.7-0.9,1.1c-0.7,1-1.4,2-2.2,2.9c-0.6,0.8-1.4,1.3-2.4,1.5c-0.5,0-0.9-0.2-1.2-0.6
	c-1.4-1.7-3.5-2.7-5.6-2.8c-1.4,0-2.7,0.5-3.7,1.5c-0.5,0.5-1.2,0.8-1.9,0.9c-0.9-0.1-1.8-0.5-2.4-1.2l-0.9-0.9
	c-0.4-0.4-1-0.8-1.5-1.1c-0.5-0.2-1.1-0.3-1.7-0.3c-0.7,0-1.4,0.1-2.1,0.4c-1.3,0.6-2.5,1.4-3.6,2.4c-0.7,0.7-1.7,1.1-2.7,1.2
	c-1.1,0-2.1-0.6-2.8-1.5c-0.4-0.6-0.9-1.1-1.5-1.5c-0.4-0.2-0.8-0.4-1.3-0.4c1.9-4.9,5-14.2,5.9-17.8c0.5-2.1,1-4.2,1.6-6.3
	c0.4-1.6,1.1-3.8,2.9-5c0.7-0.3,1.5-0.4,2.2-0.4c0.4,0,0.7,0,1.1,0.2c1.1,0.5,2.2,1.1,3.2,1.9c1.1,0.8,2.4,1.3,3.8,1.4
	c2.5,0,5.2-1.5,6-1.8c0.2-0.1,0.5-0.3,0.8-0.4c0.3-0.1,0.7-0.3,1-0.5l0.3-0.2c0.5-0.2,1-0.4,1.6-0.4c0.3,0,0.6,0.1,0.9,0.2
	c0.4,0.2,0.8,0.6,1,1.1c1.1,1.9,1.9,5.5,2.2,7.3c0.4,2.5,1.1,6.4,1.9,9.6c0.3,1,0.7,1.9,1.1,2.8c0.2,0.4,0.4,0.8,0.7,1.1l0.1,0.1
	C399.2,177.3,400.1,178.3,401.1,179.1L401.1,179.1z M399.9,187.1h-4c0.5-0.5,0.9-1,1.4-1.5c0.5-0.7,1-1.4,1.5-2
	c0,0.6,0.1,1.1,0.3,1.7c0.1,0.6,0.4,1.1,0.8,1.6C399.8,187,399.8,187,399.9,187.1L399.9,187.1z M390.6,187.1h-0.8
	c-0.1-0.3-0.2-0.7-0.4-1C389.8,186.4,390.2,186.7,390.6,187.1L390.6,187.1z M387.7,185.4c0.6,0.7,1,1.7,1.1,2.6c0,0.2,0,0.3-0.1,0.4
	v0.1c-0.4,0.2-0.9,0.3-1.3,0.3c-0.6,0-1.2-0.2-1.6-0.6c-0.6-0.5-1.1-1.1-1.6-1.8c-0.2-0.3-0.3-0.5-0.4-0.7c0.7-0.5,1.6-0.8,2.5-0.8
	h0.1l0.8,2.2l1.1-0.4L387.7,185.4z M383.1,187.1h-1.3c0.4-0.1,0.7-0.3,1-0.5C382.9,186.7,383,186.9,383.1,187.1z M379.3,187.1h-2.1
	c0-0.4,0.1-0.8,0.1-1.2v-0.2l0.2,0.1C378,186.4,378.6,186.8,379.3,187.1L379.3,187.1z M375,187.5l0.9-2.8l0.2,0.1v1
	c0,0.6-0.1,1.1-0.1,1.7c-0.1,0.2-0.2,0.3-0.4,0.5s-0.5,0.3-0.7,0.5c-0.2,0.1-0.4,0.1-0.6,0.2c-0.3,0.1-0.6,0.1-0.9,0.1h-0.2
	c-0.5-0.1-1-0.5-1.2-0.9c-0.1-0.2-0.2-0.5-0.2-0.8c0-0.9,0.4-1.9,0.9-2.6c0-0.1,0.1-0.1,0.2-0.2c0.2-0.1,0.4-0.1,0.7-0.2h0.5
	c0.2,0,0.4,0,0.6,0.1l0.3,0.1l-1,3L375,187.5L375,187.5z M370.6,187.1h-2.2l0.9-0.6c0.5-0.5,1.1-0.9,1.7-1.3
	c-0.2,0.6-0.3,1.2-0.3,1.8C370.6,187,370.5,187.1,370.6,187.1z M354.6,180.5c2.5-2.5,4.5-5.3,6.2-8.4c2.2-4.1,3.6-9.5,4.3-11.7
	c0.4-1.8,1.4-3.4,2.7-4.6c-0.5,1-0.9,2.1-1.2,3.1c-0.6,2.1-1,4.2-1.6,6.3c-1.8,6.4-3.9,12.7-6.3,18.8c-0.3,0.5-0.6,1-0.8,1.5
	c-0.3,0.5-0.7,0.9-1.2,1h-0.2c-0.4,0-0.8-0.3-1.2-1.4C354.7,183.7,354.5,182.1,354.6,180.5L354.6,180.5z M355,187.1h-1v-2
	c0,0.2,0.1,0.3,0.2,0.5C354.3,186.2,354.6,186.7,355,187.1z M358,154v20.4c-0.8,1.3-1.8,2.6-2.8,3.8V154H358z M355.2,151.4v-25.2
	c0-0.3,0.2-0.7,0.4-0.9c0.3-0.2,0.6-0.4,1-0.4c0.7,0,1.3,0.5,1.3,1.2v25.3H355.2L355.2,151.4z M358,112.2l-2.8-4.2V85.5
	c0-0.7,0.6-1.3,1.3-1.3c0.4,0,0.7,0.2,1,0.4c0.3,0.2,0.4,0.5,0.4,0.9L358,112.2z M369.1,123.1c1.2,0,2.2,0.9,2.2,2.1l-0.6,0.2
	l0.2,0.5v0.3c0,0.4-0.2,0.5-0.5,0.5s-0.5-0.2-0.6-0.5l-0.1-0.2v-0.2h0.9v-1.2h-0.9v-0.9h-1.1v0.9h-0.9v1.2h0.9v0.2l-1.3,0.4
	c-0.2-0.4-0.4-0.8-0.4-1.2C366.8,124.1,367.8,123.1,369.1,123.1L369.1,123.1z M369,122.5v-0.6l0.6,0.6H369z M372,126.3l0.6-0.3
	l1.4,3.9l-0.5,0.2c-0.3-0.5-0.8-0.7-1.4-0.7c-1,0-1.8,0.8-1.8,1.8l-0.6,0.2l-1.3-4l0.6-0.2c0.3,0.5,0.9,0.8,1.4,0.8
	c0.4,0,0.8-0.2,1.1-0.4C371.8,127.1,372,126.7,372,126.3L372,126.3z M371.7,124.2l0.9,0.6l-0.7,0.2
	C371.8,124.7,371.8,124.5,371.7,124.2L371.7,124.2z M383.9,119.2h-0.6c-0.1,0.4-0.2,0.7-0.4,1c-0.3,0.4-0.3,0.3-0.8,1
	c-0.5-0.4-1.1-0.7-1.7-0.9v-1h-0.5v1h-0.3V120h-0.4v0.4c0,0.2-0.2,0.3-0.4,0.3c-0.1,0-0.3-0.1-0.3-0.3V120h-0.4v0.3h-0.3v-1.1h-0.5
	v1c-0.6,0.2-1.1,0.4-1.5,0.8c-0.8-0.3-1.4-1-1.6-1.9h-0.3c-0.4-1.1-0.7-2.2-0.9-3.4c0.4-0.3,1.3-1.2,1.3-1.7c0.3,0.3,0.6,0.4,1,0.4
	c0.5,0,1-0.3,1.3-0.7c0.7,0.5,1.7,0.3,2.3-0.4c0.3,0.3,0.6,0.7,1.1,0.7c0.4,0,0.8-0.1,1.2-0.3c0.3,0.4,0.8,0.7,1.3,0.7
	c0.9,0,1-0.4,1-0.4s1.1,1.2,1.6,1.6C384.7,116.9,384.3,118,383.9,119.2L383.9,119.2z M385.5,126.2v0.8c-0.5-0.6-0.9-1.2-1.4-1.7
	c0.5-0.2,0.9-0.5,1.4-0.8c-0.1,0.3-0.1,0.5-0.1,0.8C385.3,125.6,385.4,125.9,385.5,126.2z M384.9,128.2c-0.4,0.4-0.8,0.8-1.3,1.2
	c-0.9,0.6-1.4,1.5-1.6,2.5v0.3c0.2,0.8,0.5,1.5,0.8,2.2c0.7,1.6,1.7,3.9,2.7,5.9c0.5,1,1,1.9,1.4,2.6c0.3,0.6,0.7,1.1,1.2,1.5
	c0.4,0.4,0.9,0.7,1.4,0.8c1.5,0.4,2.7,0.8,3.3,2.1l1-0.5c-0.9-1.8-2.6-2.2-4-2.7l-0.1-0.1v-0.3c0.1-1.4,0.2-2.7,0.5-4.1l-1.1-0.2
	c-0.2,1.2-0.4,2.5-0.5,3.7c-0.2-0.2-0.3-0.5-0.5-0.7c-0.7-1.6-1-3.3-1.1-5c-0.2-1.8-0.2-3.6-0.4-4.7l-1.1,0.2
	c0.2,1.1,0.2,3.4,0.5,5.6c-0.3-0.6-0.5-1.1-0.8-1.7c-0.5-1.2-1-2.3-1.4-3.2c-0.2-0.5-0.4-1.1-0.6-1.6v-0.1c0-0.4,0.5-1,1.2-1.6
	c0.4-0.4,0.9-0.7,1.3-1.1c4.4,5.9,8.7,13.5,9.6,17.1c0,0.3,0.1,0.6,0.1,0.8c-0.1,1.5-0.8,2.9-2,3.8c-0.3,0.3-0.7,0.5-1,0.7V151
	c0-0.9-0.2-1.7-0.7-2.5c-0.3-0.3-0.6-0.6-0.9-0.8c-0.8-0.6-1.7-1-2.6-1.1h-0.4c-0.1,0-0.3-0.1-0.6-0.4c-1.1-1.2-2.5-4.7-3.6-8.2
	c-1-3.2-1.9-6.6-2.3-8.4l1.2-0.6c0.5-0.3,0.9-0.8,1.1-1.4c0.1-0.4,0.2-0.7,0.2-1.1C383.9,127,384.4,127.5,384.9,128.2L384.9,128.2z
	 M388.1,123.2c1.2,0,2.2,1,2.2,2.2s-1,2.2-2.2,2.2s-2.2-1-2.2-2.2C385.9,124.1,386.9,123.1,388.1,123.2
	C388.1,123.1,388.1,123.1,388.1,123.2z M388,122.6l0.4-0.4v0.3L388,122.6z M391.4,101v9.7c-0.4-1.5-1.1-2.9-2-4.2V99
	C390.1,99.6,390.8,100.3,391.4,101L391.4,101z M389.5,97.6l1.9-2.9v4.7C390.8,98.7,390.2,98.1,389.5,97.6z M391.4,126.3v9.4
	c-0.6-1-1.3-2.1-2-3.1v-4.8c1.4-0.7,1.9-2.4,1.1-3.8c-0.3-0.5-0.6-0.9-1.1-1.1v-2c0.9-1.2,1.6-2.6,2-4.1v7.6
	C391.2,125,391.2,125.7,391.4,126.3L391.4,126.3z M388.3,128.1v2.8c-0.6-0.8-1.1-1.6-1.7-2.4v-0.9c0.5,0.3,1,0.5,1.5,0.5
	L388.3,128.1L388.3,128.1z M394.2,151.4c1.3-1.1,2.1-2.7,2.2-4.4c0-0.3,0-0.7-0.1-1c-0.3-1.1-0.6-2.1-1.1-3.1v-15
	c0.9-0.4,1.6-1.4,1.6-2.4v25.9H394.2z M396.8,154v13.8c-0.4-2-0.7-4-1-5.4c-0.3-1.8-0.7-3.5-1.3-5.2c-0.3-0.9-0.6-1.7-1.1-2.5
	c-0.1-0.2-0.3-0.4-0.4-0.6L396.8,154z M392.6,100.6v-6l4.2,6.5v8C396,106,394.5,103.1,392.6,100.6z M396.8,117.3v7.8
	c-0.1-1-0.7-2-1.6-2.4v-15C396.3,110.8,396.8,114.1,396.8,117.3z M394,105v17.5c-0.5,0-1,0.1-1.5,0.4v-20.4
	C393.1,103.3,393.6,104.1,394,105z M392.6,92.5v-4l4.2,6.5v4L392.6,92.5z M392.6,86.4v-7.1c0-1.1,1-2,2.1-2s2.1,0.9,2.2,2v13.6
	L392.6,86.4L392.6,86.4z M394.6,76.1c-1.1,0-2.1,0.5-2.7,1.4c-0.7-0.9-1.7-1.4-2.8-1.4c-0.9,0-1.7,0.3-2.4,0.9l5.3-8l4.7,7.2V77
	C396.2,76.5,395.4,76.2,394.6,76.1z M394,123.1c1.2,0,2.2,1,2.2,2.2s-1,2.2-2.2,2.2s-2.2-1-2.2-2.2S392.8,123.1,394,123.1z
	 M394,128.1v12.3c-0.4-0.9-0.9-1.8-1.5-2.7v-10C393,127.9,393.5,128.1,394,128.1z M388.2,151.8l-4,2.4c-0.1,0-0.2-0.1-0.3-0.2
	l4.1-2.6l-0.6-1l-4.3,2.8c-0.1-0.2-0.1-0.4-0.1-0.6l4.2-2.5l-0.6-1l-3.2,1.9c0.2-0.4,0.6-0.8,1-1c0.3-0.2,0.4-0.2,3.6-2.3h0.1
	c0.7,0.2,1.3,0.5,1.9,0.8c0.7,0.6,1.1,1.5,1.1,2.5c0,0.3,0,0.5-0.1,0.8l-2.6,1.6l-1.2,0.6c-0.3,0.1-0.7,0.2-1,0.3l2.5-1.5
	L388.2,151.8z M378.2,152.8h-0.3c-1.5-0.1-2.6-1.4-2.6-2.8v-0.4c0.2-1.5,1.5-2.7,3.1-2.6c0.2,0,0.4,0,0.7,0.1l0.3,0.1l0.2-0.3
	c0.5-0.7,1.3-1.2,2.2-1.2c0.6,0,1.3,0.2,1.8,0.5c0.8,0.5,1.3,1.3,1.4,2.2l-0.4,0.3v-0.1c0-0.8-0.4-1.5-1-1.9c-0.4-0.3-1-0.5-1.5-0.5
	c-1.1,0-2,0.6-2.5,1.6c-0.4-0.2-0.8-0.3-1.2-0.3c-1.3,0-2.4,0.9-2.6,2.2v0.4c0,0.7,0.3,1.3,0.7,1.8c0.5,0.4,1.1,0.6,1.7,0.6h0.5
	c0.1,1.4,1.2,2.5,2.6,2.5c0.3,0,0.7-0.1,1-0.2l0.3-0.1c0.1,0.1,0.3,0.3,0.5,0.4c-0.3,0.2-0.7,0.3-1,0.3c-0.3,0.1-0.5,0.1-0.8,0.1
	c-1.3,0-2.5-0.9-2.8-2.1L378.2,152.8L378.2,152.8z M378.2,155.1l-0.5-0.3c-0.5-0.3-1.1-0.7-1.6-1h1.3
	C377.6,154.3,377.9,154.8,378.2,155.1L378.2,155.1z M363.3,123.1c1.2,0,2.2,1,2.2,2.2s-1,2.2-2.2,2.2s-2.2-1-2.2-2.2
	S362.1,123.1,363.3,123.1z M363.2,122.5v-17.1c0.5-1,1-1.9,1.6-2.8V123C364.4,122.7,363.8,122.5,363.2,122.5z M364.8,127.7v11.4
	l-0.9,1.6c-0.3,0.5-0.5,1-0.7,1.4v-14h0.1C363.9,128.1,364.4,128,364.8,127.7z M362.6,146.8v-0.1c0.6-1.9,1.4-3.7,2.4-5.4
	c1.2-2.3,2.7-4.9,4.3-7.4l1.3,3.9l2.6-0.9l-0.1-0.5v-0.2c0-0.3,0.3-0.6,0.6-0.6c0.2,0,0.4,0.1,0.6,0.5l0.2,0.6
	c-0.7,1.9-1.8,4.6-2.3,6c-0.2,0-0.4-0.1-0.5-0.1c-1.1,0.1-2.2,0.7-2.9,1.6c0.3-2,0.7-4,1.3-5.9l-1.1-0.4c-1.1,3.6-1.7,7.3-1.8,11.1
	c0,0.6,0,1.1,0.2,1.7c0.2,0.9,1,1.6,2,1.6c1.1-0.1,2.2-0.6,3-1.4c-0.8,1.4-2,2.4-3.6,2.9c-0.2,0.1-0.4,0.1-0.6,0.1
	c-1.5-0.2-2.8-0.9-3.8-2.1c-1.1-1.1-1.8-2.5-2-4.1C362.4,147.3,362.5,147,362.6,146.8L362.6,146.8z M371.4,131.1
	c0-0.3,0.3-0.6,0.7-0.6c0.2,0,0.4,0.1,0.5,0.5v0.2c0,0.3-0.3,0.6-0.7,0.6c-0.2,0-0.4-0.1-0.5-0.5V131.1z M371.9,133
	c1,0,1.8-0.8,1.8-1.8l0.5-0.2l1.4,3.8l-0.3,0.1L375,135c-0.3-0.5-0.8-0.7-1.4-0.7c-1,0-1.8,0.8-1.8,1.7l-0.6,0.2l-1.3-3.8l0.6-0.2
	C370.8,132.7,371.4,133,371.9,133L371.9,133z M378.8,127.2h0.5c1.3-0.1,2.4-0.8,3-1.9c0,0.6-0.1,1.2-0.2,1.8
	c-0.1,0.3-0.3,0.6-0.6,0.8c-0.3,0.2-0.9,0.4-1.5,0.7l-0.4,0.2l0.1,0.4c0.1,0.5,0.3,1.2,0.5,1.9c-0.4,0.3-0.9,0.5-1.4,0.5
	c-0.6,0.1-1.2-0.1-1.7-0.4c0.2-0.8,0.4-1.4,0.5-1.9l0.1-0.5l-0.5-0.2c-1-0.4-1.9-1.1-2.3-2.2c0-0.2-0.1-0.6-0.2-0.9v-0.8
	C375.7,126.3,377.2,127.2,378.8,127.2z M377.4,122.5h2.7c-0.2,0.7-0.9,1.2-1.6,1.1C377.9,123.5,377.5,123.1,377.4,122.5z
	 M381.9,140.8c-0.5-2.1-1.1-5.1-1.5-8.2l0.3-0.2c0.5,1.8,1.1,4,1.7,6.1c0.5,2,0.8,4.1,0.9,6.1c-0.2-0.1-0.4-0.1-0.6-0.2h0.1
	C382.7,144.6,382.3,143.1,381.9,140.8L381.9,140.8z M380.4,139.5c-0.1-0.3-0.3-0.5-0.5-0.8c-0.3-0.4-0.7-0.7-1.2-0.8h-0.3l-0.2,0.1
	c0.1-1,0.4-3.3,0.5-5h0.5C379.5,135.3,380,137.6,380.4,139.5z M376.5,133.5l0.3-1c0.2,0.1,0.5,0.2,0.7,0.3c0,0.9-0.1,2.1-0.2,3.1
	L376.5,133.5L376.5,133.5z M377,138.3l-0.5,0.1l-0.8-2.4l0.2-0.1l0.3-0.1L377,138.3z M376.5,129.6c-0.2,0.6-0.4,1.3-0.6,2.1
	l-0.5-1.5l-0.8-2.4C375,128.6,375.6,129.2,376.5,129.6z M375.5,139.2c-0.3,0.4-0.6,0.9-0.9,1.4s-0.6,1-1,1.5c0.4-1.1,1-2.6,1.5-3.9
	L375.5,139.2z M371.6,143.6c-0.7,0.7-1.3,1.5-1.9,2.2c-0.5,0.6-0.9,1.2-1.3,1.8c0-0.4,0.1-0.9,0.1-1.3
	C369.4,144.7,370.6,143.6,371.6,143.6L371.6,143.6z M374.2,149.2l0.1,0.2v0.6c0,1,0.4,2,1.1,2.7h-2.8
	C373.4,151.7,373.9,150.5,374.2,149.2L374.2,149.2z M374.7,147.4c-0.4,0.2-0.7,0.5-0.9,0.7l-0.3,0.3l-0.2,0.2
	c-1.9,1.8-3.1,2.5-3.8,2.4c-0.5,0-0.7-0.2-1-0.9c-0.1-0.2-0.1-0.3-0.1-0.5c0.5-0.6,1.3-1.8,2.2-3.1c0.8-1.3,1.9-2.4,3.2-3.2
	c0.8-0.5,1.5-1.3,1.9-2.2c0.4-0.8,0.9-1.4,1.2-1.5l1.9-0.5c0.1,0.1,0.3,0.2,0.4,0.4l-1.3,0.5l0.5,1.1l1.4-0.6
	c0.1,0.1,0.1,0.3,0.2,0.4l-1.4,0.6l0.4,1.1l1.3-0.5c0,0.2,0.1,0.3,0.1,0.5l-1.3,0.5l0.4,1.1l1.1-0.4v0.2c0,0.2,0,0.3-0.1,0.4
	c-0.6,0.2-2.7,1.2-3.9,1.9C376.1,146.4,375.3,146.9,374.7,147.4L374.7,147.4z M384.4,144.1c0.2,0.4,0.3,0.7,0.5,1.1
	c0.3,0.6,0.7,1.2,1.2,1.8l0.4,0.4l-0.5,0.3c-0.2-1-0.8-1.8-1.6-2.4v-0.4C384.5,144.8,384.4,144.4,384.4,144.1L384.4,144.1z
	 M383.2,149.5c-0.2,0.2-0.3,0.3-0.4,0.5l-0.9-0.1l-0.4,0.9l0.7,0.4c-0.1,0.4-0.2,0.8-0.2,1.3c0,0.3,0.1,0.7,0.2,1l-0.1,0.1
	c-0.2,0.1-0.3,0.1-0.5,0.1c-0.4,0-0.7-0.2-1-0.5s-0.4-0.6-0.4-1c0-0.2,0.1-0.5,0.2-0.6l-0.8-0.8c-0.3,0.3-0.7,0.4-1.1,0.4
	c-0.7,0.1-1.3-0.3-1.4-1V150v-0.3c0.1-0.7,0.7-1.2,1.4-1.2c0.5,0,1,0.3,1.2,0.8l1.1-0.4c0-0.1-0.1-0.2,0-0.4c0-0.4,0.2-0.7,0.4-0.9
	c0.3-0.2,0.6-0.4,1-0.4c0.3,0,0.6,0.1,0.8,0.3c0.3,0.2,0.5,0.6,0.6,1c0,0.4-0.1,0.7-0.3,1L383.2,149.5L383.2,149.5z M367.9,122.8
	c-1.4,0.7-1.9,2.4-1.2,3.7c0.1,0.2,0.2,0.4,0.4,0.6l0.8,2.5v4.3c-0.6,1-1.3,2.1-1.9,3.1v-10.9c0.1-0.3,0.1-0.6,0.1-0.9
	s0-0.6-0.1-0.8v-8.1c0.4,1.5,1,2.9,1.9,4.2L367.9,122.8L367.9,122.8z M366,99.4v-4.8l2,3C367.3,98.1,366.6,98.7,366,99.4z
	 M367.9,99.2v7.6c-0.9,1.3-1.5,2.7-1.9,4.2v-9.9C366.6,100.4,367.2,99.8,367.9,99.2z M365.5,77.6c-0.6-0.9-1.6-1.4-2.7-1.4
	c-0.8,0-1.6,0.3-2.2,0.8v-0.6l4.8-7.3l5.3,8v0.1c-0.7-0.6-1.5-0.9-2.4-0.9C367.1,76.2,366.1,76.7,365.5,77.6L365.5,77.6z
	 M360.6,79.3c0.1-1.1,1-2,2.2-2c1.1,0,2,0.8,2.1,1.9v7.2l-4.2,6.5V79.3H360.6z M364.9,88.5v4l-4.3,6.5v-4L364.9,88.5z M364.9,94.6
	v6.1c-2,2.5-3.4,5.4-4.2,8.5v-8.1L364.9,94.6z M360.6,117.6c0-3.2,0.5-6.4,1.5-9.4v14.6c-0.8,0.4-1.3,1.1-1.5,2V117.6z M362.1,127.8
	v16.8c-0.3,0.6-0.5,1.3-0.6,1.9c-0.1,0.3-0.1,0.7-0.1,1c0.1,1.4,0.6,2.8,1.5,3.9h-2.3v-25.6C360.7,126.7,361.3,127.4,362.1,127.8
	L362.1,127.8z M365.7,154c0.5,0.3,1,0.5,1.6,0.6l-0.2,0.2c-1.6,1.4-2.7,3.2-3.1,5.2c-0.9,3.3-2,6.6-3.4,9.7V154H365.7z M359.2,185.5
	c0.1-0.3,0.3-0.6,0.5-0.8c0.1-0.1,0.3-0.2,0.5-0.2c0.3,0,0.5,0,0.8,0.2c0.5,0.3,0.8,0.8,1.2,1.2c0.3,0.5,0.8,0.9,1.2,1.2H358
	C358.5,186.6,358.9,186.1,359.2,185.5L359.2,185.5z M396.8,74.1l-4.2-6.5v-2h1v-1.1h-1v-1h-1.1v1h-1v1.2h1v2.2l-4.7,7.1V61.6h10.1
	L396.8,74.1L396.8,74.1z M387.4,78c0.5-0.4,1.1-0.7,1.7-0.7c1.2,0,2.3,1,2.3,2.2v6.9l-4.7,7.1V79.4C386.8,78.9,387,78.4,387.4,78z
	 M391.4,88.5v4l-2.8,4.4c-0.6-0.4-1.2-0.8-1.9-1.2v-0.1L391.4,88.5L391.4,88.5z M388.3,98.1v7c-0.6-0.6-1.3-1.2-2-1.7v-6.6
	C387,97.2,387.7,97.6,388.3,98.1z M370.9,103.6c-0.7,0.5-1.3,1.1-1.9,1.7v-7.1c0.6-0.4,1.2-0.8,1.9-1.2V103.6z M368.9,96.9l-2.9-4.4
	v-4l4.7,7.2C370.1,96.1,369.5,96.4,368.9,96.9L368.9,96.9z M366,86.5v-6.9c0-1.2,1-2.2,2.3-2.2c0.6,0,1.2,0.2,1.7,0.7
	c0.4,0.3,0.6,0.8,0.7,1.3v14.3C370.7,93.7,366,86.5,366,86.5z M366,67.8v-2.1h1v-1.2h-1v-1h-1.1v1h-1v1.2h1v2.1l-4.2,6.5V61.6h10
	v13.3L366,67.8L366,67.8z M362.9,54.3h-2.4V43.7l-0.7-1.3v-4.2h1V37h-1v-1h-1.2v1h-1v1.2h1v4.2l-0.7,1.2v10.9l-6.7,10.2V37.3
	c3.8-1.3,7.7-2.4,11.7-3.2L362.9,54.3L362.9,54.3z M357.9,56.7v21.9l-2.8-4.2V71h1v-1.2h-1v-1H354v1h-1V71h1v3.3l-2.8,4.2V66.9
	L357.9,56.7L357.9,56.7z M354.6,75.6l3.4,5.1v2.8c-0.4-0.3-0.9-0.4-1.4-0.4c-0.7,0-1.4,0.3-1.9,0.9c-0.5-0.6-1.2-0.9-1.9-0.9
	c-0.5,0-1,0.1-1.4,0.4v-2.8L354.6,75.6L354.6,75.6z M352.6,84.2c0.7,0,1.3,0.6,1.4,1.3V108l-2.8,4.2V85.5
	C351.3,84.8,351.9,84.2,352.6,84.2z M354.6,109.2l3.4,5.1v9.8c-0.4-0.3-0.9-0.4-1.4-0.4c-0.8,0-1.5,0.3-2,0.9
	c-0.5-0.6-1.2-0.9-2-0.9c-0.5,0-1,0.1-1.4,0.4v-9.8L354.6,109.2z M352.6,124.9c0.7,0,1.3,0.6,1.4,1.3v25.2h-2.8v-25.3
	C351.3,125.4,351.9,124.9,352.6,124.9z M354,154v25.4l-0.1,0.1v-2.7l-2.7-4.8v-18H354L354,154z M352.2,177.3v10.3l-1.4,1.2v-13.9
	L352.2,177.3z M405.2,187.6v-10.3l1.4-2.4v13.9L405.2,187.6z M406.2,64.7l-6.7-10.2V43.7l-0.7-1.2v-4.2h1v-1.2h-1v-1h-1.2v1h-1v1.2
	h1v4.2l-0.7,1.2v10.5h-2.3V34.1c4,0.8,7.9,1.8,11.7,3.2L406.2,64.7L406.2,64.7z M396.8,55.4v5.1h-10.1v-5.1H396.8z M386.7,54.3V46
	c0-0.6,0.4-1.2,1.1-1.3c0.3,0,0.5,0.1,0.7,0.4c0.2,0.3,0.3,0.6,0.3,0.9v8.2C388.8,54.2,386.7,54.3,386.7,54.3z M390,54.3V46
	c0-0.7,0.6-1.3,1.3-1.3c0.4,0,0.7,0.1,1,0.4c0.3,0.2,0.4,0.6,0.4,0.9v8.2L390,54.3L390,54.3z M392.7,41.8V44
	c-0.4-0.3-0.9-0.4-1.4-0.4c-0.7,0-1.4,0.3-1.9,0.9c-0.4-0.5-1-0.9-1.7-0.9c-0.5,0-1,0.2-1.4,0.5v-2.7l3-4.6
	C389.3,36.8,392.7,41.8,392.7,41.8z M386.4,30.6c0-0.7,0.6-1.2,1.3-1.2c0.7,0,1.2,0.6,1.2,1.3v4.9l-2.4,3.7L386.4,30.6
	C386.4,30.7,386.4,30.6,386.4,30.6z M382.9,12.9c2,0.1,4,0.2,6,0.4v11l-3-7.7l-3,7.8C382.9,24.4,382.9,12.9,382.9,12.9z M382.9,28.3
	v-0.7l3-7.8l3,7.7v1.2c-0.4-0.2-0.8-0.4-1.2-0.4c-0.7,0-1.4,0.3-1.8,0.9c-0.4-0.5-1.1-0.9-1.8-0.9c-0.4,0-0.9,0.1-1.2,0.4V28.3z
	 M382.9,30.7c-0.1-0.7,0.4-1.3,1.1-1.4s1.3,0.4,1.4,1.1v8.9l-2.4-3.7v-4.9L382.9,30.7z M385.3,41.4v2.7c-0.4-0.4-0.9-0.6-1.5-0.6
	s-1.2,0.3-1.6,0.8c-0.7-0.9-2-1.1-2.9-0.5v-2.6l2.9-4.5C382.2,36.7,385.3,41.4,385.3,41.4z M379.3,39.2v-11c-0.1-0.7,0.4-1.2,1-1.3
	c0.7-0.1,1.2,0.4,1.3,1v7.6C381.6,35.5,379.3,39.2,379.3,39.2z M375.7,12.8h5.9V21l-3-7.7l-3,7.6C375.6,20.9,375.7,12.8,375.7,12.8z
	 M375.7,24.1l3-7.6l3,7.7v2c-0.4-0.2-0.8-0.3-1.2-0.3c-0.7,0-1.3,0.3-1.8,0.9c-0.7-0.9-2-1.1-3-0.5
	C375.7,26.3,375.7,24.1,375.7,24.1z M375.7,28.1c0-0.7,0.5-1.2,1.2-1.3c0.7,0,1.2,0.5,1.3,1.2v11.3l-2.5-3.7
	C375.7,35.6,375.7,28.1,375.7,28.1z M378.2,41.4v2.5c-0.4-0.2-0.8-0.4-1.2-0.4c-0.7,0-1.3,0.3-1.8,0.8c-0.4-0.5-1-0.8-1.7-0.8
	c-0.5,0-1,0.2-1.4,0.5v-2.7l3-4.6L378.2,41.4z M372.2,39.3v-8.6c-0.1-0.7,0.4-1.3,1.1-1.3c0.7-0.1,1.3,0.4,1.3,1.1v5.1
	C374.6,35.6,372.2,39.3,372.2,39.3z M368.6,13.3c2-0.2,4-0.3,6-0.4v11.3l-3-7.7l-3,7.8V13.3z M368.6,27.6l3-7.8l3,7.7v1.2
	c-0.4-0.2-0.8-0.4-1.2-0.4c-0.7,0-1.4,0.3-1.8,0.9c-0.4-0.5-1.1-0.9-1.8-0.9c-0.4,0-0.9,0.1-1.2,0.4
	C368.6,28.7,368.6,27.6,368.6,27.6z M368.6,30.7c0-0.7,0.5-1.2,1.2-1.2s1.2,0.5,1.2,1.2v8.6l-2.4-3.7L368.6,30.7L368.6,30.7z
	 M371,41.5v2.8c-0.4-0.4-0.9-0.6-1.5-0.6s-1.2,0.3-1.6,0.8c-0.5-0.5-1.1-0.8-1.8-0.8c-0.5,0-1,0.1-1.4,0.4v-2.2l3.3-5L371,41.5z
	 M364.7,39.8v-6c0.9-0.2,1.8-0.3,2.7-0.4v2.2L364.7,39.8z M311.1,134.8h-2.9c1.4-0.7,1.9-2.4,1.3-3.7c-0.3-0.5-0.7-1-1.3-1.3h2.9
	V134.8z M305.8,129.8c-1.4,0.7-1.9,2.4-1.3,3.7c0.3,0.5,0.7,1,1.3,1.3h-2.7v-5H305.8z M303.2,128v-5.3c0-0.4,0.2-0.8,0.5-1
	c0.3-0.3,0.8-0.4,1.2-0.4c0.8-0.1,1.6,0.6,1.6,1.4v5.4L303.2,128L303.2,128z M304.8,132.3c0-1.2,1-2.2,2.2-2.2s2.2,1,2.2,2.2
	s-1,2.2-2.2,2.2S304.8,133.5,304.8,132.3z M311.1,128h-3.5v-5.3c0.1-0.8,0.8-1.5,1.7-1.4c0.5,0,0.9,0.2,1.3,0.4
	c0.3,0.2,0.5,0.6,0.5,1V128z M311.1,120.6c-0.5-0.4-1.2-0.5-1.8-0.6c-0.9,0-1.7,0.4-2.2,1c-0.5-0.6-1.3-1-2.2-1
	c-0.6,0-1.2,0.2-1.7,0.5v-2.8l3.9-6l4,6.1L311.1,120.6L311.1,120.6z M311.1,115.9l-3.5-5.3v-2.2h1v-1.2h-1v-1h-1.1v1h-1v1.2h1v2.2
	l-3.3,5.1v-8.2l7.9-11.4C311.1,96.1,311.1,115.9,311.1,115.9z M311.1,94.2l-7.9,11.4V91.9l-0.9-1.4l-0.9,1.4v44.7h9.7v25.8
	c-19.8-28.4-19.8-66.1,0-94.5L311.1,94.2L311.1,94.2z M311.1,61.9v3.9c-21.4,29.3-21.4,69.1,0,98.5v27.4c-1.6-1.4-3.1-2.9-4.7-4.4
	c-39.9-39.9-39.9-104.7,0-144.6c16.4-16.4,37.9-26.7,60.9-29.3v18.7c-0.9,0.1-1.8,0.3-2.7,0.4V18.9l-0.9-1.1l-0.9,1.1v14
	c-4,0.8-7.9,1.8-11.7,3.1v-3l-1.3-2.2l-1.3,2.2v4c-2.6,1-5.1,2.1-7.6,3.4v-3.1l-1.8,2.8v1.1c-5.8,3.1-11.2,6.9-16.1,11.2v-3
	l-1.8,2.7v2c-2.7,2.6-5.3,5.3-7.7,8.3v-0.5l-1.3-2.2C312.2,59.7,311.1,61.9,311.1,61.9z M337.5,193.9v-1.2h1.1v-1.1h1.2v1.1h1.1v1.2
	h-1.1v1.1h-1.2v-1.1H337.5z M313.7,190.7v-1.8h32.8l2,1.8H313.7z M331.9,193.9v-1.2h1.1v-1.1h1.2v1.1h1.1v1.2h-1.1v1.1H333v-1.1
	H331.9L331.9,193.9z M326.4,193.9v-1.2h1.1v-1.1h1.2v1.1h1.2v1.2h-1.2v1.1h-1.2v-1.1H326.4z M320.8,193.9v-1.2h1.1v-1.1h1.2v1.1h1.1
	v1.2h-1.1v1.1H322v-1.1H320.8L320.8,193.9z M325.9,69.9l2.1,3.2v11.4h-1.5V75l0.5-0.9l-1.1-1.8l-1.1,1.8l0.5,0.9v9.5h-2.1V74
	C323.2,74,325.9,69.9,325.9,69.9z M323.2,71.9V54.1c0.7-0.6,1.4-1.3,2.1-1.9v16.5L323.2,71.9z M339.3,73.9v10.6h-2.1V75l0.5-0.9
	l-1.1-1.8l-1.1,1.8L336,75v9.5h-1.5V73.2l2.1-3.2C336.6,70,339.3,73.9,339.3,73.9z M337.2,68.8v-25l2.1-1.2v29.3L337.2,68.8z
	 M335.2,119.1v2.2c-1-0.2-2-0.3-3-0.3l3.6-5.5l3.5,5.5v1.6c-1-0.4-2-0.8-3-1v-2.5C336.3,119.1,335.2,119.1,335.2,119.1z
	 M332.2,118.9v-15.4c0.3-0.4,0.8-0.6,1.4-0.6c0.8-0.1,1.6,0.6,1.7,1.4v10L332.2,118.9z M336.3,114.3v-10c0-0.8,0.6-1.4,1.4-1.4
	c0.4,0,0.8,0.2,1.1,0.4c0.3,0.3,0.5,0.6,0.5,1v14.6L336.3,114.3z M337.8,101.8c-0.8,0-1.5,0.4-2,1c-0.6-0.6-1.4-1-2.2-1
	c-0.5,0-0.9,0.1-1.4,0.3v-0.7l3.5-9.6l3.6,10.2v0.2C338.8,101.9,338.3,101.7,337.8,101.8z M335.6,88.4l-3.5,9.6V85.7h7.2v12.9
	C339.3,98.6,335.6,88.4,335.6,88.4z M336,57.4l-2.1-3.2l-2.1,3.2V47.2c1.4-1,2.8-1.9,4.2-2.7C336,44.5,336,57.4,336,57.4z
	 M333.9,56.2l2.1,3.2v9.3l-1.5,2.3v-8h1v-1.2h-1v-2.2h-1.1v2.2h-1V63h1v8l-1.5-2.3v-9.3C331.9,59.4,333.9,56.2,333.9,56.2z
	 M333.3,73.2v11.4h-1.5v-9.5l0.5-0.9l-1.1-1.8l-1.1,1.8l0.5,0.9v9.5h-1.5V73.2l2.1-3.2L333.3,73.2z M330.6,57.4l-2.1-3.2l-2.1,3.2
	v-6.1c1.4-1.1,2.8-2.2,4.2-3.2V57.4z M328.5,56.2l2.1,3.2v9.3l-1.5,2.3v-8h1.1v-1.2h-1.1v-2.2H328v2.2h-1V63h1v8l-1.5-2.3v-9.3
	L328.5,56.2L328.5,56.2z M330.3,85.7v12.6l-3.6-9.9l-3.6,10V85.7H330.3z M326.8,91.8l3.6,9.9v0.3c-0.4-0.2-0.9-0.3-1.4-0.3
	c-0.9,0-1.7,0.4-2.2,1c-0.5-0.6-1.3-1-2.1-1c-0.5,0-1,0.2-1.5,0.5v-0.4L326.8,91.8z M330.3,103.5v15.4l-3-4.6v-10
	c0.1-0.8,0.8-1.5,1.7-1.4C329.5,102.9,330,103.1,330.3,103.5z M324.6,102.9c0.8,0,1.5,0.6,1.5,1.4v10l-3,4.6v-14.7
	C323.3,103.5,323.9,102.9,324.6,102.9z M326.8,115.5l3.6,5.5c-1,0-2,0.1-3,0.3v-2.2h-1.2v2.5c-1,0.2-2,0.6-3,1V121
	C323.2,121,326.8,115.5,326.8,115.5z M331.2,122.2c8,0,12.3,3.7,14.7,7.5c1.1,1.8,1.9,3.7,2.4,5.8c-0.5-0.3-1.1-0.5-1.7-0.5h-0.1
	c-0.8,0-1.7,0.3-2.3,0.9c-0.5-2.9-1.9-5.7-3.8-7.9c-2.2-2.6-5.2-4.5-8.3-4.7h-0.7c-0.4,0-0.9,0-1.3,0.1c-3,0.6-5.7,2.3-7.7,4.6
	c-2,2.2-3.4,4.9-3.9,7.8c-0.7-0.6-1.5-0.9-2.4-0.8c-0.6,0-1.1,0.1-1.6,0.4c0.5-2,1.3-3.9,2.4-5.6
	C318.9,125.8,323.2,122.2,331.2,122.2L331.2,122.2z M347.1,146.5v-10.4c0.3,0.1,0.6,0.2,0.9,0.5c0.4,0.3,0.6,0.7,0.6,1.1V172
	l-1.5,2.8V146.5L347.1,146.5z M344.1,123v2.6c-0.9-0.8-1.8-1.5-2.9-2.1l3.4-5.3l4,6v8.5c-0.5-1.3-1.1-2.5-1.8-3.7
	c-0.5-0.8-1-1.5-1.6-2.2V123L344.1,123L344.1,123z M345.2,117v-12.7c0.1-0.8,0.8-1.5,1.7-1.4c0.5,0,0.9,0.2,1.2,0.4
	c0.3,0.2,0.5,0.6,0.5,1v17.8L345.2,117L345.2,117z M348.6,102.3c-0.5-0.3-1.1-0.5-1.7-0.5c-0.9,0-1.7,0.4-2.2,1
	c-0.5-0.6-1.3-1-2.1-1c-0.5,0-1,0.1-1.4,0.4l3.8-10.3L348.6,102.3L348.6,102.3z M345.3,89.9V39.6c1.1-0.5,2.2-0.9,3.2-1.3V99
	L345.3,89.9L345.3,89.9z M344.2,90.2L341,99V41.7c1-0.5,2.1-1.1,3.2-1.5L344.2,90.2L344.2,90.2z M342.5,102.9c0.8,0,1.5,0.6,1.5,1.4
	V117l-3,4.7v-17.4C341.1,103.5,341.8,102.9,342.5,102.9z M335,182.7v1.3l-0.1,0.2v-5.8c0.1-1,0.1-2.2,0.2-3.4l0.2,0.2l0.2,0.2
	c0.1,0.2,0.2,0.4,0.2,0.6c-0.3,1.1-0.5,2.2-0.6,3.4C335,180.4,335,181.7,335,182.7L335,182.7z M331,182.3l-0.5-0.1l-0.4-0.1
	l-0.3-3.1l3.7,0.6c0,0.2,0,0.3-0.1,0.4v0.2l-2.7-0.5L331,182.3L331,182.3z M326.9,181.1c-1.3-0.4-2.6-0.8-3.9-1.3
	c-0.4-0.2-0.8-0.3-1.3-0.4c0-0.2-0.1-0.3-0.1-0.5c1.9,0.5,6,1.5,7.3,1.8l0.1,0.9C328.5,181.6,327.7,181.4,326.9,181.1z M327.4,182.5
	v4.6h-2v-5.2L327.4,182.5L327.4,182.5z M324.3,181.5v5.6h-2v-6.3l0.2,0.1C323,181.1,323.6,181.3,324.3,181.5L324.3,181.5z
	 M320.3,175.5c-0.3-0.1-0.7-0.2-1.1-0.3v-37.3c0-0.5,0.3-1,0.7-1.2c0.4-0.3,0.8-0.5,1.3-0.5V176L320.3,175.5L320.3,175.5z
	 M321.2,182.5v2.5l-0.4-1.1L321.2,182.5z M319.8,184l0.6,2.4c-0.6-0.2-1.2-0.5-1.6-1c-0.5-0.6-0.8-1.3-0.7-2.1v-0.1
	c0.1-0.8,0.2-1.7,0.4-2.5s0.4-1.5,0.4-1.5v-0.4c0,0-0.1-0.2-0.2-0.6c-0.1-0.4-0.2-0.7-0.2-1.1v-0.3c0.2-0.4,0.2-0.4,0.5-0.4
	s0.6,0.1,0.9,0.2l0.6,0.3c-0.1,0.4-0.2,0.8-0.2,1.3c0,0.6,0.1,1.3,0.3,1.9c-0.1,0.1-0.1,0.3-0.1,0.4c-0.2,0.6-0.8,3.4-0.8,3.4
	C319.7,183.8,319.7,183.9,319.8,184L319.8,184z M317.6,179c-0.4,1.3-0.6,2.7-0.7,4.1v0.1c-0.1,1.1,0.3,2.1,1.1,2.9
	c0.3,0.4,0.7,0.7,1.2,0.9h-2.6v-51c0.9,0.1,1.5,0.9,1.5,1.7v37.6c-0.3,0.2-0.5,0.4-0.6,0.7c-0.2,0.3-0.2,0.6-0.2,0.9
	C317.3,177.7,317.4,178.4,317.6,179L317.6,179z M319.4,135.5c0.6-2.6,1.8-4.9,3.6-6.9c0.9-1,1.9-1.9,3-2.6c-0.4,0.7-0.7,1.4-0.9,2.2
	c-0.6,2.5-0.9,5-0.8,7.5c-0.7-0.5-1.6-0.8-2.5-0.8S320.1,135.1,319.4,135.5L319.4,135.5z M345.3,147.6l-1,0.8l-1-0.8H345.3z
	 M344.2,146.5v-8.6c0-0.5,0.3-1,0.7-1.3c0.3-0.3,0.7-0.4,1.1-0.5v10.4L344.2,146.5L344.2,146.5z M343.7,148.8l-1.8,1.4l-1.8-1.4
	l1.5-1.2h0.5L343.7,148.8L343.7,148.8z M341.1,170.6v-8.9c0.4,0,0.8-0.1,1.1-0.1c0.3,0,0.6-0.1,0.9-0.2v23.4
	c-0.7-0.1-1.3-0.3-1.9-0.4h-0.1v-6.6c0.5-1.4,0.9-2.8,1.1-4.2C342.2,172.5,341.8,171.5,341.1,170.6z M342.5,160.4
	c-0.6,0.2-1.2,0.3-1.8,0.3l-1,0.1l-0.6-1.7c0-0.1,0.1-0.4,0.6-0.7c0.7-0.4,1.5-0.8,2.4-1h0.3c0.1,0,0.3,0,0.4,0.1l-0.1,0.1
	c-0.4,0.2-0.8,0.3-1.1,0.5c-0.2,0.1-0.3,0.1-0.5,0.2s-0.4,0.4-0.4,0.7v0.2c0.1,0.2,0.2,0.4,0.4,0.4c0.1,0.1,0.3,0.1,0.4,0.1
	c0.6-0.1,1.1-0.3,1.6-0.5c0.7-0.4,1.5-0.7,2.3-0.9v0.1c0,0.2-0.1,0.3-0.2,0.4c-0.4,0.3-0.9,0.6-1.3,0.9
	C343.2,160,342.7,160.3,342.5,160.4L342.5,160.4z M336.1,179.4c0-0.9,0.2-1.7,0.4-2.5l1,0.2l-1.2,6.6h-0.2v-1
	C336.2,181.7,336.1,180.3,336.1,179.4L336.1,179.4z M326.9,150.5l0.5-0.2c0.2-0.1,0.4-0.2,0.6-0.2c0.1,0.2,0.2,0.5,0.4,0.7
	c0.4,0.8,1.1,1.3,1.9,1.6c0.4,0.1,0.8,0.1,1.2,0.1c0.6,0,1.2-0.1,1.7-0.2c0.2,0.2,0.4,0.5,0.7,0.9c0.6,1.1,1,2.4,0.9,3.6l-2.1,0.9
	l-0.1-0.1c-0.8-0.8-1.7-2-3.7-4.4l-0.9,0.7l1.6,2l-3.5,2.6c-0.2-0.4-0.3-0.7-0.3-0.8c-0.2-0.4-0.3-0.9-0.4-1.3
	c-0.2-0.8-0.3-1.5-0.3-2.3c0-0.5,0.1-0.9,0.3-1.3C326.1,151.5,326.7,150.8,326.9,150.5L326.9,150.5z M325.4,150.5v-2.4
	c0.1,0.1,0.3,0.2,0.4,0.3c0.5,0.3,1.1,0.4,1.8,0.4h0.1v0.1l-1.5,0.6c-0.1,0-0.1,0.1-0.2,0.1C326,149.7,325.9,150,325.4,150.5
	L325.4,150.5z M330.7,149.9c0.5,0.1,1,0.2,1.6,0.1h0.7l-0.1,1.2h-0.2c-0.4,0.1-0.8,0.1-1.3,0.1c-0.3,0-0.6,0-0.9-0.1
	c-0.5-0.2-0.9-0.6-1.2-1.1c-0.1-0.2-0.3-0.5-0.4-0.7c0-0.1-0.1-0.2-0.1-0.2v-0.1C329.5,149.5,330.1,149.7,330.7,149.9z M329.6,148.3
	c0.3-0.2,0.5-0.4,0.8-0.6l0.2,0.7l0.1,0.4C330.4,148.6,330,148.5,329.6,148.3L329.6,148.3z M339.9,146.5h-2v-8.6
	c0-0.5,0.3-1,0.7-1.2c0.4-0.3,0.8-0.5,1.3-0.5V146.5z M340.7,147.6l-1.1,0.8l-1.1-0.8H340.7z M339.2,148.9l-1.3,1v-2L339.2,148.9z
	 M339.6,149.2l1.8,1.4l-1.8,1.4l-1.7-1.3v-0.1L339.6,149.2L339.6,149.2z M339.1,152.4l-1.2,0.9v-1.8L339.1,152.4L339.1,152.4z
	 M339.6,152.7l1.8,1.4l-1.9,1.5l-1.5-1.2V154L339.6,152.7z M338.6,157.7c-0.1-0.1-0.2-0.3-0.3-0.5l1.1-0.9l0.6,0.5
	c-0.4,0.2-0.8,0.3-1.1,0.6L338.6,157.7L338.6,157.7z M339.8,161.9v7.4l-2-2.2v-4.4L339.8,161.9z M339,155.9l-0.9,0.7
	c-0.1-0.4-0.2-0.8-0.2-1.2v-0.3L339,155.9z M338,159.6l-4.1,1.4l0.4-1.1l3.5-0.9L338,159.6z M336.2,148c-0.1-0.1-0.1-0.2-0.1-0.4
	v-0.5v-0.4v-0.1c0.1-0.2,0.3-0.4,0.5-0.6l0.1-0.1v12.3l-0.6,0.1L336,157v-0.1c0.1-1.5-0.3-3.1-1.1-4.4v-2.6h0.1c0.3,0,0.5,0,0.8-0.1
	c0.4-0.1,0.7-0.4,0.8-0.8v-0.3C336.5,148.5,336.4,148.3,336.2,148L336.2,148z M335.1,158.5l-1.1,0.3l-0.4-0.4l1.4-0.6L335.1,158.5z
	 M336.7,144.1l-0.2-0.4c-0.1-0.1-0.1-0.2-0.1-0.3v-0.1c0.1-0.3,0.2-0.6,0.2-0.9c0-0.3-0.1-0.5-0.2-0.8c-0.2-0.2-0.4-0.6-0.6-0.8
	c0.3-0.4,0.4-0.9,0.4-1.4c0-0.7-0.3-1.4-0.8-1.8c-0.2-0.1-0.3-0.2-0.5-0.3V136c0.5,0.1,0.9,0.3,1.3,0.5c0.4,0.3,0.7,0.7,0.7,1.2
	L336.7,144.1L336.7,144.1z M335.4,142.3c0,0.1-0.1,0.4-0.2,0.8v0.1c-0.5,0.1-0.8,0.5-0.8,1c0.3-0.1,0.7-0.2,1.1-0.1l0.4,0.8v0.1
	l-0.1,0.1l-0.1,0.1l-0.9,0.4c0.1,0.2,0.2,0.4,0.2,0.6c0,0.3-0.1,0.7-0.8,1.2l0.7,0.9l0.2-0.2c0,0.1,0.1,0.2,0.1,0.3s0.1,0.1,0.1,0.2
	h-0.9c-0.2,0-0.4,0-1.7,0.1h-0.4c-0.1-0.1-0.3-0.2-0.4-0.3c-0.2-0.4-0.3-0.8-0.5-1.2c0.5-0.3,1-0.6,1.4-1c1.4-1.3,1.7-3.4,2-4.5
	L335.4,142.3L335.4,142.3z M327.6,162c0.8,0.6,1.7,1.2,2.6,1.7h-1.9v-0.1L327.6,162L327.6,162z M326.7,159.5l3.7-2.8l0.5,0.6
	l-3.2,3.2L326.7,159.5z M329.5,162c-0.4-0.3-0.8-0.5-1-0.7l3.2-3.1l0.2,0.2l0.3,0.3L329.5,162z M333,159.5l0.2,0.2l-1.3,3.8
	l-1.2-0.7l-0.2-0.1L333,159.5z M325.5,159.8l0.6,1.5l1.1,2.8v0.6c0,0.3,0,0.5-0.1,0.8c-0.8,1.7-1.2,3.7-1.1,5.6
	c-0.1,0.7,0.2,1.3,0.6,1.8c0.2,0.2,0.4,0.3,0.6,0.4c0,0.2,0.1,0.4,0.1,0.8c0.3,1,0.6,2.1,1,3.1c-0.6-0.3-1.2-0.5-1.9-0.6h-0.9
	L325.5,159.8L325.5,159.8z M327.1,169.4c0.9-0.2,2.9-0.6,4.1-0.9c1-0.3,2.3-0.7,3.1-0.9c0,0.2,0.1,0.4,0.1,0.7
	c-0.8,0.2-2.5,0.8-3.6,1c-1,0.2-2.8,0.6-3.7,0.8C327,169.9,327,169.7,327.1,169.4L327.1,169.4z M330.8,167.4c-1,0.3-2.7,0.6-3.6,0.8
	c0.1-0.8,0.4-1.6,0.8-2.4c0.2-0.3,0.2-0.7,0.2-1h3.8l0.2,0.1l0.5,0.3c0.4,0.3,0.8,0.6,1.1,1c0,0.1,0.1,0.1,0.1,0.2
	C333.2,166.8,331.9,167.2,330.8,167.4L330.8,167.4z M333.2,163.4l0.3-1l5-1.7l0.2,0.5L333.2,163.4z M336.5,163.3l0.3-0.1v2.5
	c-0.2-0.2-0.3-0.4-0.3-0.7V163.3z M337.3,168.1l2.5,2.8l-0.8,0.6l-2.4-2.9L337.3,168.1L337.3,168.1z M338.1,172.2l-0.6,0.5l-2.2-2
	c0-0.1,0.1-0.1,0.1-0.2c0.1-0.4,0.2-0.8,0.1-1.2h0.1L338.1,172.2z M336.5,173.4l-0.9,0.7l-0.6-0.6V172L336.5,173.4z M338.7,177.4
	l1.1,0.3c-0.2,0.5-0.3,1-0.5,1.5c-0.6,1.8-1.3,3.5-1.5,4.2l-0.2,0.1L338.7,177.4z M339.9,181.1v2.8c-0.2-0.2-0.5-0.4-0.8-0.6
	C339.3,182.8,339.6,182,339.9,181.1z M336.7,175.8c0-0.3-0.1-0.5-0.3-0.8l4.1-3.2l0.3,0.6l-3.5,2.7l3.2,0.8l-0.2,0.7L336.7,175.8z
	 M339.9,174.6l1.1-0.9c0,0.4-0.1,0.7-0.2,1.1L339.9,174.6L339.9,174.6z M343.9,157.6C343.9,157.6,343.9,157.5,343.9,157.6
	c0-0.3-0.1-0.6-0.3-0.8l0.6-0.5l1.1,0.9C344.8,157.2,344.3,157.4,343.9,157.6L343.9,157.6z M343.1,156.4c-0.2-0.1-0.5-0.2-0.8-0.2
	c-0.2,0-0.4,0-0.6,0.1l-0.9,0.3L340,156l1.9-1.5l1.8,1.4L343.1,156.4z M341.9,153.8l-1.8-1.4l1.9-1.4l1.8,1.4L341.9,153.8z
	 M343,146.5h-2v-10.4c0.5,0.1,0.9,0.3,1.3,0.5c0.4,0.3,0.7,0.7,0.7,1.2V146.5z M340.5,134.9c-0.9,0-1.8,0.3-2.5,0.8
	c0.1-2.6-0.2-5.1-0.8-7.6c-0.2-0.8-0.5-1.5-0.9-2.2c1.2,0.8,2.2,1.7,3.1,2.7c1.7,2,2.9,4.3,3.5,6.9
	C342.1,135.1,341.3,134.9,340.5,134.9L340.5,134.9z M336.8,135.7c-0.7-0.5-1.6-0.8-2.5-0.8s-1.8,0.2-2.5,0.7v-11.2
	c2.5,0.2,3.6,1.7,4.3,4.1C336.6,130.8,336.9,133.3,336.8,135.7z M333.7,136.1v1.1c-0.4,0-0.7,0.1-1.1,0.2c-0.3-0.1-0.5-0.2-0.8-0.2
	c0.1-0.2,0.3-0.5,0.5-0.6C332.7,136.3,333.2,136.1,333.7,136.1z M332.3,138.5l0.2,0.1l0.2-0.1c0.3-0.1,0.6-0.2,0.9-0.2
	c0.4,0,0.8,0.1,1.1,0.4c0.2,0.1,0.3,0.3,0.3,0.5c-0.6-0.1-1.1-0.2-1.7-0.2h-0.5v1.1h0.5c0.5,0,1,0,1.5,0.2c-0.1,0.2-0.3,0.3-0.5,0.4
	l-0.1,0.1c-0.3-0.1-0.5-0.1-0.8-0.1h-0.6v1.1h1c-0.3,1.2-0.7,2.8-1.6,3.5c-0.9,0.8-1.5,1-1.8,1h-0.5l-0.2,0.3
	c-0.2,0.3-0.5,0.6-0.9,0.7c0-0.5,0.1-0.9,0.4-1.4l-1-0.5c-0.3,0.6-0.5,1.2-0.5,1.9v0.3h-0.4v-0.3c0-0.7,0.2-1.4,0.5-2l-0.9-0.7
	c-0.5,0.7-0.7,1.6-0.7,2.4c-0.2-0.3-0.4-0.7-0.4-1.1c0-0.6,0.2-1.2,0.6-1.7l0.2-0.2v-0.4c-0.1-1.4,0.3-2.9,1.1-4
	c0.8-1,2-1.5,3.3-1.6C331.4,138.2,331.9,138.3,332.3,138.5z M325.4,141.6v-3.7c0-0.5,0.3-1,0.7-1.2c0.4-0.3,0.8-0.5,1.3-0.5v2.1
	c-0.2,0.2-0.5,0.4-0.7,0.6C326.1,139.6,325.6,140.6,325.4,141.6L325.4,141.6z M328.6,137.6v-1.5c0.5,0,0.9,0.2,1.3,0.4
	c0.2,0.1,0.4,0.3,0.5,0.5C329.8,137.1,329.2,137.3,328.6,137.6z M330.6,135.6c-0.8-0.5-1.6-0.7-2.5-0.7s-1.8,0.3-2.5,0.8
	c-0.1-2.4,0.2-4.8,0.8-7.2c0.7-2.4,1.9-3.9,4.3-4.2L330.6,135.6L330.6,135.6z M324.3,156.6v19.8c-0.4,0.1-0.7,0.1-1.1,0.1
	c-0.2,0-0.5,0-0.7-0.1l-0.2-0.1v-40.2c0.5,0.1,0.9,0.3,1.3,0.5c0.4,0.3,0.7,0.7,0.7,1.2v14.4c-0.3,0.5-0.4,1.1-0.4,1.8
	C324,154.9,324.1,155.8,324.3,156.6L324.3,156.6z M321.6,177.3l0.5,0.2c0.3,0.1,0.7,0.2,1.1,0.2c0.8,0,1.6-0.2,2.4-0.2h0.6
	c0.7,0.1,1.4,0.3,2,0.7c0.2,0.1,0.4,0.2,0.6,0.4l0.1,1c-1.7-0.4-5.7-1.4-7.3-1.8C321.5,177.6,321.6,177.5,321.6,177.3L321.6,177.3z
	 M330.3,177.9l-0.6-0.1c-0.1-0.3-0.3-0.9-0.6-1.5c-0.3-0.9-0.6-1.8-0.8-2.7l-0.1-0.7l0.9-0.2L330.3,177.9z M330.3,172.5l1-0.2
	l0.3-0.1l0.6,6l-0.5-0.1L330.3,172.5L330.3,172.5z M328.6,182.8l0.5,0.1l0.3,0.1c0.3,0.1,0.7,0.2,1.1,0.4v3.7h-2L328.6,182.8z
	 M333.2,181.4c0,0.1-0.1,0.3-0.1,0.4c-0.1,0.3-0.3,0.5-0.5,0.6h-0.4l-0.1-1.3L333.2,181.4z M331.7,183.6h0.6c0.4,0,0.7-0.1,1-0.3
	c0.1-0.1,0.3-0.2,0.4-0.3v4h-2V183.6z M333.7,178.5l-0.4-0.1l-0.6-6.5c0.4-0.1,0.8-0.2,1.1-0.4l0.2-0.1c0,0.8,0,2-0.1,3.2
	S333.7,177.4,333.7,178.5L333.7,178.5z M333,170.6c-2,0.7-5.3,1.4-5.5,1.4c-0.1,0-0.2,0-0.2-0.1c-0.1-0.2-0.2-0.4-0.2-0.6
	c0.8-0.1,2.9-0.6,4-0.8c1-0.2,2.4-0.7,3.3-0.9c0,0.2,0,0.4-0.1,0.5C333.9,170.3,333.5,170.5,333,170.6L333,170.6z M333.9,164.4
	l1.4-0.6v0.6H333.9z M335.5,165.5c0.2,0.4,0.4,0.9,0.7,1.2l0.3,0.4l-1.1,0.8c0-0.8-0.2-1.5-0.5-2.2c-0.1-0.1-0.1-0.2-0.2-0.2H335.5
	L335.5,165.5z M335.8,184.8h0.5c0.7,0,1.4-0.2,2-0.6c0.1,0,0.2,0,0.2-0.1h0.1c0.2,0.1,0.4,0.2,0.5,0.4c0.5,0.4,1.1,0.6,1.7,0.8
	c1.6,0.4,3.1,0.7,4.7,0.9c-0.1,0.2-0.1,0.2-0.2,0.2c-0.3,0.1-0.7,0.2-1,0.1c-0.4,0-0.8,0-1.2-0.1c-1.2,0-2.4-0.1-3.6-0.3h-0.4
	c-1.3,0.1-2.5,0.2-3.8,0.4c-0.1,0-0.2,0-0.2-0.4V186C335.3,185.8,335.5,185.3,335.8,184.8L335.8,184.8z M344.2,185v-24.2l0.2-0.1
	c0.5-0.3,1.1-0.6,1.5-1v25.7C345.5,185.2,344.9,185.1,344.2,185z M345.7,156.7l-1.1-0.8l1.3-1v0.5
	C346,155.9,345.9,156.3,345.7,156.7L345.7,156.7z M344.2,155.5l-1.8-1.4l1.8-1.4l1.7,1.3v0.1L344.2,155.5L344.2,155.5z M344.7,152.3
	l1.3-1v1.9L344.7,152.3z M344.2,152l-1.8-1.4l1.8-1.4l1.7,1.3v0.1L344.2,152L344.2,152z M344.7,148.8l1.2-1v1.9L344.7,148.8z
	 M321.4,121.6l-3-4.6v-12.7c0-0.8,0.7-1.4,1.4-1.4c0.4,0,0.8,0.2,1.1,0.4c0.3,0.3,0.5,0.6,0.5,1V121.6z M321.4,99l-3.2-8.7V59
	c1-1.1,2.1-2.2,3.2-3.2C321.4,55.8,321.4,99,321.4,99z M321.4,102.2c-0.5-0.3-1-0.4-1.5-0.4c-0.8,0-1.6,0.4-2.1,1
	c-0.6-0.6-1.4-1-2.2-1c-0.6,0-1.2,0.2-1.7,0.5l3.8-10.4L321.4,102.2L321.4,102.2z M317.1,89.8l-3.4,9.3V64.2c1.1-1.4,2.2-2.7,3.4-4
	C317.1,60.2,317.1,89.8,317.1,89.8z M314.2,103.3c0.4-0.3,0.8-0.5,1.3-0.4c0.9-0.1,1.6,0.6,1.7,1.4V117l-3.5,5.4v-18.1
	C313.7,103.9,313.9,103.6,314.2,103.3z M317.9,118.2l3.5,5.3c-1,0.6-2,1.3-2.9,2.1v-2.7h-1.2v3.9c-0.6,0.7-1.2,1.4-1.7,2.2
	c-0.7,1.2-1.4,2.5-1.8,3.8v-8.3C313.8,124.5,317.9,118.2,317.9,118.2z M315.5,136.1v51h-1.7v-49.3
	C313.7,136.9,314.5,136.1,315.5,136.1z M347.8,187.6v-10.3l1.3-2.4v13.9L347.8,187.6z M378.8,217.2c-24.1,0-47.4-8.5-65.8-24h4.4
	l3.2,2.8h20.8l3-2.7h4.6c19.1,7.3,40.3,7.3,59.4,0h4.6l2.9,2.7h20.5l3.2-2.7h4.8C426.1,208.8,402.8,217.3,378.8,217.2L378.8,217.2z
	 M420.8,69.9l2.1,3.2v11.4h-1.5V75l0.5-0.9l-1.1-1.8l-1.1,1.8l0.5,0.8v9.5h-2V73.8C418.2,73.8,420.8,69.9,420.8,69.9z M418.2,71.8
	V42.6c0.7,0.4,1.4,0.8,2,1.2v25C420.2,68.8,418.2,71.8,418.2,71.8z M434.3,74.1v10.5h-2.2v-9.5l0.5-0.9l-1.1-1.8l-1.1,1.8l0.5,0.9
	v9.5h-1.5V73.2l2.1-3.2L434.3,74.1L434.3,74.1z M432.1,68.7V52.2c0.8,0.6,1.5,1.3,2.2,1.9V72L432.1,68.7L432.1,68.7z M430.1,119.1
	v2.2c-1-0.2-2-0.3-3.1-0.3l3.6-5.5l3.7,5.6v1.5c-1-0.4-2-0.8-3-1v-2.5C431.3,119.1,430.1,119.1,430.1,119.1z M427,118.9v-15.4
	c0.3-0.4,0.8-0.6,1.4-0.6c0.8-0.1,1.6,0.6,1.7,1.4v10L427,118.9z M431.2,114.3v-10c0-0.8,0.7-1.4,1.5-1.4c0.4,0,0.8,0.2,1.2,0.4
	c0.2,0.2,0.4,0.5,0.5,0.8V119L431.2,114.3L431.2,114.3z M432.7,101.8c-0.8,0-1.5,0.4-2,1c-0.6-0.6-1.4-1-2.2-1
	c-0.5,0-0.9,0.1-1.4,0.3v-0.2l3.6-10l3.6,10.1v0.4C433.9,102,433.3,101.8,432.7,101.8z M430.7,88.5l-3.6,10V85.7h7.2v12.8
	L430.7,88.5L430.7,88.5z M431,57.4l-2.1-3.2l-2.1,3.2V48c1.4,1,2.8,2.1,4.2,3.2V57.4L431,57.4z M428.9,56.2l2.1,3.2v9.3l-1.5,2.3v-8
	h1v-1.2h-1v-2.2h-1.1v2.2h-1V63h1v8l-1.5-2.3v-9.3L428.9,56.2L428.9,56.2z M428.3,73.2v11.4h-1.5v-9.5l0.5-0.9l-1.1-1.8l-1.1,1.8
	l0.5,0.9v9.5H424V73.2l2.1-3.2L428.3,73.2L428.3,73.2z M425.6,57.4l-2.1-3.2l-2.1,3.2v-13l4.2,2.7V57.4z M423.5,56.2l2.1,3.2v9.3
	l-1.5,2.3v-8h1.1v-1.2h-1.1v-2.2h-1.2v2.2h-1V63h1v8l-1.5-2.3v-9.3L423.5,56.2L423.5,56.2z M425.3,85.7v12.6l-3.5-9.7l-3.6,9.9V85.7
	L425.3,85.7L425.3,85.7z M421.8,91.9l3.5,9.7v0.4c-0.4-0.2-0.9-0.3-1.4-0.3c-0.8,0-1.7,0.4-2.2,1c-0.5-0.6-1.2-1-2-1
	c-0.5,0-1.1,0.2-1.5,0.5v-0.4C418.2,101.8,421.8,91.9,421.8,91.9z M425.3,103.5v15.4l-3-4.6v-10c0.1-0.8,0.8-1.5,1.7-1.4
	C424.5,102.9,425,103.1,425.3,103.5z M418.2,104.3c0-0.8,0.7-1.4,1.5-1.4s1.4,0.6,1.4,1.4v10l-2.9,4.5V104.3z M421.7,115.5l3.6,5.5
	c-1,0-2,0.1-3,0.3v-2.2h-1.1v2.4c-1,0.2-2,0.5-3,0.9v-1.7L421.7,115.5L421.7,115.5z M426.3,122.2c7.9,0,12.2,3.7,14.6,7.5
	c1.1,1.7,1.8,3.6,2.3,5.6c-0.5-0.2-1-0.3-1.6-0.3c-0.9,0-1.7,0.3-2.4,0.8c-0.6-2.9-1.9-5.6-3.9-7.8c-1.8-2.1-4.2-3.7-6.8-4.4
	c-0.7-0.2-1.5-0.3-2.2-0.3h-0.7c-3.1,0.2-6.1,2.1-8.3,4.7c-2,2.2-3.3,4.9-3.8,7.8c-0.6-0.6-1.5-0.9-2.3-0.9c-0.6,0-1.3,0.2-1.8,0.5
	c0.5-2,1.3-4,2.4-5.8C414,125.8,418.2,122.2,426.3,122.2L426.3,122.2z M432.8,193.9v-1.2h1.1v-1.1h1.2v1.1h1.1v1.2h-1.1v1.1H434
	v-1.1H432.8L432.8,193.9z M408.9,190.6l2-1.8h32.8v1.8H408.9z M427.2,193.9v-1.2h1.1v-1.1h1.2v1.1h1.1v1.2h-1.1v1.1h-1.2v-1.1H427.2
	z M421.7,193.9v-1.2h1.2v-1.1h1.2v1.1h1.1v1.2H424v1.1h-1.2v-1.1H421.7L421.7,193.9z M416.1,193.9v-1.2h1.1v-1.1h1.2v1.1h1.1v1.2
	h-1.1v1.1h-1.2v-1.1H416.1z M419.4,140.9v7.8c0.1,1.3-0.5,2.5-1.6,3.1l-0.1-0.1c-0.8-0.4-1.7-0.8-2.6-1.1c-0.2-0.1-0.5-0.1-0.7-0.1
	c-0.7,0-1.3,0.5-1.4,1.2h-0.1l-0.3-0.1c-0.8-0.7-1.3-1.8-1.2-2.9v-7.8L419.4,140.9L419.4,140.9z M411.4,139.7v-3.6
	c0.9,0.1,1.7,0.9,1.8,1.8v1.8H411.4z M440.4,179.4c-0.2-0.2-0.4-0.4-0.6-0.4l-0.4-0.2v-40.9c0-0.9,0.8-1.7,1.7-1.8v51h-1.7v-3.3
	l0.8-1.6c0.3-0.6,0.5-1.2,0.6-1.9C440.7,180,440.6,179.7,440.4,179.4z M439.5,180.1c0.1,0.1,0.1,0.2,0.1,0.3c0,0.5-0.2,1-0.4,1.4
	l-2.5,4.8H432c0-0.1,0.1-0.1,0.1-0.2c0.3-0.3,0.7-0.5,1.1-0.6c0.5-0.2,1-0.3,1-0.3l0.2-0.1l1.8-3.5c0.2-0.1,0.6-0.5,1.2-0.9
	c0.5-0.4,1.2-0.7,1.8-0.9C439.5,180,439.5,180,439.5,180.1L439.5,180.1z M438.2,186.1v1.1h-0.6L438.2,186.1z M431,187.1h-1v-6.6
	l2,0.5v4c-0.3,0.2-0.6,0.4-0.8,0.6c-0.2,0.3-0.3,0.6-0.3,0.9C430.9,186.7,430.9,186.9,431,187.1L431,187.1z M428.5,179l0.4-1.1
	l7.2,2.6l-0.4,0.3L428.5,179z M423.9,176v-0.6l4.4,0.4l-1,2.8l-0.7-0.2h-0.2l0.7-2.1L423.9,176L423.9,176z M424.3,185.8v-0.4
	c0-0.5-0.1-1.1-0.2-1.6c-0.1-0.6-0.2-1.2-0.2-1.8v-1.2c0-0.8,0-1.5-0.1-2.1l0.3,0.2c0.5,0.3,1,0.5,1.6,0.6v7.7H424
	C424.1,186.8,424.2,186.3,424.3,185.8L424.3,185.8z M413,187.1h-1.6V154c0.3,0.2,0.6,0.4,1,0.6l0.8,0.5V185c-0.3,0-0.6,0.1-0.6,0.4
	v0.3C412.5,186.3,412.7,186.7,413,187.1L413,187.1z M413,153.6c-0.5-0.3-0.9-0.6-1.4-0.9c-0.1-0.1-0.2-0.2-0.2-0.4v-0.1
	c0.3,0.1,0.6,0.2,0.9,0.4c0.5,0.2,1,0.5,1.4,0.7c0.5,0.3,1,0.4,1.5,0.5c0.2,0,0.3,0,0.4-0.1c0.2-0.1,0.3-0.3,0.4-0.5v-0.1
	c0-0.3-0.2-0.5-0.4-0.7c-0.5-0.3-1-0.4-1.6-0.6c0,0,0-0.1,0.3-0.1c0.1,0,0.2,0,0.3,0.1c0.8,0.3,1.6,0.6,2.4,1
	c0.3,0.1,0.5,0.4,0.6,0.7l-0.5,1.2l-1.2-0.1l-1.2-0.1h-0.4C414,154.3,413.6,154,413,153.6L413,153.6z M423.8,154.8l-0.3,0.7
	l-4.9-1.7l0.1-0.3L423.8,154.8L423.8,154.8z M418.9,152.4l0.6-0.6v0.7L418.9,152.4L418.9,152.4z M419.5,139.7h-2v-3.6
	c0.5,0.1,0.9,0.3,1.3,0.5c0.4,0.3,0.7,0.7,0.7,1.2V139.7L419.5,139.7z M422.6,145.9v7.4l-2-0.5v-14.9c0-0.5,0.3-1,0.7-1.2
	c0.4-0.3,0.8-0.5,1.3-0.5v5.6c-0.2,0.1-0.4,0.3-0.6,0.4c-0.4,0.4-0.6,1-0.5,1.5C421.5,144.6,421.9,145.4,422.6,145.9z M424.5,141.1
	v0.1h-0.1c-0.2,0-0.4,0-0.6,0.1h-0.1v-0.7C424,140.8,424.2,140.9,424.5,141.1L424.5,141.1z M423.7,139.4V136
	c0.7,0.1,1.3,0.4,1.8,0.8l-0.2,0.1c-0.2,0.2-0.4,0.3-0.6,0.6C424.3,138.3,424.1,138.9,423.7,139.4L423.7,139.4z M424.1,142.4h0.3
	c0.3,0,0.6,0.1,0.9,0.4c0.4,0.4,0.9,0.6,1.4,0.7h0.2c0.7,0,1.3-0.3,1.7-0.8c0.2,0.2,0.5,0.4,0.8,0.5c-1.2,2.3-2.5,2.6-3.7,2.6h-0.3
	c0.1-0.2,0.3-0.4,0.5-0.5l-0.8-0.8c-0.3,0.4-0.7,0.8-0.9,1.2c-0.2-0.1-0.4-0.1-0.6-0.2l0.1-0.2c0.3-0.4,0.6-0.7,0.9-1.1l-0.8-0.8
	c-0.4,0.4-0.7,0.8-1,1.2c-0.1-0.2-0.2-0.4-0.2-0.7s0.1-0.6,0.3-0.8C423.2,142.7,423.6,142.5,424.1,142.4L424.1,142.4z M433,138.3
	c0.3,0.3,0.6,0.6,0.8,1c0.3,0.5,0.4,1.1,0.4,1.8v0.5c-0.2-0.4-0.4-0.7-0.5-1.1l-1.1,0.3c0.2,0.7,0.5,1.3,0.9,1.8
	c-0.1,0.1-0.2,0.1-0.3,0.2c-0.4-0.5-0.8-1.1-1-1.8l-1.1,0.3c0.2,0.6,0.4,1.1,0.7,1.6c-0.2-0.1-0.4-0.1-0.6-0.2
	c-0.1-0.1-0.2-0.2-0.3-0.2l-0.1-0.1l-0.2-0.2H430c-0.4,0-0.8-0.2-1-0.9v-0.2c0-0.4,0.4-0.9,0.8-1.7l0.2-0.5l-0.5-0.2
	c-0.6-0.2-1.1-0.5-1.6-0.8s-0.8-0.8-0.9-1.4v-0.1c0.1-0.2,0.2-0.4,0.4-0.5c0.3-0.3,0.7-0.5,1.2-0.6s1-0.2,1.5-0.2
	c0.8-0.1,1.6,0.2,2.1,0.7c0.3,0.2,0.4,0.6,0.4,0.9c0,0.3-0.1,0.6-0.2,0.9l-0.1,0.4L433,138.3L433,138.3z M434,136.5
	c0.3-0.2,0.7-0.4,1.1-0.4v3.4c-0.1-0.3-0.2-0.5-0.3-0.8c-0.2-0.5-0.5-0.9-0.9-1.2c0.1-0.2,0.1-0.5,0.1-0.8
	C434,136.7,433.9,136.6,434,136.5L434,136.5z M422.8,180.8v1.2c0,0.7,0.1,1.4,0.2,2.1v0.3l-0.4-0.2l-2.8-11.1l1.1-0.4l0.9,2.4
	C422.5,176.8,422.8,178.8,422.8,180.8L422.8,180.8z M421.9,172.1l0.6-0.3v1.9L421.9,172.1L421.9,172.1z M417.4,173.9l1.3-0.5
	l2.6,9.9l-0.5-0.3L417.4,173.9L417.4,173.9z M419.6,183.2c-0.7,0.5-1.4,0.9-2.1,1.3v-7L419.6,183.2z M416.2,173.9l0.2,0.4v10.6
	c-0.5,0.1-1.1,0.2-1.7,0.2h-0.3v-29.6c0.4,0,1,0.1,1.6,0.1h0.4v12.6c-0.9,0.8-1.4,1.8-1.4,3C414.9,172.3,415.4,173.2,416.2,173.9
	L416.2,173.9z M416,171.4C416,171.4,416,171.3,416,171.4c0-0.6,0.1-1,0.4-1.4l1,0.8L416,171.4L416,171.4z M419.7,171.1l-2.6-2
	l0.6-0.6c0.5,0.4,1.6,1.4,2.2,1.9c0.3,0.3,0.5,0.6,0.7,0.9h-0.1l-3.7,1.4c-0.1-0.1-0.2-0.3-0.3-0.4L419.7,171.1L419.7,171.1z
	 M420.7,166c1-0.8,2-1.5,3.2-2.1l0.6-0.3l-0.1,0.9l-5.3,3.7l-0.5-0.4L420.7,166L420.7,166z M420.6,164.6v-7.1l2,0.8v5
	C421.9,163.8,421.2,164.2,420.6,164.6z M431.7,145l0.4,0.7l0.1,0.1l-4.4,1.4c0-0.1-0.1-0.3-0.1-0.4L431.7,145z M430,144.5l0.6-0.9
	c0.1,0.1,0.3,0.1,0.4,0.2l0.1,0.3L430,144.5z M430.4,156.3l1.2-0.8l0.2,0.2l0.4-0.3c0,0,0.3-0.2,0.6-0.6c-0.2,0.5-0.4,1-0.5,1.4
	L430.4,156.3L430.4,156.3z M431.9,157.3c-0.1,0.4-0.2,0.6-0.2,0.8l-4.2,0.4l0.1-0.1l0.9-0.6L431.9,157.3L431.9,157.3z M427.2,157.1
	l-0.6-0.9l2.8-2.5l1.2,0.9L427.2,157.1z M432,159.1l0.3,0.6l0.3,0.6l-6.7,0.6l0.2-1.2L432,159.1L432,159.1z M433.1,161.4v0.6
	l-7.4,0.7l0.1-0.6L433.1,161.4z M433.3,163.2l0.1,0.6l-0.8,0.1l-7,0.7l0.1-0.6L433.3,163.2L433.3,163.2z M433.1,167.5
	c0.4-1.2,0.6-2.1,0.7-2.6h0.9l-0.1-0.6c0,0-0.2-1.6-0.3-2.9c-0.2-1.2-0.7-2.2-1.4-3.2c0-0.1,0.1-0.3,0.2-0.6
	c0.2-0.6,0.5-1.7,1.1-3.2c0.4-1,0.6-2.1,0.8-3.2c0.1-0.6,0.1-1.1,0.2-1.6v27.3c-0.3-0.2-0.7-0.4-1.1-0.6l-0.9-0.4v-8.4H433.1z
	 M434.6,146.8c-0.5-0.6-1-1.3-1.6-1.8l-0.5-1c0.6,0,1.1-0.2,1.6-0.5c0.4-0.3,0.8-0.7,1-1.2v5.4C435,147.3,434.8,147,434.6,146.8z
	 M433.1,146.7c0.2,0.2,0.4,0.5,0.6,0.7c0.1,0.1,0.2,0.3,0.2,0.4v0.8c0,0.8-0.1,1.6-0.2,2.4c-0.3,0.9-0.7,1.7-1.3,2.4
	c-0.3,0.3-0.5,0.6-0.7,0.8l-3.9-3.1l1.6-3.2L433.1,146.7L433.1,146.7z M427.9,148.3l-1.5,3l0.2,0.2l-0.4,0.4
	c-0.1-0.3-0.1-0.6-0.2-0.8c0-0.2-0.1-0.4-0.1-0.6c0-0.3,0.1-0.6,0.3-0.9c0.2-0.3,0.6-0.6,1-1.1L427.9,148.3L427.9,148.3z
	 M427.5,152.2l1,0.8l-2.7,2.3l-0.6-0.8L427.5,152.2L427.5,152.2z M425.7,148.6l-0.3,0.3c-0.4,0.5-0.5,1-0.5,1.6c0,0.3,0,0.6,0.1,0.8
	c0.1,0.5,0.3,1.1,0.4,1.5l-1,1l-0.7-0.2v-7.1c0.2,0.1,0.4,0.1,0.6,0.1c0.4,0.1,0.9,0.1,1.4,0.1V148.6L425.7,148.6z M424.7,155.6
	l1.7,2.3c-0.2,0.3-0.5,0.5-0.8,0.6h-0.2c-0.4,0-0.8-0.2-1.2-0.4l-0.2-0.2L424.7,155.6L424.7,155.6z M425,159.7l-0.3,2.5
	c-0.2,0.1-0.5,0.2-0.9,0.4v-3.4C424.1,159.5,424.5,159.7,425,159.7L425,159.7z M420.5,169.4l-0.5-0.5l4.6-3.2h0.1l-0.2,1.2
	L420.5,169.4z M424.6,172.4l0.5-2.7l0.7-4.2l1.4-0.1l-2.1,8.9l-0.9-0.1L424.6,172.4L424.6,172.4z M428.4,165.3l1.6-0.1l-3,9.3
	l-0.7-0.1L428.4,165.3L428.4,165.3z M431.3,165l1.3-0.1c0,0.1-0.1,0.3-0.1,0.4c-0.2,0.8-0.5,2-1.1,3.5c-0.5,1.4-1.1,2.8-1.8,4.2
	c-0.3,0.7-0.6,1.2-0.8,1.6l-0.7-0.1L431.3,165L431.3,165z M431.9,170.7v4.6c-0.5-0.2-1.1-0.3-1.6-0.4h-0.2
	C430.5,174,431.2,172.5,431.9,170.7L431.9,170.7z M429.6,176l0.6,0.1c1.1,0.2,2.2,0.6,3.3,1.2c1,0.5,1.8,1.1,2.3,1.3s1.2,0.5,2,0.8
	l-0.5,0.3l-8-2.9L429.6,176L429.6,176z M423.1,156.7l-0.2,0.6l-4.9-2l0.1-0.4L423.1,156.7L423.1,156.7z M419.4,157.1v8.5
	c-0.8,0.6-1.4,1.1-2,1.6v-11L419.4,157.1z M414.6,186.3c1,0,2.1-0.2,3-0.6c0.9-0.4,1.8-1,2.7-1.6l2.8,1.6v0.1c0,0.2-0.1,0.4-0.2,0.6
	c-0.2,0-0.7-0.1-1.6-0.1h-0.7c-1.9,0.1-2.7,0.5-3.9,0.5h-0.3c-1.6-0.1-2.2-0.2-2.5-0.5l-0.1-0.1C414,186.3,414.3,186.3,414.6,186.3
	L414.6,186.3z M423,170.3c-0.4,0.2-0.9,0.5-1.3,0.6h-0.1c-0.1-0.2-0.2-0.5-0.4-0.7l2.9-1.8l-0.2,1
	C423.7,169.8,423.4,170.1,423,170.3z M424.1,177.2l1.5,0.2l-0.3,0.8c-0.2-0.1-0.5-0.2-0.7-0.3C424.4,177.7,424.2,177.5,424.1,177.2z
	 M428.8,180.2v6.9h-2v-7.4L428.8,180.2z M435,181.7l-1.3,2.5c-0.2,0-0.4,0.1-0.7,0.2v-3.2L435,181.7z M438.1,178.3
	c-0.8-0.3-1.6-0.6-2-0.8v-41.4c0.5,0.1,0.9,0.3,1.3,0.5c0.4,0.3,0.7,0.7,0.7,1.2V178.3z M435.6,134.9c-0.7,0-1.5,0.2-2.1,0.5
	c-0.1-0.1-0.2-0.3-0.3-0.4l-0.1-0.1c0.1-2.7-0.2-5.3-1-7.8c-0.1-0.3-0.2-0.5-0.3-0.8c1,0.7,1.8,1.5,2.6,2.3c1.8,2,3,4.3,3.6,6.9
	C437.2,135.1,436.4,134.9,435.6,134.9L435.6,134.9z M431.9,134.2c-0.5-0.2-1.1-0.3-1.7-0.3s-1.2,0.1-1.8,0.2
	c-0.6,0.1-1.1,0.4-1.6,0.8v-10.6c0.3,0,0.6,0.1,0.9,0.1l0.2,0.1c1.4,0.4,2.5,1.5,3,2.9C431.7,129.6,432,131.9,431.9,134.2z
	 M427.3,138.7l1.2,0.6c-0.3,0.5-0.5,1-0.6,1.6c0,0.2,0,0.3,0.1,0.5v0.1c-0.2,0.3-0.7,0.7-1.1,0.7c-0.3-0.1-0.6-0.2-0.9-0.5
	c-0.1-0.1-0.3-0.2-0.4-0.3c0-0.2,0.1-0.5,0.1-0.7s-0.1-0.5-0.3-0.6l-0.6-0.3c0.3-0.5,0.5-0.9,0.7-1.3v0.9c0,0,0.2,0.2,0.7,0.2
	c0.3,0,0.5,0,0.8-0.1c-0.1-0.2-0.2-0.4-0.3-0.5c-0.3-0.3-0.7-0.4-1.1-0.5c0.1-0.1,0.1-0.2,0.2-0.3l0.3-0.3l0.3-0.3
	C426.6,138.1,427,138.5,427.3,138.7L427.3,138.7z M423.1,134.9c-0.9,0-1.8,0.3-2.5,0.8c-0.1-2.4,0.2-4.9,0.8-7.3
	c0.7-2.4,1.9-3.9,4.3-4.1v11.3C424.9,135.1,424,134.9,423.1,134.9L423.1,134.9z M420.2,128.1c-0.6,2.5-0.9,5.1-0.8,7.6
	c-0.7-0.5-1.6-0.8-2.5-0.8c-0.8,0-1.6,0.2-2.3,0.7c0.6-2.6,1.8-4.9,3.5-6.9c0.9-1.1,1.9-2,3.1-2.7
	C420.8,126.6,420.4,127.3,420.2,128.1L420.2,128.1z M415,136.6c0.4-0.3,0.8-0.5,1.3-0.5v3.6h-2v-1.8
	C414.3,137.4,414.6,136.9,415,136.6z M442.1,187.1v-51c0.4,0.1,0.7,0.2,1,0.5c0.2,0.2,0.4,0.6,0.5,0.9v49.6L442.1,187.1L442.1,187.1
	z M441.8,129.1c-0.5-0.8-1-1.5-1.6-2.2v-4H439v2.8c-0.9-0.8-1.9-1.6-2.9-2.2l3.5-5.3l4.1,6.3v8.4
	C443.2,131.5,442.6,130.3,441.8,129.1L441.8,129.1z M440.2,117v-12.7c0.1-0.8,0.8-1.5,1.7-1.4c0.5,0,0.9,0.2,1.3,0.4
	c0.3,0.2,0.5,0.5,0.5,0.9v18.1L440.2,117z M443.6,102.3c-0.5-0.3-1.1-0.5-1.8-0.5c-0.9,0-1.7,0.4-2.2,1c-0.5-0.6-1.2-1-2-1
	c-0.5,0-1,0.1-1.5,0.4l3.7-10.4L443.6,102.3z M440.5,90.2V60.3c1.1,1.3,2.2,2.5,3.2,3.9v34.9L440.5,90.2L440.5,90.2z M439.3,90
	l-3.2,8.9V55.7c1.1,1.1,2.2,2.2,3.2,3.3V90L439.3,90z M437.6,103c0.8,0,1.4,0.6,1.5,1.4V117l-2.9,4.5v-17.3
	C436.2,103.4,436.8,102.9,437.6,103L437.6,103z M413.3,104.4c0-0.8,0.7-1.4,1.4-1.4c0.4,0,0.8,0.2,1.2,0.4c0.3,0.2,0.5,0.6,0.5,1
	v17.5l-3.1-4.8V104.4z M416.4,99.2l-3.2-9v-50c1.1,0.5,2.2,1,3.2,1.6V99.2z M416.4,102.3c-0.5-0.3-1-0.5-1.6-0.5c-0.8,0-1.5,0.4-2,1
	c-0.6-0.6-1.4-1-2.2-1c-0.6,0-1.2,0.2-1.7,0.5l3.8-10.4L416.4,102.3L416.4,102.3z M412.1,90.1l-3.2,9V38.2c1.1,0.4,2.2,0.9,3.2,1.3
	V90.1L412.1,90.1z M409.3,103.4c0.4-0.3,0.8-0.4,1.2-0.4c0.8-0.1,1.6,0.6,1.7,1.4V117l-3.4,5.2v-17.9
	C408.8,103.9,409,103.6,409.3,103.4L409.3,103.4z M412.8,118.3l3.4,5.3c-1,0.6-2,1.3-2.8,2.1V123h-1.1v3.8c-0.6,0.7-1.1,1.4-1.6,2.2
	c-0.7,1.2-1.3,2.4-1.8,3.7v-8.5L412.8,118.3L412.8,118.3z M408.8,138c0-0.5,0.2-1,0.6-1.3c0.2-0.2,0.5-0.4,0.9-0.4v38.6l-1.5-2.7
	V138L408.8,138z M409.6,177.4v10.3l-1.3,1.2V175L409.6,177.4z M451,187.4c-1.5,1.5-3.1,3-4.7,4.4v-27.4c21.5-29.4,21.5-69.3,0-98.7
	v-3.8l-1.3-2.2l-1.3,2.2v0.4c-2.4-2.9-4.9-5.6-7.6-8.2v-1.9l-1.8-2.4v2.8c-4.9-4.4-10.3-8.1-16.1-11.2v-1.5l-1.8-2.6v3.1
	c-2.5-1.3-5-2.4-7.6-3.4v-4l-1.3-2.2l-1.3,2.2v3c-3.8-1.3-7.7-2.4-11.7-3.1v-14l-0.9-1.1l-0.9,1.1v13.7c-0.9-0.2-1.8-0.3-2.7-0.4
	V13.4c56.1,6.2,96.6,56.8,90.3,112.9C477.8,149.4,467.4,170.9,451,187.4L451,187.4z M450.9,107.3v-1h-1.1v1h-1v1.2h1v2.2l-3.4,5.3
	V96.1l7.9,11.3v8.3l-3.4-5.1v-2.2h1v-1.2L450.9,107.3L450.9,107.3z M450.3,111.8l3.9,6v2.8c-0.5-0.3-1.1-0.5-1.7-0.5
	c-0.8,0-1.6,0.4-2.2,1c-0.6-0.6-1.4-1-2.2-1c-0.6,0-1.3,0.2-1.8,0.5V118L450.3,111.8L450.3,111.8z M453.1,132.3c0-1.1-0.6-2-1.6-2.5
	h2.7v5h-2.6C452.5,134.3,453.1,133.3,453.1,132.3z M450.3,134.5c-1.2,0-2.2-1-2.2-2.2s1-2.2,2.2-2.2s2.2,1,2.2,2.2
	S451.5,134.5,450.3,134.5z M450.9,128v-5.3c0.1-0.8,0.8-1.5,1.6-1.4c0.5,0,0.9,0.2,1.2,0.4c0.3,0.2,0.5,0.5,0.5,0.9v5.4H450.9
	L450.9,128z M446.8,121.7c0.4-0.3,0.8-0.5,1.3-0.4c0.8-0.1,1.6,0.6,1.6,1.4v5.3h-3.4v-5.4C446.3,122.2,446.5,121.9,446.8,121.7z
	 M449.1,129.8c-1.4,0.7-1.9,2.4-1.3,3.7c0.3,0.5,0.7,1,1.3,1.3h-2.8v-5H449.1z M456,136.5V91.9l-0.9-1.4l-0.9,1.4v13.6l-7.9-11.3
	V67.7c19.9,28.4,19.9,66.3,0,94.7v-25.9L456,136.5L456,136.5z M451.4,117l-1.1-1.8l-1.1,1.8l1.1,1.8L451.4,117z M414.6,28.2l1.1,0.5
	l0.5-1l1,0.5l0.5-1.1l-1-0.5l0.5-1l-1.1-0.6l-0.5,1l-1-0.5l-0.5,1.1l1,0.5L414.6,28.2z M414.4,31.2l-1.1-0.5l-0.5,1l-1-0.5l-0.5,1.1
	l1,0.5l-0.5,1l1.1,0.5l0.5-1l1,0.5l0.5-1.1l-1-0.5L414.4,31.2z M457.8,59.8l0.1-1.8l-1.8-0.2v0.7l-5.8,4.5l-0.3-0.1l-0.1-1.5l5.2-4
	c0.4-0.3,0.7-0.1,0.7-0.1l0.1-0.1v-2.1l-1.9-0.2h-0.1c0.2,0.3,0.3,0.6,0.2,1l-5.4,4.2c-0.2,0.1-0.4,0.2-0.6,0.1l-0.1,0.1l0.3,2.6
	c1.2,0.4,2.4,0.8,3.6,1.3l5.2-4C457.3,59.8,457.6,59.7,457.8,59.8L457.8,59.8z M428.2,38.7l-1-0.7l-0.6,1l-1-0.6l-0.6,1l1,0.6
	l-0.6,1l1,0.7l0.6-1l0.9,0.6l0.6-1l-0.9-0.6L428.2,38.7z M390.9,74.1l1.1,1.8l1.1-1.8l-1.1-1.8L390.9,74.1z M425.2,35.1l-1.9-2.1
	l3.8-1.4l-0.2-0.4l-0.6,0.3c-0.6-0.7-1.1-1.6-1.5-2.4c-1.5-0.1-2.9-0.3-4.3-0.7l-1.3,2.5c-0.1,0.2-0.4,0.3-0.6,0.3v0.1l2,2.3
	l-4.9,1.9l0.2,0.3l0.9-0.3c0.7,0.7,1.4,1.5,2,2.3c1.5,0,3,0.1,4.4,0.4l1.5-2.8C424.8,35.2,425,35.1,425.2,35.1z M420.9,37.5h-0.3
	c-0.6-0.9-1.3-1.8-2.1-2.5l3.2-1.3l0.8,0.8L420.9,37.5z M422.1,33l-0.8-1l1.4-2.7h0.2c0.5,1,1.1,1.9,1.8,2.7L422.1,33z M448,48.4
	l-0.4-2.4l-1.9-0.1l-0.3-2c-0.6,0.1-1.3,0.1-1.9,0l-0.1,0.1c0.3,0.3,0.6,0.8,0.5,0.9l-4.8,5c-0.2,0.2-0.4,0.3-0.6,0.2l-0.1,0.1
	l0.2,1.8h1.8l-0.1-0.7l4.8-5l0.8,0.1l0.2,1.1l-4.6,4.8c-0.4,0.4-0.6,0.2-0.6,0.2l-0.1,0.1l0.4,2.1h1.9l0.1-0.1
	c-0.2-0.3-0.4-0.6-0.4-0.9l4.7-4.9C447.6,48.5,447.8,48.4,448,48.4L448,48.4z M451.3,52.9c0.1-0.1,0.4-0.2,0.5-0.2l0.1-0.1l-0.1-2.1
	c-0.6,0-1.3,0-1.9-0.1h-0.1c0,0,0.7,0.7,0.3,1.1l-5,4.5c-0.4,0.4-0.7,0.2-0.7,0.2l-0.1,0.1l0.2,2.1l1.9,0.1h0.1
	c-0.2-0.3-0.3-0.6-0.3-0.9C446.2,57.6,451.3,52.9,451.3,52.9z M436.6,47.6c0,0,4.1-5.2,4.3-5.5c0.1-0.2,0.4-0.3,0.6-0.2v-0.1
	l-0.4-1.8l-1.8,0.2l0.2,0.7l-4.3,5.5h-0.9l-0.4-1l4.1-5.3c0.3-0.4,0.6-0.3,0.6-0.3l0.1-0.1l-0.6-2l-1.9,0.2V38
	c0.2,0.2,0.4,0.5,0.5,0.9l-4.2,5.4c-0.1,0.2-0.3,0.3-0.5,0.2l-0.1,0.1l0.7,2.3l1.9-0.1l0.5,1.9c0.6-0.1,1.3-0.2,1.9-0.2v-0.1
	C436.9,48.3,436.5,47.8,436.6,47.6L436.6,47.6z M360,213.2l2-1.5v-0.8c-0.8,0.3-1.6,0.7-2.3,1.1L360,213.2z M455.3,49.5h-2.5
	c0,0-0.4,0.5-0.5,0.6c0.8,0.2,1.6,0.4,2.5,0.5C455.1,50.3,455.2,49.9,455.3,49.5z M372.6,25.3l-1.1-1.8l-1.1,1.8l1.1,1.8L372.6,25.3
	z M369.1,41l-1.1-1.8l-1.1,1.8l1.1,1.8L369.1,41z M307.6,133.8v-0.9h0.9v-1.1h-0.9v-0.9h-1.1v0.9h-0.9v1.1h0.9v0.9H307.6z M383.3,41
	l-1.1-1.8l-1.1,1.8l1.1,1.8L383.3,41z M379.9,22.1l-1.1-1.8l-1.1,1.8l1.1,1.8L379.9,22.1z M306,117l1.1,1.8l1.1-1.8l-1.1-1.8
	L306,117z M387,25.4l-1.1-1.8l-1.1,1.8l1.1,1.8L387,25.4z M312.2,50.7l2.4-0.5l0.6,3.9c0.8-0.4,1.7-0.7,2.6-0.8
	c0.3-1.1,0.7-2.2,1.2-3.3l-2.2-2.3c-0.1-0.1-0.2-0.4-0.1-0.6l-0.1-0.1l-2,0.6l-0.5-3.1c-0.9,0.2-1.8,0.4-2.7,0.3
	c-0.3,1.1-0.8,2.2-1.4,3.2l1.9,2.1C312.2,50.2,312.3,50.5,312.2,50.7L312.2,50.7z M315.7,49l2.3,2.5l-0.1,0.3
	c-0.9,0.1-1.7,0.3-2.6,0.6l-0.5-3.1L315.7,49L315.7,49z M311.3,46.4c0.9,0,1.8-0.1,2.7-0.3l0.3,2.5l-1,0.2l-2.1-2.2L311.3,46.4z
	 M321.8,40.8c-0.4,0.9-0.6,1.9-0.5,2.9c0.9-0.3,1.8-0.3,2.6,0v-3c0-1,0.3-2,0.8-2.8l0.5-0.8c0.8-0.2,1.6-0.1,2.4,0.1V35
	c-0.1-0.9,0.1-1.7,0.6-2.4h0.6c2,0,3.4-0.1,4.4-0.8c-0.4,1-0.7,2-0.7,3.1v2.8l-0.1,0.2c-0.5,0.5-1.2,0.7-1.9,0.8h-2.6
	c0.1,0.8,0.1,1.6,0,2.4c0.8,0,1.5-0.1,2.3-0.4c-0.3,0.8-0.5,1.6-0.4,2.4c0.9-0.2,1.8-0.2,2.7,0v-2.9c-0.1-0.8,0.1-1.5,0.4-2.2
	c0.7-0.1,1.4-0.1,2.1,0v-4.8c0-0.9-0.2-3.3,0.5-4.4l0.9-1.3l-0.3-0.2l-0.2,0.4l-0.8,1.3l-0.1,0.2c-0.9,0.8-2,1.2-3.2,1.1H330
	c-0.9,0-1.4-0.4-1.4-0.7h-0.5v2.7c-0.1,0.1-0.4,0.3-0.7,0.5c-0.5,0.5-1.2,0.7-1.9,0.8h-2.1c0.1,0.8,0.1,1.5,0,2.3
	c0.6,0,1.3,0,1.9-0.2c-0.1,0.4-0.2,0.9-0.2,1.3l-0.6,0.9c-0.6,0.6-1.4,1-2.2,1.1h-3c0.1,0.8,0.1,1.6,0,2.4
	C320,41.3,320.9,41.1,321.8,40.8L321.8,40.8z M343,31.2c-0.4,0.8-0.6,1.7-0.5,2.5c0.9-0.2,1.8-0.2,2.7,0v-2.8c0-0.7,0.1-1.5,0.3-2.2
	l1-1.5c0.9,0,1.8-0.2,2.6-0.5c-0.4,0.7-0.6,1.6-0.5,2.4c0.8-0.2,1.7-0.2,2.5,0v-2.6c-0.1-0.7,0-1.5,0.4-2.1l1.4-2.2h2.9l-1.5,1.7
	c-0.8,0.9-1.1,2.1-1,3.2c0.9-0.2,1.8-0.2,2.6,0v-2.7c-0.1-0.7,0.1-1.5,0.3-2.2c1.4,0.1,2.7,0.9,3.5,2L360,24l-1.5-2.4
	c-1-1.3-2.7-2.1-4.3-2h-7.3c0.4,0.6,0.5,1.4,0.2,2.2c-0.6,0.6-1.3,0.9-2.1,1h-3c0.1,0.8,0.1,1.6,0,2.4c1.8,0,3.2-0.3,4.4-1.9l1-1.3
	h5.1l-1,1.5c-0.6,0.6-1.4,1-2.2,1.1h-3c0.1,0.7,0.1,1.4,0,2.1l-0.8,1.3c-0.6,0.6-1.4,0.9-2.2,1h-2.6c0.1,0.8,0.1,1.6,0,2.4
	C341.5,31.5,342.3,31.4,343,31.2L343,31.2z M354.1,119.8h1.1v-0.9h0.9v-1.2h-0.9v-0.9h-1.1v0.9h-0.9v1.2h0.9V119.8z M355.7,80.5
	l-1.1-1.8l-1.1,1.8l1.1,1.8L355.7,80.5z M362.8,126.8h1.1v-0.9h1v-1.2h-1v-0.9h-1.1v0.9h-0.9v1.2h0.9V126.8z M365.4,72.3l-1.1,1.8
	l1.1,1.8l1.1-1.8L365.4,72.3z M393.5,126.8h1.1v-0.9h0.9v-1.2h-0.9v-0.9h-1.1v0.9h-0.9v1.2h0.9V126.8z M305.5,49.7
	c0.2-0.8,0.3-1.7,0.3-2.5c-0.4-0.2-0.8-0.3-1.2-0.4l0.3,2.5C305.1,49.4,305.3,49.5,305.5,49.7L305.5,49.7z M393.4,59.8h1.1v-1.1h1.1
	v-1.2h-1.1v-1.2h-1.1v1.2h-1.2v1.2h1.2V59.8z M390.6,41l-1.1-1.8l-1.1,1.8l1.1,1.8L390.6,41z M389,59.8h1.1v-1.2h1.2v-1.2h-1.2v-1.2
	H389v1.2h-1.2v1.2h1.2V59.8z M354.6,121.2c1.5,0,2.8-1.3,2.8-2.8s-1.3-2.8-2.8-2.8s-2.8,1.2-2.8,2.8
	C351.8,119.9,353.1,121.2,354.6,121.2z M354.6,116.2c1.2,0,2.2,1,2.2,2.2s-1,2.2-2.2,2.2s-2.2-1-2.2-2.2S353.4,116.2,354.6,116.2z
	 M307.6,55.8l-2,0.9l-0.9-3c-0.8,0.4-1.7,0.6-2.6,0.7c-0.2,1.1-0.5,2.2-0.9,3.3l2.2,1.8c0.2,0.1,0.3,0.4,0.2,0.6h0.1l2.2-0.9
	l1.2,3.8c0.8-0.5,1.6-0.9,2.5-1.2c0.1-1.2,0.3-2.3,0.6-3.4l-2.5-2C307.7,56.2,307.6,56,307.6,55.8L307.6,55.8z M304.6,58l-2.4-1.9
	v-0.2c0.9-0.1,1.8-0.4,2.7-0.7l0.7,2.4L304.6,58L304.6,58z M309.6,60.2c-0.8,0.3-1.7,0.6-2.4,1l-1-3l0.8-0.4l2.6,2.1
	C309.6,59.9,309.6,60.2,309.6,60.2z M358,206h-3c-0.3,0-0.6-0.1-0.9-0.4V205c0-0.5-0.2-1-0.4-1.5c0.4,0.1,0.9,0.2,1.3,0.2h1.1
	c-0.2-0.4-0.3-0.8-0.3-1.3c0-0.4,0.1-0.9,0.2-1.3h-3.7c-0.7-0.1-1.3-0.4-1.7-1l-0.1-0.1c-0.4-0.6-0.8-1.2-1-1.6h-4
	c0.7-0.3,1.2-0.7,1.6-1.3c0.3-0.4,0.7-1,0.7-1l-1.9-1c0,0-1.1,1.7-1.4,2.2c-0.5,0.8-1.3,1.2-2.2,1.2H342c-1.6,0.1-3.1-0.6-4-1.9
	l-0.3,0.2l1.6,2.4l1.8,2.8c0.5,1,0.7,2.1,0.7,3.3v2.4c0.8-0.1,1.7-0.1,2.5,0v-1.4c0-0.6-0.3-1.3-0.6-1.8c0.5,0.2,1,0.3,1.5,0.3h1.3
	c-0.1-0.4-0.1-0.8-0.1-1.2s0-0.7,0.1-1.1h-3.3c-0.8-0.1-1.5-0.5-2-1.1l-0.8-1.3c1.1,0.5,2.4,0.8,3.7,0.7h6.5
	c0.5,1.1,0.7,2.3,0.7,3.6v1.5c0.9-0.1,1.8-0.1,2.7,0v0.1c0.2,0.5,0.3,1.1,0.3,1.6v2.5c0.7-0.2,1.5-0.2,2.2,0
	c0.1-0.8-0.1-1.6-0.5-2.3c0.3,0.1,0.7,0.2,1,0.2h1.1c-0.2-0.3-0.3-0.6-0.2-1C357.8,206.6,357.8,206.3,358,206L358,206z M295,84.3
	c0.4,0.7,0.1,0.9-0.8,1.6l-6.2-2.2l-0.2-0.4c0.7-0.3,1.5-0.5,2.3-0.6v-0.1c-0.4-0.5-0.7-1-1-1.6H289l-2.3,0.8l0.8,1.7l-1.6,0.9
	c0.3,0.6,0.6,1.1,0.8,1.8h0.1c0.1-0.4,0.5-0.8,0.6-0.8l6.3,2.2c0.2,0.1,0.4,0.3,0.4,0.5h0.1c0.7-0.7,1.4-1.3,2.2-1.9l-1.1-2.2
	L295,84.3L295,84.3z M314.4,54.7c-0.3,0.2-0.6,0.3-0.9,0.4l-5-4.6c-0.2-0.1-0.2-0.3-0.2-0.5l-0.1-0.1l-2.1,0.3
	c0.1,0.6,0.1,1.3,0.1,1.9h0.1c0,0,0.6-0.7,1-0.4l5,4.5c0.4,0.4,0.2,0.6,0.2,0.6l0.1,0.1l2.1-0.4L314.4,54.7L314.4,54.7z M299,76.6
	c-0.2,0.3-0.4,0.5-0.7,0.7l-6.8-3c-0.2-0.1-0.3-0.2-0.4-0.4H291l-2.4,1.6c0.4,1.1,0.6,2.3,0.6,3.6l5.9,2.6c0.2,0.1,0.4,0.3,0.4,0.5
	h0.1l2.3-1.4l0.9,1.9l1.9-1.5L299,76.6L299,76.6z M295.9,79.9l-6.5-2.8V77l1.5-1l6.1,2.7l0.2,0.5L295.9,79.9L295.9,79.9z
	 M298.2,80.7l-0.8-1.8l2.2,1L298.2,80.7L298.2,80.7z M301.4,71c0.3,0.8-0.4,1.1-1.6,1.8l-2-1.2c-0.4-1.3-0.7-2.6-0.8-3.9h-3.5
	c0,1.2-0.1,2.3-0.3,3.4l5.9,3.3c0.2,0.1,0.3,0.3,0.3,0.6h0.1c0.9-0.7,1.9-1.3,3-1.8l-0.7-2.4L301.4,71z M293.8,69.5l3-0.1l0.5,2
	L293.8,69.5z M304.9,66.7l2-0.8l-0.5-1.9h-0.1c-0.2,0.3-0.5,0.5-0.8,0.6l-5.7-3.7c-0.2-0.1-0.3-0.3-0.3-0.5h-0.1l-2.2,1l0.2,1.8
	l-1.9,0.7c0.2,0.6,0.3,1.3,0.4,1.9h0.1c0.2-0.3,0.7-0.7,0.8-0.6l5.9,3.7c0.2,0.1,0.3,0.3,0.3,0.6h0.1l1.7-0.5l-0.4-1.8h-0.1
	l-0.7,0.3l-5.9-3.8l-0.1-0.8l1-0.5l5.7,3.6c0.5,0.3,0.3,0.6,0.3,0.6L304.9,66.7L304.9,66.7z M334.5,98.7l1.1,1.8l1.1-1.8l-1.1-1.8
	L334.5,98.7z M344.9,100.5l1.1-1.8l-1.1-1.8l-1.1,1.8L344.9,100.5z M317.7,100.5l1.1-1.8l-1.1-1.8l-1.1,1.8L317.7,100.5z
	 M289.7,92.5c-0.7-1.2-1.3-2.4-1.8-3.7h-0.1l-3.3,0.9c0.3,1.1,0.5,2.2,0.6,3.4l6.5,1.7c0.2,0.1,0.4,0.2,0.5,0.4h0.1
	c0.7-0.9,1.6-1.8,2.5-2.6l-1.3-2.1l-0.3,0.2c0.5,0.7-0.1,1.2-1.1,2.2L289.7,92.5L289.7,92.5z M285.3,91.3l2.8-0.8c0,0,0.6,1.1,1,1.8
	L285.3,91.3z M327.9,98.6l-1.1-1.8l-1.1,1.8l1.1,1.8L327.9,98.6z M286.9,111.6c-1-0.9-1.9-1.9-2.7-3h-0.1l-3,1.7
	c0.6,1,1.1,2,1.5,3.1h6.7c0.2,0,0.5,0.1,0.6,0.3h0.1c0.5-1.1,1.1-2.1,1.7-3.1L290,109l-0.2,0.3c0.6,0.5,0.2,1.1-0.5,2.4
	C289.3,111.7,286.9,111.6,286.9,111.6z M282.3,111.6l2.6-1.5c0,0,0.8,0.9,1.5,1.5H282.3z M292.9,139.2l-6.2,2.1
	c-0.2,0.1-0.4,0-0.6-0.1H286l-0.7,2.2l2,1.2l-3.2,1.1l-0.8,1.7c0.6,0.2,1.2,0.5,1.7,0.9h0.1c-0.1-0.4-0.1-1,0-1l9.5-3.2
	c0.5-0.2,0.7,0.1,0.7,0.1h0.1l0.7-2l-1.7-0.8h-0.1c0.1,0.3,0,0.7-0.1,1l-6.5,2.2l-0.7-0.4l0.3-1.1l6.8-2.2c0.7-0.3,1.5-0.5,2.3-0.6
	V140C296.3,140,294.3,138.8,292.9,139.2L292.9,139.2z M279.8,106.9h0.1c0,0,0.1-1,0.6-0.9l9.5,1.1c0.5,0.1,0.6,0.4,0.6,0.4h0.1
	l1.4-1.6l-1.2-1.4c-0.1,0.3-0.2,0.6-0.5,0.8l-9.7-1.2c-0.2,0-0.4-0.1-0.5-0.3h-0.1l-1.5,1.5C279.1,105.9,279.4,106.4,279.8,106.9z
	 M289.4,135.9c-1.2-0.6-2.3-1.3-3.4-2.2h-0.1l-2.4,2.5c0.9,0.8,1.6,1.7,2.3,2.6l6.4-1.9c0.2-0.1,0.5,0,0.6,0.1h0.1
	c0.2-1.2,0.4-2.3,0.8-3.5l-2.2-1.1l-0.2,0.3c0.8,0.3,0.5,1,0.2,2.4L289.4,135.9L289.4,135.9z M285,137.2l2-2.2c0,0,1,0.6,1.8,1.1
	L285,137.2L285,137.2z M280.4,101.4c0.1-0.4,0.4-0.9,0.5-0.9l9.3,1.8c0.2,0,0.4,0.2,0.5,0.4h0.1l2-2.1l-1.4-3.4l-6.3-1.2
	c-0.2,0-0.4-0.2-0.5-0.3h-0.1l-1.9,2l0.9,1.5l-2.7-0.5l-1.6,1.1C279.7,100.3,280.1,100.8,280.4,101.4z M284.9,97.8l7,1.3v0.1
	l-1.2,1.3l-6.7-1.3l-0.2-0.3L284.9,97.8L284.9,97.8z M289.7,124.9l1.3,1.3c0.5-0.3,0.9-0.8,1.3-1.2l-1.3-1.3
	C290.4,124,290,124.5,289.7,124.9z M282.1,131.2l1.6,1h0.1c0-0.3,0-0.7,0.2-1l3.1-2.3l6.2,2.1c-0.3-0.6-0.6-1.3-0.9-2
	c-3.4-1-9.5-3.1-10.1-3.5h-0.1l-0.9,1.6l1.5,1c-0.1-0.3,0.3-0.7,0.3-0.7l2.3,0.7l-2.9,2L282.1,131.2L282.1,131.2z M294.9,148.8
	c-0.1,1,0,1.9,0.2,2.8c-1-0.9-2.1-1-3.7-1c0.2,0.9,0.2,1.8,0,2.7h2.4c1.1,0.1,2.2,0.5,3.2,1.1l0.6,0.9c-0.7-0.3-1.4-0.5-2.2-0.4
	c0.1,0.7,0.1,1.5,0,2.2h2.1c0.6,0,1.2,0.3,1.8,0.7v2.1c0.1,1.9,0.7,3.8,1.9,5.4l0.3,0.4c-1-0.7-1.8-0.6-3.7-0.6l-0.2-0.3l-3.2-4.8
	c-0.3-0.6-0.4-1.3-0.3-2v-2.4c-0.8,0.2-1.7,0.2-2.5,0c-0.1,0.9,0.1,1.7,0.6,2.4c-0.7-0.2-1.5-0.3-2.2-0.3c0.1,0.7,0.1,1.5,0,2.2h2.5
	c0.8,0,1.6,0.4,2.1,1l0.9,1.4c-0.9-0.7-1.8-0.8-3.4-0.8c0.2,0.9,0.2,1.8,0,2.8h2.8c0.8,0.1,1.6,0.4,2.2,0.9c0.3,0.7,0.4,1.5,0.2,2.3
	l2.1,0.1c2,0.1,3.8,1.1,5,2.7l0.3,0.5c0,0.6,0.1,1.2,0.3,1.7c-1.8-2.1-2.6-2-6.4-2c0.2,0.8,0.2,1.5,0.1,2.3h3.2
	c1.8,0.1,3.4,1,4.5,2.5l0.2,0.4c0.8,1.2,1.5,2.1,1.5,2.1l0.3-0.2c0,0-0.5-0.8-0.8-1.2c-0.5-0.9-0.6-3.4-0.6-4.7V163
	c-0.8,0.1-1.6,0.1-2.4-0.1v7l-1.7-2.6l-0.7-1.1c-0.5-0.9-0.6-3.5-0.6-4.8v-0.9c0-0.6,0-2.6,0.8-2.6v-0.4h-3l-0.1-0.1l-1.6-2.3
	c-0.3-0.7-0.4-1.5-0.4-2.3V149C296.5,149,295.6,149,294.9,148.8L294.9,148.8z M283.1,121.6l6.5-0.5c0.2,0,0.5,0.1,0.6,0.3h0.1
	l1.4-2.6l-2.3-2.9l-7,0.6c-0.2,0-0.4-0.1-0.5-0.2h-0.1c-1.1,2-2.1,3.6-3.4,5.6c0.6,0.3,1.1,0.8,1.6,1.3h0.1c0-0.5,1.8-3.4,1.8-3.4
	L283.1,121.6L283.1,121.6z M282.7,118.2l7.6-0.6l-0.8,1.6l-7.2,0.6l-0.3-0.4L282.7,118.2L282.7,118.2z"/>
<path class="st3" d="M30.1,87.7H265v114.9H30.1V87.7z"/>
<path class="st0" d="M32.2,107.2V87.7h12.4v3.1H36v4.6h6.5v3.1H36v8.6h-3.8V107.2z M49.3,87.7h4.6l5.5,19.5h-3.7l-1.1-4.2h-6.2
	l-1.2,4.2h-3.7C43.5,107.2,49.3,87.7,49.3,87.7z M49.3,99.9h4.5l-2.2-8.5h-0.1L49.3,99.9z M61.6,107.2V87.7h3.7v8.7l6.5-8.7h4.3
	L70.6,95l6.4,12.2h-4.1l-4.8-9.3l-2.7,3.4v5.9C65.4,107.2,61.6,107.2,61.6,107.2z M90.7,87.7h3.7v12.2c0,5.7-3.5,7.6-7.5,7.6
	s-7.5-1.9-7.5-7.6V87.7h3.7V100c0,3.2,1.2,4.3,3.8,4.3c2.5,0,3.8-1.1,3.8-4.3V87.7z M98.5,107.2V87.7h3.7V104h8.5v3.1L98.5,107.2
	L98.5,107.2z M123,87.7v3.1h-5.1v16.4h-3.7V90.8h-5.1v-3.1C109.1,87.7,123,87.7,123,87.7z M127.7,87.7h4.6l5.5,19.5h-3.7L133,103h-6
	l-1.2,4.2h-3.7C122.1,107.2,127.7,87.7,127.7,87.7z M129.1,83.2v3.1h-3.2v-3.1H129.1z M127.8,99.9h4.5l-2.2-8.5H130L127.8,99.9z
	 M134.2,83.2v3.1H131v-3.1H134.2L134.2,83.2z M150.9,87.7v3.1h-5.1v16.4h-3.7V90.8H137v-3.1C137,87.7,150.9,87.7,150.9,87.7z
	 M161.2,107.2V87.7h12.4v3.1h-8.7v4.6h6.5v3.1h-6.5v8.6h-3.7V107.2z M187.2,87.7h3.7v12.2c0,5.7-3.5,7.6-7.5,7.6s-7.5-1.9-7.5-7.6
	V87.7h3.7V100c0,3.2,1.2,4.3,3.8,4.3c2.5,0,3.8-1.1,3.8-4.3V87.7z M182.5,83.2v3.1h-3.2v-3.1H182.5z M187.6,83.2v3.1h-3.2v-3.1
	H187.6z M195,107.2V87.7h7.8c4.4,0,6.2,2.6,6.2,5.8c0,2.4-1.2,4.3-3.6,5l4.3,8.7h-4.1l-3.7-7.9h-3.2v7.9H195z M198.7,96.2h2.8
	c2.9,0,3.8-0.9,3.8-2.8s-1.1-2.8-3.2-2.8h-3.4L198.7,96.2L198.7,96.2z M32.3,134.2v-19.5h5.2l3.8,13.6h0.1l3.8-13.6h5.3v19.5h-3.2
	v-15.3h-0.1l-4.4,15.3H40l-4.3-15.3h-0.1v15.3L32.3,134.2L32.3,134.2z M58.3,114.7h4.6l5.5,19.5h-3.7l-1.1-4.2h-6.2l-1.2,4.2h-3.7
	C52.5,134.2,58.3,114.7,58.3,114.7z M58.3,126.9h4.5l-2.2-8.5h-0.1L58.3,126.9z M81.4,114.7v3.1h-5.1v16.4h-3.7v-16.4h-5.1v-3.1
	C67.5,114.7,81.4,114.7,81.4,114.7z M83.9,134.2v-19.5h3.7v7.8h7.5v-7.8h3.7v19.5h-3.7v-8.4h-7.5v8.4H83.9z M103.1,134.2v-19.5H116
	v3.1h-9.2v4.6h6.7v3.1h-6.7v5.5h9.5v3.1L103.1,134.2L103.1,134.2z M119.2,134.2v-19.5h5.2l3.8,13.6h0.1l3.8-13.6h5.3v19.5h-3.2
	v-15.3H134l-4.4,15.3h-2.8l-4.3-15.3h-0.1v15.3L119.2,134.2L119.2,134.2z M145.1,114.7h4.6l5.5,19.5h-3.7l-1.1-4.2h-6.2l-1.2,4.2
	h-3.7L145.1,114.7L145.1,114.7z M145.2,126.9h4.5l-2.2-8.5h-0.1L145.2,126.9z M168.3,114.7v3.1h-5.1v16.4h-3.7v-16.4h-5.1v-3.1
	H168.3L168.3,114.7z M171.2,134.2v-19.5h3.7v19.5H171.2z M179.3,134.2v-19.5h3.7v8.7l6.5-8.7h4.3l-5.5,7.3l6.4,12.2h-4.1l-4.8-9.3
	l-2.7,3.4v5.9L179.3,134.2L179.3,134.2z M43.6,141.7h3.7v12.2c0,5.7-3.5,7.6-7.5,7.6s-7.5-1.9-7.5-7.6v-12.2H36V154
	c0,3.2,1.2,4.3,3.8,4.3c2.5,0,3.8-1.1,3.8-4.3V141.7z M51.5,161.2v-19.5h3.9L63,155h0.1v-13.3h3.5v19.5H63l-8-13.9v13.9H51.5z
	 M70.6,141.7H77c5.2,0,8.7,2.9,8.7,9.7c0,6.9-3.6,9.7-8.7,9.7h-6.5L70.6,141.7L70.6,141.7z M74.3,158h2.5c4.3,0,5.3-3.1,5.3-6.6
	s-1-6.6-5.3-6.6h-2.5V158z M96.7,161.2v-19.5h3.7v19.5H96.7z M104.9,161.2v-19.5h3.9l7.7,13.3h0.1v-13.3h3.5v19.5h-3.6l-8-13.9h-0.1
	v13.9H104.9z M124,161.2v-19.5h12.4v3.1h-8.7v4.6h6.5v3.1h-6.5v8.6L124,161.2L124,161.2z M145.6,161.4c-5.3,0-8.2-3.6-8.2-10
	s2.9-10,8.2-10s8.2,3.6,8.2,10S150.9,161.4,145.6,161.4z M145.6,144.5c-3,0-4.5,2.3-4.5,6.9c-0.1,4.6,1.4,6.9,4.5,6.9
	s4.5-2.3,4.5-6.9C150,146.9,148.6,144.5,145.6,144.5z M156.4,161.2v-19.5h7.8c4.4,0,6.2,2.6,6.2,5.8c0,2.4-1.2,4.3-3.6,5l4.3,8.7
	H167l-3.7-7.9h-3.2v7.9H156.4L156.4,161.2z M160.1,150.2h2.8c2.9,0,3.8-0.9,3.8-2.8c0-1.8-1.1-2.8-3.2-2.8h-3.4L160.1,150.2
	L160.1,150.2z M174.1,161.2v-19.5h5.2l3.8,13.6h0.1l3.8-13.6h5.3v19.5H189v-15.3l-4.4,15.3h-2.8l-4.3-15.3h-0.1v15.3H174.1
	L174.1,161.2z M200.1,141.7h4.6l5.5,19.5h-3.7l-1.1-4.2h-6.2l-1.2,4.2h-3.7L200.1,141.7L200.1,141.7z M200.1,153.9h4.5l-2.2-8.5
	h-0.1L200.1,153.9z M223.3,141.7v3.1h-5.1v16.4h-3.7v-16.4h-5.1v-3.1H223.3L223.3,141.7z M226.1,161.2v-19.5h3.7v19.5H226.1z
	 M234.3,161.2v-19.5h3.7v8.7l6.5-8.7h4.3l-5.5,7.3l6.4,12.2h-4.1l-4.8-9.3l-2.7,3.4v5.9L234.3,161.2L234.3,161.2z"/>
<path class="st4" d="M258.8,10.1v209.7 M18.9,10.1v209.7"/>
<line class="st5" x1="498.7" y1="10.1" x2="498.7" y2="219.8"/>
</svg>
