<svg xmlns="http://www.w3.org/2000/svg" width="114.603mm" height="36.681mm" viewBox="0 0 324.858 103.979">
  <defs>
    <style>
      .cls-1 {
        fill: #171717;
      }

      .cls-2 {
        fill: #e80036;
      }

      .cls-3 {
        fill: #5a0f09;
      }

      .cls-4 {
        fill: #1d1d1b;
      }
    </style>
  </defs>
  <g id="Logo_Uni_RGB_weboptimiert" data-name="Logo Uni_RGB weboptimiert">
    <g id="layer1">
      <path id="path826" class="cls-1" d="M237.7,103.924V.018h.313V103.924H237.7M245.084,85.5a3.005,3.005,0,0,0,3.226,2.423,2.48,2.48,0,0,0,2.76-2.394c0-1.3-.5-1.932-3.062-2.884-1.67-.629-1.844-1.065-1.844-1.679a1.609,1.609,0,0,1,1.784-1.67,2.21,2.21,0,0,1,2.186,1.7l.713-.213a2.853,2.853,0,0,0-2.9-2.165,2.32,2.32,0,0,0-2.611,2.344c0,3,4.906,2.041,4.906,4.459a1.682,1.682,0,0,1-1.546,1.8,1.776,1.776,0,0,1-.263,0,2.342,2.342,0,0,1-2.582-1.982l-.763.238Zm13.236,2.294V87.11h-4.579V83.423h3.127v-.674h-3.127v-3.34h4.341v-.654h-5.168v9.059Zm1.645,0h.828V78.755h-.828v9.034Zm2.547-8.38h2.7v8.38h.828v-8.38h2.686v-.654h-6.195v.674Zm14.589,8.38V87.11h-1.486v-8.5h-.526l-2.031.664v.5l1.729-.252v7.6h-1.556v.679Zm.877-1.68a2.981,2.981,0,0,0,3.048,1.8c1.794,0,3.1-.778,3.1-2.686a2.316,2.316,0,0,0-1.729-2.284,2.1,2.1,0,0,0,1.452-2.131c0-1.695-1.566-2.2-2.736-2.2a3.407,3.407,0,0,0-2.735,1.427l.589.426a2.541,2.541,0,0,1,2.082-1.179c1.214,0,1.982.495,1.982,1.6,0,1.2-.852,1.759-2.478,1.759h-.679v.674h.828c1.71,0,2.611.63,2.611,1.933s-.713,1.982-2.235,1.982a2.31,2.31,0,0,1-2.418-1.487l-.664.377Zm10.838-7.5c-1.72,0-2.835.778-2.835,2.294a2.226,2.226,0,0,0,1.73,2.121c-1.556.7-2.081,1.531-2.081,2.433,0,1.809,1.3,2.478,3.186,2.478S292,87.284,292,85.455c0-.9-.525-1.729-2.081-2.433a2.23,2.23,0,0,0,1.734-2.121c0-1.516-1.115-2.294-2.834-2.294Zm-2.359,6.848c0-.991.877-1.487,2.359-2.086,1.487.6,2.359,1.105,2.359,2.086,0,1.234-1.026,1.784-2.359,1.784S286.457,86.689,286.457,85.455Zm.352-4.594c0-1.065.827-1.58,2.007-1.58s2.007.495,2.007,1.58c0,.992-.877,1.532-2.007,1.834C287.686,82.393,286.809,81.843,286.809,80.861Zm12.255-1.486a3.507,3.507,0,0,0-2.141-.768c-2.562,0-3.613,2.7-3.613,4.955,0,2.086.59,4.326,3.113,4.326a2.856,2.856,0,0,0,3.062-2.809,2.755,2.755,0,0,0-2.914-2.974,3.383,3.383,0,0,0-2.433,1.2c0-1.719.7-4.038,2.77-4.038a2.192,2.192,0,0,1,1.784.689l.377-.615Zm-.416,5.609a2.057,2.057,0,0,1-2.211,2.27c-1.407,0-2.284-1.041-2.284-2.671a2.664,2.664,0,0,1,2.27-1.769,2.055,2.055,0,0,1,2.216,1.882,2.13,2.13,0,0,1,0,.288Zm-53-18.741h4.341l-4.733,7.706v.674h5.823v-.674h-4.792l4.728-7.681v-.7h-5.367v.679Zm7.265-.674v6.095c0,2.057,1.075,3.087,3.275,3.087s3.276-1.025,3.276-3.087V65.569h-.828v6.174c0,1.73-.842,2.334-2.448,2.334s-2.448-.6-2.448-2.334V65.569Zm9.058,9.058h.828V71.605l1.709-1.983,2.875,4.991h.926l-3.275-5.595,2.923-3.469h-1.015L262.8,70.465V65.549h-.828v9.078Zm7.666-9.058v6.095c0,2.057,1.076,3.087,3.276,3.087s3.275-1.025,3.275-3.087V65.569h-.827v6.174c0,1.73-.843,2.334-2.448,2.334s-2.448-.6-2.448-2.334V65.569Zm9.059,9.058h.827V66.243l4.847,8.38h.852V65.569H284.4v7.552h-.025l-4.3-7.552h-1.392v9.058Zm9.886,0V70.262h3.276v-.674h-3.276v-3.34h4.495v-.674H287.76v9.058Zm5.287-8.379h2.686v8.379h.828V66.243h2.686v-.674h-6.195v.674Zm-46.8-4.757V57.447h3.642v4.058h1.8V52.036h-1.8v3.771h-3.642V52.036h-1.8v9.45Zm14.049,0V59.974h-4.594V57.328h3.231V55.812h-3.236V53.557h4.46V52.04h-6.259v9.451Zm3.573,0V52.036h-1.8v9.45Zm2.309,0h3.127c2.478,0,4.227-1.388,4.242-4.728s-1.74-4.727-4.242-4.727H267v9.455Zm1.8-7.929h1.2c2.071,0,2.557,1.516,2.557,3.206s-.5,3.206-2.557,3.206h-1.2V53.562Zm13.409,7.929V59.974h-4.6V57.328h3.236V55.812h-3.236V53.557h4.46V52.04h-6.259v9.451Zm7.433,0V59.974h-4.123V52.045h-1.8V61.5Zm1.363,0h3.469c2.408,0,3.444-1.021,3.444-2.478a2.19,2.19,0,0,0-1.65-2.478,2.106,2.106,0,0,0,1.437-2.146c-.1-1.689-1.323-2.319-3.206-2.319H291v9.45Zm1.8-4.218h1.809c1.05,0,1.486.5,1.486,1.378s-.456,1.373-1.486,1.373h-1.809Zm0-3.771h1.809a1.161,1.161,0,1,1,0,2.3h-1.809V53.5Zm13.409,7.989V59.974h-4.593V57.328h3.221V55.812h-3.236V53.557h4.46V52.04h-6.244v9.451Zm3.326,0V57.64h1.561l1.779,3.851h1.982l-2.082-4.218a2.338,2.338,0,0,0,1.73-2.433c0-1.561-.877-2.8-3.023-2.8h-3.771v9.451Zm0-7.989h1.65c.991,0,1.531.446,1.531,1.338s-.431,1.338-1.848,1.338h-1.338V53.483Zm13.672.813a3.34,3.34,0,0,0-3.43-2.408c-3.027,0-3.964,2.591-3.964,5,0,2.671,1.189,4.712,3.761,4.712a2.973,2.973,0,0,0,2.478-1.1v.991h1.308V56.733h-3.533V58.25h1.794a1.868,1.868,0,0,1-1.86,1.876c-.041,0-.082,0-.122,0-1.259,0-1.982-1.259-1.982-3.246,0-2.1.654-3.429,1.982-3.429a1.867,1.867,0,0,1,1.9,1.338l1.675-.446ZM250.713,44.5c0,1.531-.6,2.072-1.818,2.072s-1.819-.536-1.819-2.072v-6h-1.8v5.922c0,2.765,1.7,3.667,3.628,3.667s3.627-.9,3.627-3.667V38.507h-1.8v6Zm5.669,3.469V41.233h.025l3.865,6.729h1.74V38.507h-1.7v6.442h-.025l-3.721-6.442h-1.883v9.455Zm9.768,0V38.507h-1.809v9.455Zm3.914,0h2.017l2.478-9.455H272.78l-1.754,6.967H271l-1.675-6.967h-1.779l2.478,9.455Zm12.151,0V46.446h-4.6V43.8h3.235V42.278h-3.235V40.024h4.459V38.507h-6.258v9.455Zm3.325,0v-3.86H287.1l1.779,3.85h1.982l-2.081-4.217a2.339,2.339,0,0,0,1.73-2.438c0-1.561-.877-2.8-3.023-2.8h-3.771v9.455Zm0-7.988h1.65c.992,0,1.532.446,1.532,1.338s-.431,1.338-1.849,1.338h-1.348V39.974Zm13.043.535a3.438,3.438,0,0,0-3.34-2.131c-1.635,0-3.047.957-3.047,2.646,0,2.909,4.871,2.543,4.871,4.4,0,.917-.694,1.259-1.6,1.259a2.164,2.164,0,0,1-2.056-1.487l-1.487.654a3.745,3.745,0,0,0,3.533,2.24c2.1,0,3.31-.991,3.31-2.9,0-3.067-4.871-2.725-4.871-4.351,0-.733.565-1.045,1.348-1.045a1.739,1.739,0,0,1,1.68,1.219l1.65-.5Zm3.964,7.433V38.507h-1.8v9.455Zm1.547-9.455v1.517h2.477v7.928h1.8V40.014h2.478V38.507Zm10.332,1.819h.024l1.061,4.1h-2.235l1.115-4.1Zm-3.866,7.636h1.794l.56-2.041h2.974l.52,2.041H318.2L315.516,38.5h-2.24l-2.725,9.455Zm1.809-11.625v1.516h1.571V36.332Zm2.478,0v1.516h1.571V36.332Zm3.077,2.175v1.517H320.4v7.928H322.2V40.019h2.478V38.507Z"/>
      <circle id="circle828" class="cls-2" cx="178.423" cy="52.011" r="51.968"/>
      <path id="path830" class="cls-3" d="M172.705,24.637h.57v-.57h.574V23.5h-.574v-.575h-.57v.57h-.57v.57h.57Zm10.094,33.2h.57v-.456h.456v-.569h-.456v-.456h-.57v.456h-.456v.569h.456Zm-12.24-33.2h.57v-.57h.57V23.5H171.1v-.575h-.545v.57h-.595v.57h.595Zm12.77,50.223c.634,4.143.773,8.038,1.234,10.05l.555-.129c-.441-1.9-.59-5.837-1.229-10.01Zm-5.733-22.7a1.241,1.241,0,0,0-1.418.441l.194.194a1.03,1.03,0,0,1,.8-.441.927.927,0,0,1,.877.827v.669h.272v-.708a1.215,1.215,0,0,0-.753-.982Zm1.724,0a1.219,1.219,0,0,0-.728.991v.709h.277v-.679a.927.927,0,0,1,.877-.827,1.031,1.031,0,0,1,.8.441l.193-.194a1.239,1.239,0,0,0-1.442-.441Zm.461.615c-.5,0-.689.193-.689.376h.57a.2.2,0,0,0-.129.179.228.228,0,0,0,.456,0,.194.194,0,0,0-.119-.174h.555c-.025-.173-.317-.386-.669-.386Zm11.184-17.865-.584-.882-.55.882.55.883Zm-.584,20.134a1.383,1.383,0,1,0-1.388-1.387,1.382,1.382,0,0,0,1.388,1.387Zm0-2.477a.817.817,0,1,1-.01,0h.01Zm-.273,1.828h.57v-.456h.456v-.569h-.456v-.456h-.57v.456h-.456v.569h.456Zm-9.96-29.732h.57v-.6h.574V23.5h-.574v-.575h-.57v.57h-.57v.57h.57Zm-1.982,0h.569v-.6h.57V23.5h-.57v-.575h-.594v.57h-.575v.57h.575Zm-2.032,0h.57v-.6h.575V23.5H176.7v-.575h-.595v.57h-.595v.57h.57Zm1.09,28.107c-.5,0-.689.193-.689.377h.58a.2.2,0,0,0-.129.178.228.228,0,0,0,.456,0,.194.194,0,0,0-.124-.174h.55c-.02-.213-.312-.416-.664-.416Zm5.228,20.416a1.545,1.545,0,0,0-.084-.5.444.444,0,0,0-.407-.3.854.854,0,0,0-.54.3c-.148.139-.3.3-.446.446a2.771,2.771,0,0,1-1.9.763,2.635,2.635,0,0,1-1.635-.565,1.71,1.71,0,0,0-.991-.53.565.565,0,0,0-.5.362,1.871,1.871,0,0,0-.1.708v.065c0,.178.1.768.263,1.67.233,1.333.61,3.265.991,4.99.2.862.411,1.675.61,2.339a5.8,5.8,0,0,0,.609,1.486,1.315,1.315,0,0,0,1.056.615,1.334,1.334,0,0,0,1.219-1.115c.129-.5.857-3.722,1.357-6.591a.2.2,0,0,0,0-.035c.149-.857.278-1.68.367-2.4a14.1,14.1,0,0,0,.119-1.536A1.2,1.2,0,0,0,182.452,73.19Zm-2.4,10.565c-.139.5-.422.689-.669.689a.748.748,0,0,1-.59-.376,1.619,1.619,0,0,1-.159-.288,11.318,11.318,0,0,0,1.983-3l.163-.332c-.337,1.665-.644,3.018-.723,3.315Zm.054-3.231a12.487,12.487,0,0,1-1.695,2.681c-.114-.327-.233-.718-.351-1.149v-.03a14.255,14.255,0,0,0,3.24-4.391,18.7,18.7,0,0,1-1.189,2.894Zm1.67-5.778a14.62,14.62,0,0,1-3.89,6.656c-.347-1.373-.689-3.013-.956-4.416s-.5-2.641-.5-2.973a7.544,7.544,0,0,0,1.982,3.241l.372-.426a5.365,5.365,0,0,1-.991-1.185,3.42,3.42,0,0,0,.917.119,3.894,3.894,0,0,0,2.547-.857l-.4-.4a3.4,3.4,0,0,1-2.145.693,2.034,2.034,0,0,1-1.4-.441,6.09,6.09,0,0,1-.416-1.149l.193.163a3.2,3.2,0,0,0,1.982.684,3.334,3.334,0,0,0,2.29-.922c.168-.158.322-.327.446-.446l.059-.054v.3a12.415,12.415,0,0,1-.084,1.417ZM174.1,72.923c-.5,2.909-.991,7.433-3.067,11.239l.5.272c2.161-3.924,2.661-8.538,3.132-11.422Zm.6,6c-.089,2.383-.392,4.782-1.328,5.842l.431.372c1.12-1.328,1.358-3.781,1.486-6.194s.04-4.8.362-5.778l-.54-.179c-.4,1.2-.307,3.543-.411,5.937Zm2.532-63.6-.55-.883-.555.883.55.882Zm14.658-9.272-1.249-.372-.411,1.383-1.382-.412-.372,1.239,1.382.412-.411,1.387,1.249.372.411-1.383,1.383.412.366-1.249-1.382-.412Zm8.4,37.884-.55-.862-.55.882.55.882Zm24.856.937.045.362-3.211.416a.314.314,0,0,1-.3-.124h-.039a7.044,7.044,0,0,1-.55,1.318l.991.724.109-.149c-.347-.223-.248-.4,0-.9l3.156-.411.095.718.455.144-.118-.917,1.352-.178v-.094a3.383,3.383,0,0,1-1.754-.952ZM225.787,36l-1.149-.431a3.69,3.69,0,0,1-.327.178,9.237,9.237,0,0,0,1.045.694,2.335,2.335,0,0,0,.431-.446ZM194.841,67.551v.5l1.293-.848.54.679-1.486,1.15.267.4,1.551-1.184.362.421-.59.5.317.317.991-.783-.46-.54.857-.783-.377-1.16.278-.188v-.3h-.793l.441,1.486-.287.228-.531-.659v-1.4h-1.209v.416l.268.3-.268.2-.817-.916h-.377v.237l1.021,1.2Zm-.184-23.637.55.882.55-.882-.55-.883Zm30.982,4.564-3.305.163c-.268,0-.3-.139-.3-.139h-.044l-.58.868.689.644h.039a.812.812,0,0,1,.169-.456l3.37-.164a.294.294,0,0,1,.257.119h.045l.624-.842a3.671,3.671,0,0,1-.7-.659h-.039s.044.451-.228.466Zm-5.283-9.3h-.039a7.111,7.111,0,0,1-.362,1.383l1.07.579.089-.163c-.376-.169-.3-.357-.153-.882l3.067-.852.194.7.5.075-.248-.892,1.314-.367-.025-.094a3.408,3.408,0,0,1-1.868-.694l-.174.05.1.351-3.122.863a.308.308,0,0,1-.337-.055ZM221.6,45h.04c-.04-.2,0-.5.074-.5l3.4-.679a.3.3,0,0,1,.307.1h.039a8.3,8.3,0,0,1,.139-1.228c-.6-.238-.753-1.433-1.581-1.269l-2.72.545a.3.3,0,0,1-.273-.079h-.044l-.456,1.095.713.585-.426.9A4.672,4.672,0,0,1,221.6,45Zm-.129-2.171,3.35-.669a3.05,3.05,0,0,0-.1.818l-3.117.629-.317-.267Zm2.384,10.749a.289.289,0,0,1,.248.138h.049l.461-.936,1.289.907a4.741,4.741,0,0,1,.807-1.081,8.346,8.346,0,0,1-.644-1.551l-1.4-.034a.3.3,0,0,1-.273-.164h-.04l-.6,1.051-1.616-1.115A4.114,4.114,0,0,1,221.5,52a7.531,7.531,0,0,1,.788,1.546Zm.788-1.66,1.521.034.035.07a7.1,7.1,0,0,0-.838,1.055l-.991-.738Zm-2.627.619a6.452,6.452,0,0,0,.66-1.115l1.293.877-.2.4-1.68-.04ZM208.716,44.8l.55-.882-.55-.883-.55.883Zm-37.473,55.649a2.375,2.375,0,0,0,.173.6l.937-.8v-.376a9.362,9.362,0,0,0-1.105.579Zm32.389-56.531.55.882.57-.882-.55-.883Zm-33,54.351c.035-.188.57-2.973.625-3.251s.208-.262.208-.262v-.045l-.709-.768-.773.535v.04a.8.8,0,0,1,.406.267s-.6,3.137-.634,3.311a.288.288,0,0,1-.173.223v.044l.674.808a3.672,3.672,0,0,1,.8-.525v-.035s-.5-.069-.426-.342Zm5.947.8s.248-3.023.267-3.231a.31.31,0,0,1,.184-.268v-.039l-1.14-.9-1.6.877L173.993,99a.286.286,0,0,1-.154.243v.045c.878.694,1.6,1.318,2.478,2.116a3.587,3.587,0,0,1,.743-.659v-.04a7.928,7.928,0,0,1-1.486-1.15Zm-1.68-.084.312-3.762h.025l.714.531-.3,3.582-.213.114Zm-2.924-4.148v.035a.8.8,0,0,1,.416.252s-.455,3.162-.5,3.335a.294.294,0,0,1-.169.233v.045l.7.773a3.673,3.673,0,0,1,.778-.555v-.04s-.471-.054-.431-.327c0-.188.436-3.008.5-3.27s.2-.273.2-.273v-.045l-.739-.738Zm8.534.852a.293.293,0,0,1,.128-.258v-.044l-1.129-.654a14.728,14.728,0,0,1-1.571,1.075s.029,3.077.029,3.281a.308.308,0,0,1-.153.282v.04l.718.57.63-.63v-.029l-.293-.214-.034-3.691.133-.085.655.4s.029,3,.029,3.27-.153.3-.153.3v.044l.847.615.654-.679v-.035a.8.8,0,0,1-.446-.188s-.03-3.186-.03-3.365Zm15.361-3.469-.163-.1-.233.352a2.312,2.312,0,0,1-1.764.991l-2.478-.034a2.134,2.134,0,0,1-.084,1.323h1.214l-.2.307a2.552,2.552,0,0,1-2.1,1.174h-1.388a1.147,1.147,0,0,1,.1.565c0,.5-.213.605-.213.605h1.15a1.567,1.567,0,0,0,.733-.2,3.206,3.206,0,0,0-.679,1.67v.574a3.841,3.841,0,0,1,1.427-.123v-1.15a4.138,4.138,0,0,1,.437-1.982l.961-1.437a3.3,3.3,0,0,0,1.774-.5v2.438a1.653,1.653,0,0,1-1.021.5H192.1a3.09,3.09,0,0,1,0,1.085,2.438,2.438,0,0,0,1.3-.243,3.463,3.463,0,0,0-.045,1.046,2.2,2.2,0,0,1,1.075,0V97.586a2.112,2.112,0,0,1,.1-.753H195.9v-.228c-.272,0-.376-.223-.411-.813v-1.1a4.449,4.449,0,0,1,.4-2.354Zm-8.721,4.634v-.04l-1.13-.421.842-1.774a4.171,4.171,0,0,1-1.3-.436,7.8,7.8,0,0,1-1.4,1.026l.213,1.56a.288.288,0,0,1-.094.268v.05l.991.307-.689,1.412a4.661,4.661,0,0,1,1.189.625,8.218,8.218,0,0,1,1.432-.892s-.163-1.185-.193-1.393a.308.308,0,0,1,.173-.268Zm-1.913-.317L185,94.87l.1-.084a6.657,6.657,0,0,0,1.209.471l-.664,1.417Zm1.046,2.3a7.167,7.167,0,0,0-1.175-.659l.565-1.115.466.223.213,1.486Zm-3.053-.04s-.173-3.028-.188-3.236a.3.3,0,0,1,.139-.287v-.04a7.147,7.147,0,0,1-1.22-.614l-.787.922.133.123c.253-.337.417-.223.9.035l.184,3.181-.729.04-.173.446.926-.049.075,1.357h.1a3.383,3.383,0,0,1,1.07-1.68V98.81ZM204.35,12.07l.312-.5-.5-.322-.312.471-.471-.312-.322.5.495.312-.317.5.5.322.312-.471.471.313.322-.5ZM220.113,38.5a.835.835,0,0,1,0-.495l3.152-1.2a.293.293,0,0,1,.283.035h.044l.332-.991a3.67,3.67,0,0,1-.862-.411h-.035s.184.441-.079.54l-3.062,1.15c-.253.094-.332-.04-.332-.04h-.045l-.283.991.858.377Zm.6,35.184a1.914,1.914,0,0,0,.164-1.07,2.872,2.872,0,0,1-1.4,0v1.362a2.559,2.559,0,0,1-.188,1.16,10.413,10.413,0,0,1-1.224,0l.049,2.522a2.7,2.7,0,0,1-.376,1.586h-1.591a2.827,2.827,0,0,0-1.68.5,4.458,4.458,0,0,0,.56-2.042V76.139a1.8,1.8,0,0,1,.991-.392h1.18a3.7,3.7,0,0,1,0-1.268,3.039,3.039,0,0,0-.991.1,1.933,1.933,0,0,0,.163-1.071,2.888,2.888,0,0,1-1.407,0v1.363a2.2,2.2,0,0,1-.208,1.195l-.025.034a1.147,1.147,0,0,1-.956.327v2.161a5.947,5.947,0,0,1-.2,2.17l-.728,1.095.173.1a2.709,2.709,0,0,1,2.215-1.457h3.3a1.711,1.711,0,0,1,.124-1.229h-.645a6.736,6.736,0,0,0,.684-.739,2.024,2.024,0,0,1,1.209-.56h1.2a3.649,3.649,0,0,1,0-1.268c-.878,0-1.2.069-1.69.634a2.027,2.027,0,0,0,.119-.654V75.277a1.773,1.773,0,0,1,.991-.392H221.7a3.749,3.749,0,0,1,0-1.268,3.05,3.05,0,0,0-.976.064Zm-3.221-42.265,2.844-1.546.2.054a5.916,5.916,0,0,1-.55,1.041v.04a3.4,3.4,0,0,1,.926.173h.045l.5-1.105-.842-.3.208-.932a4.781,4.781,0,0,1-.912-.287h-.034c.094.178.138.461.069.5l-2.924,1.591a.311.311,0,0,1-.322,0l-.049.049a7.41,7.41,0,0,1-.04,1.428l1.174.322.05-.174c-.387-.089-.357-.3-.327-.847Zm8.568,26.031a1.7,1.7,0,0,0,.159-.991,2.575,2.575,0,0,1-1.264,0v1.219a2.248,2.248,0,0,1-.173,1.05,2.561,2.561,0,0,1-1.368.382v.218c.287,0,.416.471.416.753V60.5a6.163,6.163,0,0,1-.272,2.325l-.372.589-1.789,2.7-.991,1.487V64.167l.466-.7a1.78,1.78,0,0,1,1.07-.5h.813a3.261,3.261,0,0,1,0-1.149,3.425,3.425,0,0,0-.59.034,1.872,1.872,0,0,0,.173-1.07,2.859,2.859,0,0,1-1.382,0V62.12a2.583,2.583,0,0,1-.178,1.13l-.442.664a1.983,1.983,0,0,1-1.546.466V64.6c.293,0,.422.465.422.753v3.315A6.033,6.033,0,0,1,218.934,71c-.129.2-.391.58-.391.58l.153.094s.337-.456.734-1.055l.114-.179a2.894,2.894,0,0,1,2.215-1.234h1.184a1.273,1.273,0,0,1,.421-1.04c-1.412,0-2.284-.169-3.112.877l-.084.124a3.685,3.685,0,0,0,.208-1.2l.233-.352a3.243,3.243,0,0,1,2.478-1.337h1.343a1.437,1.437,0,0,1,.466-1.17,1.565,1.565,0,0,1,.887-.347h1.03a3.283,3.283,0,0,1,0-1.11,2.651,2.651,0,0,0-.877.094,1.668,1.668,0,0,0,.149-.936,2.53,2.53,0,0,1-1.229,0V64a1.937,1.937,0,0,1-.179,1.046l-.034.044a4.552,4.552,0,0,0-2.617.4l1.333-2.012.075-.114.55-.833.079-.119v-.039l.094-.139a1.9,1.9,0,0,1,1.17-.555h1.293a3.659,3.659,0,0,1,0-1.244,1.972,1.972,0,0,0-1.947.808,4.037,4.037,0,0,0,.3-1.487v-.991a2.317,2.317,0,0,1,1.169-.372h.783a3.351,3.351,0,0,1,0-1.139A2.663,2.663,0,0,0,226.06,57.447ZM215.936,28.482l.991-.624a11.183,11.183,0,0,1,1.923.555h.039l.783-1.516a8.306,8.306,0,0,1-1.451-.912l-2.8,1.8a.315.315,0,0,1-.317,0h-.035a9.268,9.268,0,0,1,.094,1.754l1.2.238v-.184c-.4-.034-.376-.391-.431-1.11Zm2.874-1.848-.649,1.318s-.58-.154-.991-.248Zm1.928,8.622a.3.3,0,0,1,.287,0h.045V34.211l1.551.277a4.794,4.794,0,0,1,.277-1.323,8.208,8.208,0,0,1-1.243-1.135l-1.289.565a.308.308,0,0,1-.317-.034h-.04l-.1,1.2-1.937-.327a4.053,4.053,0,0,1-.065,1.367,7.676,7.676,0,0,1,1.368,1.066Zm0-1.833,1.392-.61.06.05a7.3,7.3,0,0,0-.317,1.313l-1.224-.243Zm-1.982,1.744-.114-.079a6.686,6.686,0,0,0,.129-1.293l1.541.257v.441Zm-4.544,24.639h-.57v.456h-.466v.569h.456v.456h.57v-.456h.46v-.569h-.455Zm13.136-11.214s-.282.064-.366.069a9.526,9.526,0,0,0,.778.991,2.343,2.343,0,0,0,.55-.287ZM178.433.028a51.968,51.968,0,1,0,51.958,51.978V52A51.968,51.968,0,0,0,178.423.043Zm5.595,11.482q.669.089,1.338.208v2.973l-1.338-2.051Zm1.794,77.954-.5.456v.57h.565v.58h-.565v.57h-.594v-.565h-.565V90.5h.565v-.57l-.5-.456H182.5l-.5.456v.57h.57v.58h-.57v.56h-.575v-.565h-.565V90.5h.565v-.565l-.5-.461h-1.68l-.5.461V90.5h.565v.58h-.565v.56h-.58v-.565h-.564V90.5h.564v-.57l-.5-.456H175.96l-.5.461V90.5h.545v.58h-.565v.56h-.58v-.565H174.3V90.5h.565v-.57l-.5-.456h-1.72l-.5.461V90.5h.569v.58h-.569v.56h-.6v-.565h-.56V90.5h.56v-.56l-.5-.466H166.1c.2.2,1.729,1.551,2.512,2.245a40.869,40.869,0,0,1-4.038-1.219v-.729l.317-.282.991-.867h8.88a1.438,1.438,0,0,0,.848.5h.158a2.9,2.9,0,0,0,.565-.064,1.533,1.533,0,0,0,.5-.164q.207-.118.4-.257h4.078a2.934,2.934,0,0,0,.233.2,1.917,1.917,0,0,0,1.145.386,1.98,1.98,0,0,0,.961-.252.7.7,0,0,0,.273-.337h7.066l1.274,1.115v.787l-.283.114q-1.843.645-3.761,1.115l2.2-2.259Zm.594,2.671a41.091,41.091,0,0,1-16.035,0Zm-12-69.674v2.508h-5V22.461Zm-2.973-.569V17.8a.617.617,0,0,1,.2-.436.733.733,0,0,1,.5-.193.639.639,0,0,1,.644.629v4.079Zm1.913-4.089a.734.734,0,0,1,.163-.5.438.438,0,0,1,.332-.169.541.541,0,0,1,.382.184.678.678,0,0,1,.183.46v4.079h-1.06Zm5.025,4.644h3.126v2.507h-6.219V22.461Zm-3.093-.57V17.8a.611.611,0,0,1,.526-.644.5.5,0,0,1,.361.178.693.693,0,0,1,.179.466v4.079Zm1.631,0V17.8a.6.6,0,0,1,1.209,0v4.079Zm1.784,0V17.8a.589.589,0,1,1,1.174-.108.649.649,0,0,1,0,.108v4.079Zm-.283,19.559h-.039a8.39,8.39,0,0,0-1.745.193l1.774-2.72,1.784,2.725a8.527,8.527,0,0,0-1.774-.183Zm1.457.713V45.2a6.47,6.47,0,0,0-1.184-.159V42.016a7.975,7.975,0,0,1,1.184.143Zm-1.754-.138v3.047a6.546,6.546,0,0,0-1.343.2V42.189a7.973,7.973,0,0,1,1.343-.163Zm.282-4.143-2.6,3.964a5.146,5.146,0,0,0-.5.189V40.985l3.117-4.777,3.1,4.737v1.1c-.163-.064-.327-.124-.5-.178Zm0-4.336,3.1,4.7v1.675l-3.1-4.758L175.3,39.924V38.329Zm-3.122-4.3a.685.685,0,0,1,.655-.6.649.649,0,0,1,.624.644v6.051l-1.279,1.982Zm2.845.753v2.24h-.991V29.3a.714.714,0,0,1,.357-.59,1.5,1.5,0,0,1,.659-.233v.62a.544.544,0,0,0,0,.931Zm-.139,3.132-.872,1.338V32.61A2.554,2.554,0,0,0,177.992,33.116Zm.694-4.044v-.615a1.492,1.492,0,0,1,.619.228.717.717,0,0,1,.337.61v2.944h-.956V30a.545.545,0,0,0,0-.927Zm.956,3.538v1.8l-.857-1.3a2.547,2.547,0,0,0,.877-.5Zm.57,2.661V29.3a.659.659,0,0,1,.634-.644.67.67,0,0,1,.645.609v7.954Zm.258,7.022a8.163,8.163,0,0,1,1.169.416v3.177a6.534,6.534,0,0,0-1.169-.5Zm1.06-20.4h-1.06V17.8a.734.734,0,0,1,.163-.5.438.438,0,0,1,.332-.169.543.543,0,0,1,.382.179.666.666,0,0,1,.183.456Zm0,3.647v2.735a1.224,1.224,0,0,0-.644-.188,1.207,1.207,0,0,0-.907.426,1.351,1.351,0,0,0-.307-.292,2.063,2.063,0,0,0-.946-.337v-.317h.5V27h-.5v-.5h-.57V27h-.5v.57h.5v.312a2.1,2.1,0,0,0-.991.342,1.4,1.4,0,0,0-.308.287,1.187,1.187,0,0,0-.9-.426,1.245,1.245,0,0,0-.654.193V25.539Zm-5.317,16.794v3.1a6.563,6.563,0,0,0-1.145.545V42.769A7.842,7.842,0,0,1,176.213,42.333Zm2.21,3.28a5.946,5.946,0,0,1,4.178,1.715,5.673,5.673,0,0,1,1.729,4.034,5.905,5.905,0,0,1-3.469,5.193,1.378,1.378,0,0,1,.035-.372,7.277,7.277,0,0,1,.833-2.086.827.827,0,0,0,.753-.327.785.785,0,0,0,.029-.763.906.906,0,0,0,.615-.679.768.768,0,0,0-.555-.857.806.806,0,0,0,.134-.828.819.819,0,0,0-.877-.471s.094-.347-.347-.609-.684-.114-.684-.114a.649.649,0,0,0-.367-.342,1.049,1.049,0,0,0-.53-.04.736.736,0,0,0-.406-.2.793.793,0,0,0-.5.069.783.783,0,0,0-1.1-.074.861.861,0,0,0-.074.074s-.085-.123-.412-.119a.587.587,0,0,0-.5.253.6.6,0,0,0-.52,0,.741.741,0,0,0-.377.407s-.213-.189-.689.1a.688.688,0,0,0-.342.619.8.8,0,0,0-.773.3.822.822,0,0,0,0,.947.723.723,0,0,0-.54.788.888.888,0,0,0,.629.793,1.083,1.083,0,0,0,.085.748.91.91,0,0,0,.787.327c.06.228.437,1.729.5,2.324-.367-.238-.649-.436-.649-.441a5.507,5.507,0,0,1-.838-8.662,5.95,5.95,0,0,1,4.242-1.715Zm12.25-15.986v-.5h-.57v.5h-.5v.565h.5v1.66l-1.422,2.161V23.041l3.33,5.04V33.9l-1.343-2.047V30.192h.5v-.57Zm-.292,2.83,1.625,2.477v1.437a1.289,1.289,0,0,0-1.66.258,1.272,1.272,0,0,0-.991-.451,1.314,1.314,0,0,0-.7.208V35.048Zm1.625,4.866v13.3l-1.373-2.091V37.392a.7.7,0,0,1,.7-.639.684.684,0,0,1,.679.57Zm-3.33.069a.689.689,0,0,1,.7-.644.675.675,0,0,1,.679.639v11.14l-1.383,2.106V37.392Zm1.665,11.73,1.665,2.537v4.856a1.241,1.241,0,0,0-.664-.2,1.332,1.332,0,0,0-.991.466,1.371,1.371,0,0,0-.991-.466,1.3,1.3,0,0,0-.649.178V51.669Zm.283,34.921V71.322h1.382v8.92l-1.328,2.364v1.447Zm.049,3.038v.649h-.386a1.027,1.027,0,0,0,.1-.114,2.157,2.157,0,0,0,.292-.535Zm-.049-17.042V57.526a.61.61,0,0,1,.213-.446.764.764,0,0,1,.5-.2.648.648,0,0,1,.654.644h0V70.039Zm-1.3-13.157a.783.783,0,0,1,.5.2.6.6,0,0,1,.218.441V70.034h-1.383V57.363a.635.635,0,0,1,.679-.481Zm.744,14.44v12.2l-.184-.163a5.165,5.165,0,0,1-1.154-1.378v-.029l-.04-.045V71.322ZM189.5,83.785c.421.387.837.724,1.06.942a18.935,18.935,0,0,1-.322,1.878,1.789,1.789,0,0,1-.282.639.411.411,0,0,1-.352.183.465.465,0,0,1-.382-.183,3.807,3.807,0,0,1-.4-2.012V84.7a4.037,4.037,0,0,1-1.561-.9,6.155,6.155,0,0,1-1.437-3.553c-.1-.679-.213-2.185-.382-3.7a16.241,16.241,0,0,0-.738-3.845l-.521.228a15.913,15.913,0,0,1,.689,3.677c.169,1.486.278,2.973.387,3.716a6.67,6.67,0,0,0,1.595,3.865,3.849,3.849,0,0,0,1.423.9,4.02,4.02,0,0,0-.461.565A14.571,14.571,0,0,1,186.7,87.09a1.893,1.893,0,0,1-1.194.734.827.827,0,0,1-.6-.3,4.005,4.005,0,0,0-2.8-1.408,2.709,2.709,0,0,0-1.838.739,1.439,1.439,0,0,1-.947.421,1.7,1.7,0,0,1-1.164-.585,4.249,4.249,0,0,0-.456-.426,2.684,2.684,0,0,0-.763-.525,2.51,2.51,0,0,0-.823-.149,2.716,2.716,0,0,0-1.041.208,6.487,6.487,0,0,0-1.769,1.17,2.08,2.08,0,0,1-1.333.574,1.755,1.755,0,0,1-1.367-.748,3.063,3.063,0,0,0-.719-.753,1.159,1.159,0,0,0-.634-.183c.961-2.409,2.477-7.022,2.914-8.826.257-1.046.5-2.1.773-3.122a4.3,4.3,0,0,1,1.417-2.478,3.4,3.4,0,0,1,1.115-.213,1.577,1.577,0,0,1,.545.084,10.424,10.424,0,0,1,1.605.922,3.842,3.842,0,0,0,1.888.714,7.894,7.894,0,0,0,2.974-.907c.114-.055.248-.129.391-.213a4.342,4.342,0,0,0,.5-.238l.139-.079a1.933,1.933,0,0,1,.787-.189,1.312,1.312,0,0,1,.461.08,1.173,1.173,0,0,1,.5.53,13.267,13.267,0,0,1,1.1,3.622c.213,1.229.53,3.2.942,4.733a7.345,7.345,0,0,0,.559,1.362,4.691,4.691,0,0,0,.337.551l.06.074a5.737,5.737,0,0,0,1.249,1.541Zm-.6,3.945h-1.982a7.955,7.955,0,0,0,.679-.754c.272-.346.5-.693.723-.991a5.007,5.007,0,0,0,.129.843,1.992,1.992,0,0,0,.377.788.855.855,0,0,0,.074.114Zm-4.584,0H183.9a3.03,3.03,0,0,0-.188-.5,4.893,4.893,0,0,1,.589.5Zm-1.457-.823a2.559,2.559,0,0,1,.555,1.293.394.394,0,0,1-.049.218v.035a1.412,1.412,0,0,1-.664.169,1.343,1.343,0,0,1-.813-.278,3.154,3.154,0,0,1-.768-.887,3.736,3.736,0,0,1-.188-.347,2.084,2.084,0,0,1,1.229-.411h.044l.4,1.11.535-.188Zm-2.254.823h-.625a2.267,2.267,0,0,0,.5-.263.577.577,0,0,0,.119.263Zm-1.888,0H177.66c0-.184.03-.392.04-.605v-.094l.084.074a2.744,2.744,0,0,0,.917.625Zm-2.141.178.461-1.392.119.069v.5a6.523,6.523,0,0,1-.075.837.578.578,0,0,1-.208.228c-.119.094-.257.168-.357.233a1.354,1.354,0,0,1-.292.084,2.356,2.356,0,0,1-.451.055h-.089a1.091,1.091,0,0,1-.615-.461.7.7,0,0,1-.1-.407,2.3,2.3,0,0,1,.461-1.3.628.628,0,0,1,.079-.084,1.806,1.806,0,0,1,.337-.084h.243a1.6,1.6,0,0,1,.293.034l.158.05-.5,1.486Zm-2.195-.178H173.26a4.109,4.109,0,0,0,.436-.317,9.243,9.243,0,0,1,.842-.645,2.725,2.725,0,0,0-.168.9s0,.045,0,.065Zm-7.929-3.281a17.919,17.919,0,0,0,3.062-4.172,30.434,30.434,0,0,0,2.131-5.793A4.407,4.407,0,0,1,173,72.2a7.707,7.707,0,0,0-.585,1.561c-.292,1.046-.5,2.1-.773,3.137a89.216,89.216,0,0,1-3.127,9.326,8.321,8.321,0,0,0-.411.724.991.991,0,0,1-.619.5.514.514,0,0,1-.124,0c-.189,0-.412-.153-.61-.679a7.17,7.17,0,0,1-.317-2.319Zm.208,3.281h-.5v-.991c.024.082.05.165.08.247a1.983,1.983,0,0,0,.406.744Zm1.487-16.388V81.451a17.4,17.4,0,0,1-1.383,1.868v-12Zm-1.383-1.3V57.526a.608.608,0,0,1,.208-.446.772.772,0,0,1,.5-.2.664.664,0,0,1,.669.619V70.039Zm1.383-19.416-1.4-2.1V37.392a.654.654,0,0,1,.664-.644h.005a.765.765,0,0,1,.5.2.61.61,0,0,1,.208.441Zm5.515,5.382a1.094,1.094,0,0,1,1.09,1.055l-.322.1.079.268a.466.466,0,0,1,0,.149c0,.178-.1.238-.257.252a.3.3,0,0,1-.3-.232l-.029-.09v-.119h.456v-.569h-.456v-.456h-.57v.456h-.456v.569h.456v.1l-.629.214a1.079,1.079,0,0,1-.184-.6,1.1,1.1,0,0,1,1.095-1.1h.025Zm-.054-.288v-.282c.094.1.193.2.3.3a1.409,1.409,0,0,0-.243,0Zm1.486,1.864v-.035l.283-.094.688,1.937-.242.09a.823.823,0,0,0-.689-.367.891.891,0,0,0-.9.867l-.307.1-.669-1.982.292-.094a.871.871,0,0,0,.714.372.843.843,0,0,0,.565-.214.8.8,0,0,0,.252-.584Zm-.163-1.016.436.292-.342.094a1.4,1.4,0,0,0-.1-.386Zm6.04-2.508h-.3a1.877,1.877,0,0,1-.218.5c-.139.223-.144.144-.4.5a2.49,2.49,0,0,0-.853-.45v-.5h-.243v.5h-.143v-.119h-.189v.2a.173.173,0,0,1-.341,0v-.218H178.1V54.6h-.148v-.521h-.273v.5a2.218,2.218,0,0,0-.763.386,1.2,1.2,0,0,1-.778-.951h-.169a9.947,9.947,0,0,1-.441-1.67c.179-.159.649-.6.63-.818a.745.745,0,0,0,.5.2.824.824,0,0,0,.654-.342.837.837,0,0,0,1.13-.2c.134.134.283.347.535.347a1.852,1.852,0,0,0,.595-.144.751.751,0,0,0,.654.342c.461,0,.5-.2.5-.2s.57.59.793.808a10.706,10.706,0,0,1-.541,1.724Zm.8,3.469v.416q-.336-.441-.669-.847c.233-.119.451-.253.669-.391a1.357,1.357,0,0,0-.059.406,1.429,1.429,0,0,0,.049.4Zm-.292.991a5.149,5.149,0,0,1-.654.59,1.775,1.775,0,0,0-.788,1.234.786.786,0,0,0,0,.168,8.393,8.393,0,0,0,.411,1.11c.342.813.843,1.938,1.323,2.9.238.5.5.922.684,1.269a2.256,2.256,0,0,0,.59.733,1.773,1.773,0,0,0,.694.407c.738.223,1.318.376,1.62,1.02l.5-.237a2.724,2.724,0,0,0-1.983-1.328l-.074-.03v-.139a14.09,14.09,0,0,1,.243-2.027l-.56-.1a16.735,16.735,0,0,0-.243,1.839,2.128,2.128,0,0,1-.233-.367,7.117,7.117,0,0,1-.555-2.478c-.079-.912-.089-1.779-.183-2.344l-.56.094c.1.565.1,1.675.228,2.78-.129-.272-.258-.55-.382-.822-.262-.58-.495-1.14-.679-1.571a8.4,8.4,0,0,1-.3-.8.4.4,0,0,1,0-.069c0-.213.233-.5.585-.8a7.628,7.628,0,0,0,.634-.555c2.161,2.943,4.331,6.67,4.747,8.459a2.266,2.266,0,0,1,.035.411,2.388,2.388,0,0,1-.991,1.858,4.045,4.045,0,0,1-.5.337V69.85a2.016,2.016,0,0,0-.356-1.224,2.1,2.1,0,0,0-.456-.416,2.6,2.6,0,0,0-1.3-.53h-.208a.573.573,0,0,1-.3-.208,14,14,0,0,1-1.764-4.079c-.5-1.61-.922-3.265-1.135-4.162a5.075,5.075,0,0,0,.58-.292,1.217,1.217,0,0,0,.545-.719,2.615,2.615,0,0,0,.084-.535,8.431,8.431,0,0,1,.689.808Zm1.615-2.477a1.095,1.095,0,1,1-1.095,1.095h0a1.1,1.1,0,0,1,1.07-1.12h.015Zm-.094-.283c.06-.059.124-.114.184-.178v.173h-.184Zm1.715-10.7v4.8a6.254,6.254,0,0,0-.991-2.086v-3.7A9.272,9.272,0,0,1,184.707,45.058Zm-.937-1.709.937-1.457v2.314a9.6,9.6,0,0,0-.937-.843Zm.937,14.232v4.683c-.312-.5-.644-1.041-.991-1.561V58.319a1.388,1.388,0,0,0,0-2.438V54.89a6.011,6.011,0,0,0,.991-2.037v3.771a1.356,1.356,0,0,0,0,.991Zm-1.541.892v1.4q-.417-.609-.843-1.189V58.25a1.363,1.363,0,0,0,.753.223Zm2.9,11.551a2.707,2.707,0,0,0,1.05-2.666,9.43,9.43,0,0,0-.54-1.522V58.4a1.388,1.388,0,0,0,.808-1.184V70.073Zm1.318,1.3v6.824c-.194-.991-.357-1.982-.5-2.7a18.615,18.615,0,0,0-.624-2.562,6.749,6.749,0,0,0-.54-1.254,3.733,3.733,0,0,0-.213-.317Zm-2.106-26.472V41.882l2.106,3.206v3.964a11.812,11.812,0,0,0-2.111-4.177Zm2.106,8.3v3.861a1.384,1.384,0,0,0-.808-1.185V48.4a14.572,14.572,0,0,1,.8,4.772Zm-1.378-6.115V55.7a1.377,1.377,0,0,0-.728.208V45.8a10.59,10.59,0,0,1,.728,1.238Zm-.728-6.209V38.849l2.1,3.236v1.982Zm0-3V34.335a1.02,1.02,0,0,1,1.03-.991,1.059,1.059,0,0,1,1.076.991v6.714Zm1.03-5.089a1.613,1.613,0,0,0-1.338.714,1.712,1.712,0,0,0-1.392-.714,1.843,1.843,0,0,0-1.17.431l2.622-3.969,2.349,3.583v.381a1.688,1.688,0,0,0-1.076-.406ZM186.005,56a1.1,1.1,0,1,1-1.095,1.1h0A1.1,1.1,0,0,1,186,56.015Zm0,2.478v6.095c-.223-.431-.466-.882-.728-1.348V58.265A1.377,1.377,0,0,0,186.005,58.473ZM183.1,70.217l-1.982,1.2a.965.965,0,0,1-.163-.084l2.036-1.313-.307-.5-2.111,1.363a.942.942,0,0,1-.06-.287L182.6,69.35l-.293-.5-1.571.942a1.436,1.436,0,0,1,.5-.5c.154-.089.173-.094,1.774-1.12h.06a3.513,3.513,0,0,1,.931.4,1.637,1.637,0,0,1,.565,1.234,1.226,1.226,0,0,1-.05.371l-1.263.773a5.453,5.453,0,0,0-.615.323,2.97,2.97,0,0,1-.5.158l1.259-.758Zm-4.921.5h-.168a1.527,1.527,0,0,1-1.313-1.616A1.486,1.486,0,0,1,178.21,67.8a1.988,1.988,0,0,1,.327.03l.174.029.1-.148a1.247,1.247,0,0,1,1.075-.58,1.966,1.966,0,0,1,.9.233,1.322,1.322,0,0,1,.684,1.11l-.2.129v-.03a1.193,1.193,0,0,0-.5-.947,1.206,1.206,0,0,0-.753-.267,1.322,1.322,0,0,0-1.219.812,1.145,1.145,0,0,0-.59-.158,1.3,1.3,0,0,0-1.283,1.07,1.514,1.514,0,0,0,0,.213,1.166,1.166,0,0,0,.366.877,1.231,1.231,0,0,0,.838.318,1.337,1.337,0,0,0,.253,0,1.332,1.332,0,0,0,1.3,1.258,1.157,1.157,0,0,0,.5-.1l.139-.074a1.759,1.759,0,0,0,.228.2,1.706,1.706,0,0,1-.5.164,2.263,2.263,0,0,1-.4.039,1.442,1.442,0,0,1-1.4-1.065Zm0,1.154-.252-.153c-.268-.164-.535-.342-.8-.5h.634a2.455,2.455,0,0,0,.431.694ZM170.782,56.01a1.1,1.1,0,1,1-1.095,1.095h0A1.1,1.1,0,0,1,170.782,56.01Zm-.045-.288V47.229a10.886,10.886,0,0,1,.793-1.368v10.1a1.36,1.36,0,0,0-.748-.223Zm.793,2.548v5.659l-.436.812c-.129.243-.248.5-.357.694V58.5h.045a1.373,1.373,0,0,0,.768-.232Zm-1.125,9.479V67.7a12.2,12.2,0,0,1,1.18-2.7c.594-1.125,1.348-2.438,2.126-3.677l.659,1.938,1.3-.456-.059-.253a.363.363,0,0,1,0-.114.306.306,0,0,1,.307-.307h.01c.119,0,.208.039.277.228l.089.272c-.332.947-.867,2.255-1.139,2.974a1.062,1.062,0,0,0-.263-.03,2.043,2.043,0,0,0-1.417.773,18.61,18.61,0,0,1,.639-2.914l-.53-.2a22.757,22.757,0,0,0-.907,5.5,2.606,2.606,0,0,0,.1.842,1.091,1.091,0,0,0,.991.813,2.609,2.609,0,0,0,1.487-.694,2.943,2.943,0,0,1-1.764,1.412.972.972,0,0,1-.3.045,2.976,2.976,0,0,1-1.873-1.021,3.215,3.215,0,0,1-.991-2.017,1.222,1.222,0,0,1,.079-.357Zm4.381-7.77a.317.317,0,0,1,.327-.3c.119,0,.2.035.268.233a.543.543,0,0,1,0,.114.318.318,0,0,1-.323.307c-.118,0-.2-.035-.272-.233a.369.369,0,0,1,0-.124Zm.272.922a.886.886,0,0,0,.892-.877l.273-.1.674,1.893-.149.049-.143.045a.846.846,0,0,0-.694-.367.881.881,0,0,0-.892.857l-.3.109-.64-1.893.293-.1a.825.825,0,0,0,.688.4Zm3.42-2.854h.267a1.769,1.769,0,0,0,1.487-.942,6,6,0,0,1-.094.9.628.628,0,0,1-.307.4c-.169.109-.422.213-.729.362l-.2.1.05.223c.054.243.133.575.232.957a1.1,1.1,0,0,1-.7.262,1.234,1.234,0,0,1-.853-.223c.114-.376.208-.708.273-.946l.069-.248-.238-.094a1.884,1.884,0,0,1-1.124-1.071,2.7,2.7,0,0,0-.09-.47,3.569,3.569,0,0,1,0-.387,2.188,2.188,0,0,0,1.968,1.185Zm-.714-2.325H179.1a.684.684,0,0,1-1.338,0Zm2.21,9.079c-.233-1.066-.52-2.513-.758-4.074l.159-.084c.228.892.53,1.982.862,3.033a13.248,13.248,0,0,1,.446,3.048,3.04,3.04,0,0,0-.307-.085h.029s-.208-.713-.431-1.838Zm-.728-.684a3.625,3.625,0,0,0-.243-.382.828.828,0,0,0-.614-.4.4.4,0,0,0-.129,0l-.1.03c.069-.5.213-1.646.242-2.478h.228c.2,1.179.407,2.294.6,3.226Zm-1.938-2.944.164-.5a1.52,1.52,0,0,0,.362.153c0,.456-.065,1.021-.119,1.522Zm.238,2.384-.238.069-.411-1.2.084-.025.164-.054Zm-.238-4.326c-.079.282-.183.649-.307,1.05l-.258-.728-.421-1.189a2.569,2.569,0,0,0,.961.867Zm-.5,4.747a4,4,0,0,0-.436.679,2.708,2.708,0,0,1-.5.733c.213-.55.5-1.273.748-1.937Zm-1.943,2.176a12.536,12.536,0,0,0-.926,1.105c-.233.307-.456.614-.64.882a6.053,6.053,0,0,1,.06-.644c.451-.783,1.05-1.319,1.471-1.343Zm1.294,2.79.034-.035v.139a2.29,2.29,0,0,0,0,.287,1.935,1.935,0,0,0,.555,1.353h-1.4a3.307,3.307,0,0,0,.778-1.744Zm.242-.892c-.178.123-.342.237-.47.337l-.164.133c-.03.04-.054.045-.089.094-.917.9-1.556,1.22-1.858,1.2-.223,0-.342-.1-.5-.446a1.133,1.133,0,0,1-.05-.258c.228-.292.625-.892,1.1-1.526a5.667,5.667,0,0,1,1.566-1.6,2.195,2.195,0,0,0,.916-1.08c.213-.407.431-.719.6-.753l.927-.268a.837.837,0,0,1,.173.193l-.624.268.223.525.688-.292a2.043,2.043,0,0,1,.095.223l-.679.277.213.525.654-.267a1.012,1.012,0,0,0,.064.233l-.629.233.2.53.53-.2v.1a.626.626,0,0,1-.029.223c-.308.1-1.333.6-1.938.922-.223.168-.609.421-.956.664Zm4.847-1.656c.084.189.168.362.253.531a4.345,4.345,0,0,0,.574.877,1.945,1.945,0,0,0,.213.2l-.247.159a1.848,1.848,0,0,0-.788-1.185v-.213s-.03-.228-.035-.372Zm-.634,2.716a2.023,2.023,0,0,0-.223.258l-.437-.035-.2.456.327.183a2,2,0,0,0-.119.635,1.488,1.488,0,0,0,.08.5l-.07.04a.615.615,0,0,1-.247.049.725.725,0,0,1-.5-.228.711.711,0,0,1-.223-.5.464.464,0,0,1,.124-.317l-.392-.412a.893.893,0,0,1-.55.2.6.6,0,0,1-.685-.487.538.538,0,0,1-.008-.113.926.926,0,0,1,0-.129.739.739,0,0,1,.718-.585.605.605,0,0,1,.57.4l.53-.2a.675.675,0,0,1-.025-.184.629.629,0,0,1,.223-.471.794.794,0,0,1,.5-.2.691.691,0,0,1,.674.635,1.222,1.222,0,0,1-.149.5Zm-7.582-13.246a1.385,1.385,0,0,0-.412,2.156l.412,1.214v2.126c-.317.495-.625,1.025-.917,1.536V57.506a1.4,1.4,0,0,0,.069-.426,1.341,1.341,0,0,0-.069-.421V52.645a6.047,6.047,0,0,0,.917,2.057Zm-.917-11.615V41.887l.966,1.486a9.441,9.441,0,0,0-.986.878Zm.917-.1v3.772a6.223,6.223,0,0,0-.917,2.1V45.1A9.474,9.474,0,0,1,173.037,44.146Zm-1.175-10.679a1.61,1.61,0,0,0-1.338-.713,1.684,1.684,0,0,0-1.075.391v-.317l2.364-3.627,2.606,3.964v.04a1.843,1.843,0,0,0-1.194-.446,1.718,1.718,0,0,0-1.388.708Zm-2.413.858a1.065,1.065,0,0,1,1.075-.991.991.991,0,0,1,1.03.95c0,.014,0,.027,0,.041v3.518l-2.106,3.206V34.325Zm2.1,4.559v1.982l-2.126,3.2V42.085Zm0,3v3.018a11.926,11.926,0,0,0-2.106,4.192v-4Zm-2.1,11.4a14.455,14.455,0,0,1,.733-4.653v7.23a1.384,1.384,0,0,0-.743.991V53.279Zm.733,5.075v8.305a4.531,4.531,0,0,0-.312.956,1.85,1.85,0,0,0-.069.5,3.351,3.351,0,0,0,.738,1.918h-1.12V57.368a1.385,1.385,0,0,0,.743.976Zm1.779,12.963a3.054,3.054,0,0,0,.788.322l-.1.085a5,5,0,0,0-1.561,2.571,36.516,36.516,0,0,1-1.66,4.827v-7.8Zm-3.231,15.615a2.143,2.143,0,0,1,.238-.416.267.267,0,0,1,.233-.109.6.6,0,0,1,.387.094,2.52,2.52,0,0,1,.574.614,2.669,2.669,0,0,0,.615.585h-2.617a2.144,2.144,0,0,0,.57-.748Zm18.643-55.2-2.106-3.206v-.991h.5V27h-.5v-.5h-.57V27h-.5v.57h.5v1.08l-2.319,3.528V25.539h4.995Zm-4.648,1.923a1.267,1.267,0,0,1,.842-.327,1.114,1.114,0,0,1,1.13,1.1h0v3.424l-2.324,3.523V34.369A1.043,1.043,0,0,1,182.73,33.661Zm1.982,5.223v1.982l-1.393,2.17a8.839,8.839,0,0,0-.931-.569v-.05Zm-1.541,4.732v3.469a6.536,6.536,0,0,0-.992-.842V42.992a8.355,8.355,0,0,1,.982.624Zm-8.648,2.741a6.378,6.378,0,0,0-.916.837V43.676a8.387,8.387,0,0,1,.916-.6Zm-.991-3.34-1.422-2.166V38.869l2.349,3.563a8.92,8.92,0,0,0-.927.585Zm-1.422-5.169V34.424a1.119,1.119,0,0,1,1.13-1.1,1.28,1.28,0,0,1,.847.327,1.069,1.069,0,0,1,.342.644v7.081Zm0-9.257V27.566h.5V27h-.5v-.5h-.56V27h-.5v.57h.5v1.025L169.444,31.8V25.539h4.98v6.59Zm-1.521-6.7h-1.165V16.668l-.352-.629V13.978h.5v-.57h-.5v-.5h-.584v.5h-.5v.57h.5v2.081l-.362.605v5.411l-3.335,5.035V13.472a40.679,40.679,0,0,1,5.793-1.576Zm-2.478,1.214V33.958l-1.388-2.106v-1.66h.5v-.57h-.5v-.5h-.555v.5h-.5v.57h.5v1.66l-1.377,2.1V28.14Zm-1.655,9.351,1.67,2.537v1.4a1.338,1.338,0,0,0-.714-.213,1.256,1.256,0,0,0-.956.441,1.26,1.26,0,0,0-.962-.441,1.291,1.291,0,0,0-.7.208V34.994Zm-.962,4.3a.668.668,0,0,1,.679.644v11.13l-1.377,2.1V37.4a.7.7,0,0,1,.7-.644Zm.962,12.389,1.67,2.537v4.846a1.278,1.278,0,0,0-.669-.193,1.332,1.332,0,0,0-.991.456,1.3,1.3,0,0,0-.991-.456,1.282,1.282,0,0,0-.684.2V51.674Zm-.991,7.76a.7.7,0,0,1,.694.644V70.059h-1.368V57.516a.684.684,0,0,1,.684-.634Zm.7,14.42V83.9l-.044.045V82.626l-1.333-2.369V71.322Zm-.911,11.546v5.1l-.679.594v-6.9Zm26.3,5.1v-5.1l.679-1.209v6.9Zm.461-60.918-3.33-5.04V16.664l-.357-.615V13.978h.5v-.57h-.5v-.5h-.575v.5h-.5v.57h.5v2.071l-.347.615v5.228h-1.154v-10a40.849,40.849,0,0,1,5.793,1.566Zm-4.633-4.589v2.508h-5V22.461Zm-5-.569V17.8a.609.609,0,0,1,.525-.644.5.5,0,0,1,.362.178.686.686,0,0,1,.168.466v4.079Zm1.63,0V17.8a.644.644,0,0,1,.644-.639.72.72,0,0,1,.5.2.628.628,0,0,1,.208.451v4.069Zm1.338-6.15v1.07a1.306,1.306,0,0,0-.694-.213,1.208,1.208,0,0,0-.917.431,1.076,1.076,0,0,0-.832-.431,1.048,1.048,0,0,0-.679.273V15.534l1.487-2.285Zm-3.117-5.56a.6.6,0,0,1,1.209.039v2.424l-1.214,1.848V10.221a.254.254,0,0,0,0-.039ZM180.47,1.391q1.487.059,2.973.2V7.045l-1.487-3.826L180.47,7.09Zm0,7.621V8.651l1.486-3.871,1.487,3.826V9.2a1.128,1.128,0,0,0-.6-.179,1.147,1.147,0,0,1-1.784,0,1.146,1.146,0,0,0-.61.179Zm0,1.214a.61.61,0,0,1,1.211-.142.591.591,0,0,1,0,.1V14.5l-1.214-1.853Zm1.209,5.308v1.357a1.105,1.105,0,0,0-.719-.287.99.99,0,0,0-.792.406,1.111,1.111,0,0,0-1.447-.233v-1.3l1.456-2.225Zm-2.973-1.1V8.988a.59.59,0,0,1,1.171-.141.569.569,0,0,1,0,.1V12.62ZM176.922,1.371h2.943V5.415L178.379,1.6,176.892,5.37Zm0,5.565,1.486-3.771L179.9,6.981v.991a1.121,1.121,0,0,0-.585-.169,2.071,2.071,0,0,1-2.363.179Zm0,2.012a.609.609,0,1,1,1.218-.033.562.562,0,0,1,0,.092v5.486l-1.214-1.848Zm1.214,6.586v1.248a1.137,1.137,0,0,0-.6-.178,1.156,1.156,0,0,0-.887.421,1.074,1.074,0,0,0-.822-.421,1.031,1.031,0,0,0-.679.273V15.534l1.486-2.285ZM175.163,14.5V10.212a.609.609,0,0,1,1.214-.11.673.673,0,0,1,0,.11v2.423ZM173.384,1.614c.991-.1,1.982-.164,2.973-.208V7.02L174.87,3.2l-1.486,3.875Zm0,7.046,1.486-3.875,1.487,3.821v.6a1.129,1.129,0,0,0-.61-.179,1.162,1.162,0,0,0-.892.421,1.149,1.149,0,0,0-.892-.421,1.126,1.126,0,0,0-.6.179Zm0,1.581a.6.6,0,0,1,1.209,0v4.272l-1.209-1.849Zm1.209,5.308v1.362a1.1,1.1,0,0,0-.719-.292,1.018,1.018,0,0,0-.8.416,1.2,1.2,0,0,0-.907-.416,1.291,1.291,0,0,0-.693.208v-1.09l1.62-2.478Zm-3.112-.838V11.738c.441-.075.887-.149,1.333-.208v1.115ZM144.929,61.788H143.5a1.383,1.383,0,0,0,0-2.478h1.422ZM142.3,59.31a1.383,1.383,0,0,0,0,2.478H140.97V59.31Zm-1.333-.872V55.787a.633.633,0,0,1,.243-.5.947.947,0,0,1,.609-.218.754.754,0,0,1,.8.7v2.666Zm.813,2.116a1.095,1.095,0,1,1,1.095,1.095A1.095,1.095,0,0,1,141.783,60.554Zm3.122-2.116H143.2V55.787a.768.768,0,0,1,.823-.7.989.989,0,0,1,.629.223.627.627,0,0,1,.253.5Zm0-3.647a1.6,1.6,0,0,0-.887-.273,1.441,1.441,0,0,0-1.106.5,1.405,1.405,0,0,0-1.085-.5,1.533,1.533,0,0,0-.862.263V53.4l1.943-2.973,1.982,3.028Zm0-2.349-1.71-2.617v-1.09h.5v-.57h-.5V47.67h-.57v.495h-.5v.57h.5v1.09l-1.655,2.538V48.3l3.935-5.629Zm0-10.758-3.935,5.629V40.539l-.431-.7-.441.7V62.665h4.8v12.78a40.891,40.891,0,0,1,0-46.829Zm0-16v1.943a41.456,41.456,0,0,0,0,48.791V89.989q-1.185-1.046-2.31-2.16A50.665,50.665,0,0,1,172.789,1.658V10.95c-.446.059-.892.134-1.333.208V4.369l-.436-.55-.426.55v6.938a41.2,41.2,0,0,0-5.8,1.541V11.361l-.635-1.085-.659,1.085v1.982q-1.922.744-3.746,1.665V13.492l-.867,1.412v.565a41.484,41.484,0,0,0-8,5.575V19.533l-.867,1.343v.966a41.38,41.38,0,0,0-3.806,4.093v-.253l-.639-1.09Zm13.077,65.412v-.579h.57v-.57h.58v.57h.565v.579h-.565v.546h-.58v-.565Zm-11.779-1.6v-.867h16.254l.991.867Zm9.024,1.6v-.579h.57v-.57h.579v.57h.565v.579h-.56v.546H155.8v-.565Zm-2.751,0v-.579h.57v-.57h.575v.57h.585v.579h-.58v.546h-.575v-.565Zm-2.75,0v-.579h.57v-.57h.58v.57h.565v.579h-.565v.546h-.58v-.565Zm2.5-61.422,1.045,1.595v5.654h-.763v-4.7l.268-.427-.55-.882-.55.882.267.427v4.7h-1.06V31.679Zm-1.333.991V21.812c.347-.317.7-.629,1.055-.931v8.191Zm7.993.991v5.267h-1.066v-4.7l.268-.427-.55-.882-.555.882.268.427v4.7h-.759V31.267l1.051-1.595Zm-1.051-2.577V16.688c.347-.2.7-.4,1.051-.594V30.613Zm-.991,24.966v1.105a11.392,11.392,0,0,0-1.486-.154v-.025l1.779-2.71,1.739,2.71v.788a8.735,8.735,0,0,0-1.487-.495V54.043Zm-1.486-.119V46.3a.859.859,0,0,1,.674-.3.772.772,0,0,1,.822.7v4.955Zm2.061-2.28V46.689a.7.7,0,0,1,.709-.7h0a.828.828,0,0,1,.545.213.655.655,0,0,1,.228.5v7.22Zm.719-6.2a1.293,1.293,0,0,0-.991.5,1.446,1.446,0,0,0-1.1-.5,1.479,1.479,0,0,0-.674.163v-.342l1.725-4.767,1.774,5.06v.114a1.391,1.391,0,0,0-.783-.238Zm-1.1-6.626-1.725,4.758V37.491h3.558v6.4Zm.213-15.362-1.061-1.61-1.041,1.591V18.4q1.022-.708,2.087-1.353Zm-1.061-.574,1.046,1.59v4.6l-.763,1.16V26.267h.5v-.58h-.5v-1.1h-.55v1.1h-.5v.57h.5v3.965l-.759-1.155v-4.6Zm-.282,8.384v5.659h-.744v-4.7l.268-.427-.55-.882-.55.882.267.427v4.7h-.763V31.267L154.88,29.7Zm-1.314-7.829-1.045-1.591L152.5,23.433V20.405q1.017-.832,2.091-1.606Zm-1.045-.555,1.045,1.59v4.6l-.758,1.155V26.262h.55v-.575h-.55v-1.1h-.57v1.1h-.5v.57h.5v3.965l-.758-1.16V24.468Zm.9,14.613V43.75l-1.779-4.916-1.784,4.956v-6.3Zm-1.779,3.023,1.779,4.911v.168a1.505,1.505,0,0,0-.674-.163,1.45,1.45,0,0,0-1.105.495,1.368,1.368,0,0,0-1.051-.495,1.322,1.322,0,0,0-.738.228v-.213Zm1.779,5.793v7.612l-1.487-2.28V46.684a.768.768,0,0,1,.823-.7.868.868,0,0,1,.664.317Zm-2.825-.3a.757.757,0,0,1,.763.7v4.956L150.9,53.938V46.654a.738.738,0,0,1,.723-.654Zm1.046,6.239,1.779,2.725a10.9,10.9,0,0,0-1.487.149V54h-.58v1.229a8.724,8.724,0,0,0-1.486.495v-.758Zm2.19,3.305c3.964,0,6.08,1.814,7.265,3.7a9.687,9.687,0,0,1,1.179,2.864,1.858,1.858,0,0,0-.857-.248h-.074a1.874,1.874,0,0,0-1.145.446,8.164,8.164,0,0,0-1.9-3.91,6.288,6.288,0,0,0-4.118-2.339h-.327a3.312,3.312,0,0,0-.659.06,6.741,6.741,0,0,0-3.816,2.289,8.092,8.092,0,0,0-1.952,3.88,1.955,1.955,0,0,0-2.012-.242,9.687,9.687,0,0,1,1.174-2.79c1.185-1.9,3.306-3.707,7.245-3.717Zm7.874,12.076V62.487a1.2,1.2,0,0,1,.446.228.831.831,0,0,1,.313.555V80.282l-.754,1.362V67.625Zm-1.486-11.64v1.293a7.928,7.928,0,0,0-1.423-1.06l1.705-2.636,1.982,2.973v4.2a9.961,9.961,0,0,0-.9-1.818,8.391,8.391,0,0,0-.8-1.086V55.96Zm.56-3V46.7a.772.772,0,0,1,.827-.7.993.993,0,0,1,.62.218.633.633,0,0,1,.242.495v8.841Zm1.68-7.285a1.55,1.55,0,0,0-.858-.257,1.448,1.448,0,0,0-1.1.495,1.34,1.34,0,0,0-1.749-.292l1.863-5.114Zm-1.606-6.129V14.627c.53-.233,1.07-.456,1.611-.669v30.07Zm-.57.158-1.566,4.336V15.653c.5-.268,1.041-.526,1.566-.768ZM160.489,46a.739.739,0,0,1,.749.7v6.288L159.751,55.3V46.684a.748.748,0,0,1,.738-.684Zm-3.726,39.554v.635l-.069.114v-2.89c.034-.495.059-1.09.084-1.665l.084.085.084.1a.491.491,0,0,1,.114.3,8.675,8.675,0,0,0-.282,1.67C156.743,84.39,156.763,85.044,156.763,85.554Zm-1.982-.2-.248-.069-.183-.055-.144-1.521,1.814.307a.458.458,0,0,1-.03.213v.1l-1.323-.233Zm-2.062-.6a17.838,17.838,0,0,1-1.922-.644,1.8,1.8,0,0,0-.645-.188,1.184,1.184,0,0,0-.059-.238c.941.228,2.973.738,3.632.9l.04.466C153.537,84.989,153.15,84.885,152.719,84.756Zm.288.674v2.3h-.991V85.148Zm-1.546-.47v2.765h-.991V84.588l.079.035a9.406,9.406,0,0,0,.907.342Zm-1.983-2.974a2.156,2.156,0,0,0-.53-.138v-18.5a.792.792,0,0,1,.342-.62,1.443,1.443,0,0,1,.634-.262V82.185Zm.451,3.469v1.229l-.183-.55Zm-.728.734.312,1.174a1.943,1.943,0,0,1-.808-.5,1.424,1.424,0,0,1-.361-1.05v-.055a7.472,7.472,0,0,1,.193-1.234c.089-.411.178-.738.178-.738a.27.27,0,0,0,0-.173s-.044-.124-.089-.3a2.354,2.354,0,0,1-.089-.56.374.374,0,0,1,0-.163c.119-.179.124-.179.253-.188a1.358,1.358,0,0,1,.446.114l.322.128a1.926,1.926,0,0,0-.1.63,2.978,2.978,0,0,0,.163.916.913.913,0,0,0-.074.194c-.079.3-.372,1.68-.372,1.685A.274.274,0,0,0,149.2,86.189Zm-1.061-2.478a11.05,11.05,0,0,0-.366,2.027v.069a1.981,1.981,0,0,0,.53,1.452,2.676,2.676,0,0,0,.58.446H147.61V62.432a.887.887,0,0,1,.753.862V81.937a.938.938,0,0,0-.3.332.88.88,0,0,0-.1.456,3.522,3.522,0,0,0,.183,1.011Zm.9-21.547a7.661,7.661,0,0,1,1.784-3.414,7.483,7.483,0,0,1,1.487-1.3,4.459,4.459,0,0,0-.451,1.07,14.356,14.356,0,0,0-.406,3.722,2.113,2.113,0,0,0-1.259-.412,2.162,2.162,0,0,0-1.15.357Zm12.79,6-.5.4-.52-.4Zm-.53-.57V63.344a.822.822,0,0,1,.327-.624,1.259,1.259,0,0,1,.53-.253v5.158Zm-.228,1.154-.892.689-.877-.674.758-.6h.253Zm-1.318,10.818v-4.39a3.7,3.7,0,0,0,.54-.075,1.646,1.646,0,0,0,.441-.119V86.6c-.327-.065-.659-.134-.931-.213h-.045V83.116a9.3,9.3,0,0,0,.53-2.076A2.189,2.189,0,0,0,159.756,79.568Zm.729-5.1a5.378,5.378,0,0,1-.917.149l-.5.044-.317-.822c0-.06.045-.2.283-.352a5.626,5.626,0,0,1,1.169-.5.5.5,0,0,1,.134,0,.321.321,0,0,1,.188.05l-.059.034a5.327,5.327,0,0,1-.541.228,1.06,1.06,0,0,0-.232.119.4.4,0,0,0-.189.332.41.41,0,0,0,0,.1.36.36,0,0,0,.179.223.426.426,0,0,0,.213.05,2.382,2.382,0,0,0,.812-.263,5.275,5.275,0,0,1,1.14-.421v.03a.339.339,0,0,1-.114.2,5.132,5.132,0,0,1-.664.436A4.774,4.774,0,0,1,160.485,74.469Zm-3.172,9.455a3.967,3.967,0,0,1,.218-1.249l.5.124-.615,3.276H157.3v-.5C157.333,85.034,157.313,84.37,157.313,83.924Zm-4.594-14.336.228-.109c.089-.04.194-.085.293-.119a3.2,3.2,0,0,0,.188.357,1.592,1.592,0,0,0,.951.788,2.9,2.9,0,0,0,.58.059,4.532,4.532,0,0,0,.862-.094c.085.094.214.243.357.431a3.38,3.38,0,0,1,.461,1.8l-1.031.436-.039-.04c-.407-.406-.863-.991-1.834-2.18l-.441.362.8.991-1.744,1.283c-.08-.2-.139-.342-.164-.4a4.917,4.917,0,0,1-.2-.659,5.086,5.086,0,0,1-.164-1.145,1.3,1.3,0,0,1,.134-.654c.4-.59.694-.976.768-1.105Zm-.718,0V68.4a1.216,1.216,0,0,0,.2.139,1.828,1.828,0,0,0,.867.208h.06v.04a4.633,4.633,0,0,0-.739.317.317.317,0,0,0-.089.074,3.057,3.057,0,0,1-.277.422Zm2.621-.317a3.406,3.406,0,0,0,.773.074h.337l-.039.58h-.08a3.735,3.735,0,0,1-.624.059,2.3,2.3,0,0,1-.461-.044,1.069,1.069,0,0,1-.585-.531,2.767,2.767,0,0,1-.178-.347c0-.044-.035-.079-.04-.1v-.039a3.743,3.743,0,0,0,.922.366Zm-.53-.788a1.43,1.43,0,0,0,.372-.3l.124.337.064.174a3.521,3.521,0,0,1-.54-.188Zm5.074-.877h-.991V63.344a.8.8,0,0,1,.342-.62,1.443,1.443,0,0,1,.634-.262Zm.412.569-.526.417-.54-.417Zm-.763.6-.63.5V68.28Zm.237.183.873.669-.887.7-.828-.634v-.055Zm-.272,1.551-.595.456v-.911Zm.238.184.892.689-.952.728-.768-.595v-.183Zm-.5,2.443a1.864,1.864,0,0,1-.134-.228l.565-.436.317.243a4.486,4.486,0,0,0-.555.277,1.225,1.225,0,0,0-.158.164Zm.629,2.106v3.667l-.991-1.11V75.633Zm-.441-2.973-.441.342a2.04,2.04,0,0,1-.094-.62v-.134Zm-.5,1.808-2.022.714.178-.525,1.745-.456Zm-.857-5.728a.754.754,0,0,1-.065-.183,1.5,1.5,0,0,1,0-.268,1.262,1.262,0,0,1,0-.213c0-.023,0-.046,0-.07a3.1,3.1,0,0,1,.238-.287l.06-.059v6.095l-.278.074-.074-.629v-.07a3.967,3.967,0,0,0-.555-2.17V69.305h.044a1.3,1.3,0,0,0,.377-.044.53.53,0,0,0,.372-.387.786.786,0,0,0,0-.168.726.726,0,0,0-.08-.313Zm-.58,5.223-.55.144-.189-.189.674-.282Zm.827-7.141-.1-.218c-.029-.059-.049-.119-.064-.158V66.02a2.3,2.3,0,0,0,.089-.441.632.632,0,0,0-.124-.372c-.084-.124-.2-.272-.3-.386a1.285,1.285,0,0,0,.208-.7,1.026,1.026,0,0,0-.416-.877,1.919,1.919,0,0,0-.263-.144v-.679a1.428,1.428,0,0,1,.634.263.791.791,0,0,1,.342.619Zm-.674-.9v.045s-.044.153-.084.371a.417.417,0,0,0,0,.05.54.54,0,0,0-.406.5,1.56,1.56,0,0,1,.53-.07l.183.4v.029l-.059.06-.035.039-.451.218a.7.7,0,0,1,.08.308c0,.158-.06.337-.372.579l.347.451.094-.079a.28.28,0,0,0,.055.129.362.362,0,0,1,.029.079.729.729,0,0,1-.2,0h-.228c-.1,0-.213,0-.842.05H155.4a1.86,1.86,0,0,1-.183-.149,6.132,6.132,0,0,1-.233-.6,3.147,3.147,0,0,0,.714-.5,4.422,4.422,0,0,0,.991-2.25c.128.179.218.288.277.377Zm-3.86,9.753a8.942,8.942,0,0,0,1.264.857h-.952V76.1l-.332-.812Zm-.431-1.244,1.843-1.363.248.292-1.595,1.571Zm1.393,1.244c-.209-.134-.392-.258-.5-.342l1.576-1.546.084.084.164.163Zm1.734-1.239.094.089-.634,1.878-.6-.357-.109-.064Zm-3.741.133.277.729.525,1.368a2.211,2.211,0,0,1,0,.282.9.9,0,0,1-.059.377,5.785,5.785,0,0,0-.545,2.775,1.184,1.184,0,0,0,.292.887.734.734,0,0,0,.312.178,2.75,2.75,0,0,0,.07.392,11.091,11.091,0,0,0,.5,1.516,3.266,3.266,0,0,0-.921-.282,2.658,2.658,0,0,0-.357,0h-.089Zm.787,4.792c.427-.084,1.413-.277,2.022-.436.5-.133,1.16-.332,1.546-.456,0,.109.03.223.04.332-.4.119-1.259.377-1.774.5s-1.4.292-1.853.377c0-.085.01-.189.019-.293Zm1.879-.991c-.5.134-1.314.3-1.794.392a3.964,3.964,0,0,1,.386-1.165,1.2,1.2,0,0,0,.124-.5h1.9l.094.054.268.169a1.971,1.971,0,0,1,.535.5.541.541,0,0,1,.05.1c-.372.129-1.056.342-1.552.471ZM155.836,76l.164-.5,2.478-.863.094.248Zm1.645-.054.164-.065V77.1a.967.967,0,0,1-.164-.342Zm.4,2.348,1.224,1.388-.392.312L157.5,78.562Zm.386,2.057-.3.238-1.08-.991a.5.5,0,0,0,.049-.094,2.031,2.031,0,0,0,.075-.58h.034Zm-.753.6-.426.337c-.089-.085-.188-.179-.307-.273v-.723Zm1.095,1.982.57.134c-.079.242-.163.5-.252.728-.318.907-.635,1.739-.759,2.062l-.119.059Zm.585,1.8v1.407a1.652,1.652,0,0,0-.416-.292c.1-.273.248-.655.411-1.12Zm-1.6-2.627a1.083,1.083,0,0,0-.144-.376l2.017-1.6a1.658,1.658,0,0,1,.158.322L157.9,81.793l1.561.4-.1.337Zm1.57-.59.55-.426a3.538,3.538,0,0,1-.109.54Zm1.983-8.424v-.03A.627.627,0,0,0,161,72.7l.312-.238.57.436a2.577,2.577,0,0,0-.733.188Zm-.387-.575a1,1,0,0,0-.391-.084,1.035,1.035,0,0,0-.293.045c-.134.039-.287.089-.446.148l-.391-.3.916-.748.892.684Zm-.605-1.3-.891-.689.921-.693.892.683Zm.57-3.593h-.991V62.457a1.45,1.45,0,0,1,.635.267.792.792,0,0,1,.342.62Zm-1.258-5.763a2.084,2.084,0,0,0-1.264.412,14.642,14.642,0,0,0-.391-3.772,4.332,4.332,0,0,0-.456-1.08,7.282,7.282,0,0,1,1.536,1.353,7.722,7.722,0,0,1,1.734,3.419,2.136,2.136,0,0,0-1.144-.332Zm-1.839.4a2.1,2.1,0,0,0-1.254-.4,2.291,2.291,0,0,0-1.243.327V56.624c1.214.094,1.784.843,2.15,2.032a14.038,14.038,0,0,1,.362,3.608Zm-1.541.183V63a1.986,1.986,0,0,0-.525.079,2.386,2.386,0,0,0-.4-.119.725.725,0,0,1,.268-.3,1.557,1.557,0,0,1,.669-.213Zm-.659,1.194.1.045.1-.03a1.576,1.576,0,0,1,.461-.084.891.891,0,0,1,.525.188.385.385,0,0,1,.144.253,3.592,3.592,0,0,0-.852-.084h-.258V64.5h.233a2.865,2.865,0,0,1,.738.08.622.622,0,0,1-.257.208l-.07.03a1.361,1.361,0,0,0-.381-.045h-.293v.57h.293a.844.844,0,0,1,.188,0,3.57,3.57,0,0,1-.773,1.749,1.665,1.665,0,0,1-.9.5h-.258l-.089.168a.857.857,0,0,1-.446.337,1.4,1.4,0,0,1,.188-.669l-.5-.267a1.984,1.984,0,0,0-.258.936v.134a1.586,1.586,0,0,1-.218,0v-.164a1.779,1.779,0,0,1,.268-.991l-.466-.327a2.246,2.246,0,0,0-.367,1.2.873.873,0,0,1-.173-.555,1.318,1.318,0,0,1,.3-.848l.079-.084v-.2a2.891,2.891,0,0,1,.57-1.982,2.321,2.321,0,0,1,1.635-.783,1.788,1.788,0,0,1,.734.158Zm-3.409,1.536V63.334a.794.794,0,0,1,.342-.615,1.453,1.453,0,0,1,.634-.267v1.06a3.03,3.03,0,0,0-.342.308,2.666,2.666,0,0,0-.624,1.357Zm1.546-1.982v-.743a1.549,1.549,0,0,1,.649.218.759.759,0,0,1,.253.263,2.737,2.737,0,0,0-.892.247Zm.991-.991a2.3,2.3,0,0,0-1.244-.327,2.1,2.1,0,0,0-1.254.4,13.842,13.842,0,0,1,.382-3.558c.367-1.179.941-1.942,2.136-2.071Zm-3.092,10.407v9.811a3.982,3.982,0,0,1-.555.055.969.969,0,0,1-.342-.05l-.08-.029V62.457a1.442,1.442,0,0,1,.635.262.792.792,0,0,1,.342.62V70.47a1.907,1.907,0,0,0-.179.867,5.6,5.6,0,0,0,.174,1.288Zm-1.353,10.252.262.095a1.621,1.621,0,0,0,.531.084c.416,0,.793-.1,1.184-.1a2.211,2.211,0,0,1,.282,0,2.722,2.722,0,0,1,.992.352,2.471,2.471,0,0,1,.282.183l.04.5c-.843-.208-2.83-.7-3.613-.891a1.349,1.349,0,0,1,.04-.2Zm4.326.313-.288-.05c-.064-.159-.168-.436-.287-.753a9.81,9.81,0,0,1-.411-1.318l-.06-.332.456-.1ZM154.4,80.5l.5-.119.143-.035.278,2.973-.263-.044Zm-.832,5.079.252.069.149.055c.139.049.342.114.57.178V87.72h-.991Zm2.309-.679a1.752,1.752,0,0,1-.055.213.566.566,0,0,1-.247.317.443.443,0,0,1-.154,0h-.059l-.06-.644Zm-.763,1.09a2.247,2.247,0,0,0,.307,0,.812.812,0,0,0,.5-.128,1.257,1.257,0,0,0,.183-.159V87.68h-.991Zm.991-2.532-.208-.035-.3-3.24c.2-.06.387-.119.55-.174l.095-.035c0,.387,0,.992-.045,1.606s-.074,1.363-.109,1.9Zm-.342-3.92c-.991.327-2.641.669-2.731.684a.162.162,0,0,1-.114-.044.505.505,0,0,1-.109-.3c.407-.074,1.418-.272,1.983-.406.5-.119,1.214-.332,1.655-.466a1.943,1.943,0,0,1-.03.263,3.085,3.085,0,0,1-.669.292Zm.441-3.077.718-.292v.292Zm.778.57a2.585,2.585,0,0,0,.367.609l.168.213-.535.382a3.022,3.022,0,0,0-.268-1.09,1.046,1.046,0,0,0-.084-.114Zm.163,9.584a1.409,1.409,0,0,0,.243,0,2.2,2.2,0,0,0,.991-.273.31.31,0,0,0,.109-.025h.055a1.22,1.22,0,0,1,.258.194,2.154,2.154,0,0,0,.837.371,19.645,19.645,0,0,0,2.344.446c-.03.094-.025.09-.079.119a1.307,1.307,0,0,1-.5.075,5.169,5.169,0,0,1-.609-.025,15.181,15.181,0,0,1-1.769-.149.957.957,0,0,0-.214,0,18.807,18.807,0,0,0-1.878.2c-.034,0-.084,0-.1-.2a.267.267,0,0,1,0-.04,1.642,1.642,0,0,1,.3-.683Zm4.168.069V74.667l.094-.059a4.887,4.887,0,0,0,.768-.5V86.843c-.208-.04-.54-.085-.877-.159Zm.748-14.024-.52-.4.644-.5v.258a1.676,1.676,0,0,1-.139.654Zm-.758-.585-.892-.683.912-.7.862.664V71.4Zm.258-1.57.624-.5v.956Zm-.238-.184-.892-.689.892-.688.857.659v.049Zm.238-1.556.619-.5v.956ZM150.014,55.247l-1.487-2.275V46.7a.708.708,0,0,1,.718-.7h0a.829.829,0,0,1,.546.213.658.658,0,0,1,.228.495Zm0-11.2-1.566-4.331V24.245q.762-.818,1.566-1.6Zm0,1.606a1.419,1.419,0,0,0-.754-.223,1.3,1.3,0,0,0-1.015.495,1.489,1.489,0,0,0-1.11-.495,1.647,1.647,0,0,0-.848.238l1.868-5.164Zm-2.136-6.13-1.67,4.618V26.847q.8-1.026,1.67-1.982Zm-1.417,6.7A1.036,1.036,0,0,1,147.1,46a.782.782,0,0,1,.842.7v6.288l-1.739,2.686V46.7a.624.624,0,0,1,.253-.476Zm1.8,7.354,1.715,2.611a7.877,7.877,0,0,0-1.432,1.056V55.9h-.595v1.927a8.608,8.608,0,0,0-.827,1.111,10.1,10.1,0,0,0-.912,1.873V56.7Zm-1.194,8.87V87.72h-.857V63.289a.846.846,0,0,1,.837-.837Zm16.011,25.521v-5.1l.649-1.179v6.863Zm15.362,14.7a50.442,50.442,0,0,1-32.6-11.893h2.195l1.586,1.363h10.312l1.487-1.333h2.3a41.56,41.56,0,0,0,29.451,0h2.284l1.452,1.333h10.169l1.595-1.333h2.374a50.44,50.44,0,0,1-32.617,11.868Zm20.828-72.993,1.026,1.595v5.654h-.759v-4.7l.268-.427-.55-.882-.55.882.268.422v4.7h-.992V31.594Zm-1.293.906V16.113c.341.189.678.377.991.57V29.072Zm7.988,1.14v5.2h-1.09v-4.7l.267-.427-.55-.882-.55.882.268.427v4.7h-.759V31.267l1.046-1.571Zm-1.09-2.646V20.851c.371.312.728.634,1.09.961v8.875Zm-.992,24.951v1.115a11.321,11.321,0,0,0-1.516-.144v-.025l1.779-2.71,1.819,2.77v.728a8.824,8.824,0,0,0-1.512-.495V54.033Zm-1.516-.1V46.3a.855.855,0,0,1,.669-.3.769.769,0,0,1,.823.694v4.955Zm2.066-2.275V46.689a.709.709,0,0,1,.719-.694.914.914,0,0,1,.575.218.67.67,0,0,1,.233.386v7.379Zm.719-6.209a1.3,1.3,0,0,0-.991.495,1.446,1.446,0,0,0-1.095-.495,1.481,1.481,0,0,0-.669.163v-.114l1.789-4.955,1.8,4.99V45.7a1.486,1.486,0,0,0-.837-.272Zm-.991-6.591L202.368,43.8V37.491h3.593v6.343Zm.149-15.411-1.041-1.591-1.046,1.591V18.794q1.071.768,2.092,1.6Zm-1.041-.555,1.046,1.59v4.6l-.759,1.155V26.262h.5v-.575h-.5v-1.1h-.57v1.095h-.5v.57h.5v3.965l-.763-1.155V24.468Zm-.283,8.389v5.654h-.763v-4.7l.268-.427-.55-.882-.55.882.267.427v4.7h-.768V31.267l1.046-1.571Zm-1.328-7.834-1.045-1.591-1.046,1.591V17.02q1.065.645,2.091,1.353Zm-1.045-.555,1.045,1.59v4.6l-.763,1.16V26.267h.545v-.58h-.545v-1.1h-.6v1.095h-.5v.57h.5v3.965l-.759-1.155V24.468Zm.9,14.613V43.71l-1.745-4.821-1.779,4.92V37.491Zm-1.745,3.068,1.745,4.821v.213a1.485,1.485,0,0,0-.669-.163,1.444,1.444,0,0,0-1.095.495,1.3,1.3,0,0,0-.991-.495,1.328,1.328,0,0,0-.739.233v-.179Zm1.745,5.743v7.612l-1.487-2.275V46.684a.768.768,0,0,1,.823-.694.867.867,0,0,1,.654.312Zm-3.524.4a.734.734,0,0,1,.739-.7.707.707,0,0,1,.718.7h0v4.955l-1.457,2.225Zm1.745,5.54,1.779,2.71v.02a11.239,11.239,0,0,0-1.487.144v-1.1h-.57v1.214a9.1,9.1,0,0,0-1.486.471V54.87Zm2.254,3.305a7.912,7.912,0,0,1,7.235,3.726,9.806,9.806,0,0,1,1.16,2.751,1.912,1.912,0,0,0-.793-.159,1.818,1.818,0,0,0-1.2.416,8.112,8.112,0,0,0-1.953-3.88,7.018,7.018,0,0,0-3.379-2.2,3.6,3.6,0,0,0-1.095-.154h-.327a6.305,6.305,0,0,0-4.123,2.339,8.193,8.193,0,0,0-1.9,3.89,1.764,1.764,0,0,0-1.15-.426,1.874,1.874,0,0,0-.907.243,9.684,9.684,0,0,1,1.175-2.854c1.154-1.878,3.27-3.687,7.245-3.7Zm3.246,35.531V90.5h.565v-.57h.58v.57h.565v.58h-.565v.565h-.58v-.565Zm-11.873-1.606.991-.867H210.6v.867Zm9.093,1.606V90.5h.565v-.57h.58v.57h.565v.58h-.545v.565h-.58v-.565Zm-2.755,0V90.5h.6v-.57h.579v.57h.565v.58h-.565v.565h-.579v-.565Zm-2.75,0V90.5h.565v-.57h.579v.57h.565v.58h-.54v.565h-.58v-.565Zm1.63-26.264v3.84a1.668,1.668,0,0,1-.808,1.546l-.054-.039a8.072,8.072,0,0,0-1.3-.555,1.017,1.017,0,0,0-.357-.07.67.67,0,0,0-.7.61h-.03l-.133-.065a1.711,1.711,0,0,1-.585-1.412v-3.84Zm-3.964-.57V62.452a.99.99,0,0,1,.877.892v.9Zm14.371,19.648a.621.621,0,0,0-.318-.218l-.223-.084V63.344a.9.9,0,0,1,.843-.882V87.735h-.843V86.119l.412-.783a2.162,2.162,0,0,0,.272-.951.816.816,0,0,0-.138-.5Zm-.456.342a.313.313,0,0,1,.034.159,1.62,1.62,0,0,1-.2.684L207.1,87.452h-2.27a.284.284,0,0,1,.049-.1,1.492,1.492,0,0,1,.565-.317c.263-.1.5-.159.5-.164l.124-.034.877-1.75c.089-.074.317-.257.58-.441a2.349,2.349,0,0,1,.9-.446c.1.01.094.01.109.01Zm-.654,2.973v.541h-.283Zm-3.563.541h-.5V84.454l.991.248v1.982a1.177,1.177,0,0,0-.376.322.788.788,0,0,0-.149.451.636.636,0,0,0,.035.273ZM203.072,83.7l.193-.53,3.573,1.288-.188.149Zm-2.245-1.472a1.218,1.218,0,0,1,0-.148v-.164l2.17.218-.5,1.4-.357-.089h-.094l.342-1.026Zm.153,4.837v-.179a3.828,3.828,0,0,0-.084-.8,3.579,3.579,0,0,1-.109-.887v-.584a7.629,7.629,0,0,0-.044-1.041l.128.084a3.3,3.3,0,0,0,.778.288v3.8h-.862a1.108,1.108,0,0,0,.179-.63Zm-5.56.659h-.792v-16.4c.148.1.322.213.5.322l.377.228V86.684a.281.281,0,0,0-.322.218.643.643,0,0,0,0,.164.993.993,0,0,0,.242.664Zm0-16.581a5.522,5.522,0,0,1-.673-.461.264.264,0,0,1-.1-.173.128.128,0,0,1,0-.055,2.686,2.686,0,0,1,.432.173c.237.114.5.253.683.342a2.136,2.136,0,0,0,.759.238.449.449,0,0,0,.218-.054.383.383,0,0,0,.178-.233.47.47,0,0,0,0-.075.393.393,0,0,0-.2-.336c-.228-.134-.5-.174-.778-.323h-.03s0-.049.129-.054a.481.481,0,0,1,.163.035,8.208,8.208,0,0,1,1.2.5.52.52,0,0,1,.277.357l-.267.605-.59-.05-.575-.04h-.218c-.109-.079-.347-.208-.6-.381Zm5.328.594-.129.357-2.4-.832.07-.159Zm-2.439-1.2a2.4,2.4,0,0,0,.293-.277V70.6Zm.293-6.288h-.991V62.457a1.446,1.446,0,0,1,.634.267.789.789,0,0,1,.342.62Zm1.541,3.082V71l-.991-.253v-7.4a.789.789,0,0,1,.342-.62,1.419,1.419,0,0,1,.629-.262v2.785a1.217,1.217,0,0,0-.287.223,1.123,1.123,0,0,0-.273.763,1.52,1.52,0,0,0,.575,1.09Zm.961-2.408v.069h-.029a1.36,1.36,0,0,0-.278.03h-.069v-.332a4.053,4.053,0,0,0,.371.233Zm-.391-.8v-1.66a1.52,1.52,0,0,1,.887.406l-.089.07a1.078,1.078,0,0,0-.293.282c-.223.327-.332.649-.51.9Zm.178,1.457a.954.954,0,0,1,.169,0,.64.64,0,0,1,.431.183,1.324,1.324,0,0,0,.709.347h.109a1.246,1.246,0,0,0,.862-.411,1.024,1.024,0,0,0,.411.238,1.97,1.97,0,0,1-1.853,1.288h-.154a2.529,2.529,0,0,1,.228-.267l-.411-.392a3.415,3.415,0,0,0-.451.585,1.05,1.05,0,0,1-.288-.119l.07-.094a5.2,5.2,0,0,1,.441-.531l-.4-.4a5.684,5.684,0,0,0-.5.61.719.719,0,0,1-.1-.337.551.551,0,0,1,.129-.387,1.041,1.041,0,0,1,.594-.312Zm4.406-2.037a1.081,1.081,0,0,1,.376.5,2.1,2.1,0,0,1,.218.872,1.38,1.38,0,0,1-.024.248,2.413,2.413,0,0,1-.268-.57l-.545.163a3.158,3.158,0,0,0,.466.907,1.329,1.329,0,0,1-.169.084,2.851,2.851,0,0,1-.5-.892l-.55.154a2.979,2.979,0,0,0,.356.778,1.193,1.193,0,0,1-.272-.124,1.268,1.268,0,0,1-.164-.119l-.049-.044-.1-.109h-.228c-.213,0-.392-.124-.5-.436a.339.339,0,0,1,0-.09,3.133,3.133,0,0,1,.377-.822l.1-.243-.228-.119a6.783,6.783,0,0,1-.793-.391.789.789,0,0,1-.421-.669.106.106,0,0,1,0-.05.581.581,0,0,1,.193-.243,1.474,1.474,0,0,1,.58-.272,3.363,3.363,0,0,1,.748-.09,1.456,1.456,0,0,1,1.061.362.636.636,0,0,1,.223.466,2.421,2.421,0,0,1-.085.446l-.034.213Zm.5-.877a1.377,1.377,0,0,1,.55-.2v1.69a2.8,2.8,0,0,0-.153-.387,1.9,1.9,0,0,0-.446-.6,1.672,1.672,0,0,0,.049-.372.745.745,0,0,0-.02-.124ZM200.242,84.6v.585a4.116,4.116,0,0,0,.1,1.02v.129l-.188-.114-1.407-5.485.55-.214.436,1.165a7.4,7.4,0,0,1,.5,2.914Zm-.406-4.3.307-.128V81.1Zm-2.26.873.639-.248,1.269,4.9-.258-.149Zm1.08,4.6a6.578,6.578,0,0,1-1.04.649V82.958Zm-1.684-4.6.079.213v5.257a3.439,3.439,0,0,1-.833.1h-.138V72.09c.208,0,.495.04.787.055h.189v6.239a2.068,2.068,0,0,0-.7,1.486,1.727,1.727,0,0,0,.62,1.309Zm-.07-1.234a.338.338,0,0,1,0-.045,1.186,1.186,0,0,1,.193-.659l.5.406Zm1.814-.144-1.269-.991c.084-.089.184-.183.293-.278.252.213.8.684,1.07.952a1.894,1.894,0,0,1,.342.471h-.05l-1.833.713a1.31,1.31,0,0,1-.169-.2Zm.5-2.527a9.538,9.538,0,0,1,1.566-1.046l.293-.154-.055.432L198.4,78.349l-.243-.208Zm-.064-.674V73.086l.991.4v2.477a10.182,10.182,0,0,0-.971.635Zm5.525-9.738.194.342.034.03-2.18.694a.64.64,0,0,0-.074-.2Zm-.837-.257a3.978,3.978,0,0,0,.277-.471,2.087,2.087,0,0,0,.2.1l.074.129Zm.173,5.857.58-.411.114.094.178-.169s.129-.124.308-.317c-.095.268-.174.5-.238.694Zm.744.495c-.06.184-.095.308-.114.377l-2.072.193.035-.059.441-.307Zm-2.31-.079-.307-.421,1.407-1.234.585.466Zm2.384.991c.049.08.109.174.168.278s.114.2.164.307l-3.33.312.079-.619ZM205.351,75v.05a.766.766,0,0,0,.025.237l-3.667.367.04-.322Zm.1.857.035.3-.416.039-3.469.327.035-.287Zm-.094,2.161c.188-.605.293-1.036.347-1.284h.431l-.04-.307s-.1-.778-.168-1.417a4.059,4.059,0,0,0-.719-1.581,1.494,1.494,0,0,1,.095-.307c.1-.317.272-.823.54-1.581a8.872,8.872,0,0,0,.4-1.581c.045-.292.074-.56.089-.793V82.685c-.163-.094-.351-.2-.55-.3l-.426-.213Zm.763-10.288a6.555,6.555,0,0,0-.8-.892l-.272-.5a1.627,1.627,0,0,0,.8-.268,1.259,1.259,0,0,0,.5-.575v2.681a1.107,1.107,0,0,0-.228-.46Zm-.763-.044a3.993,3.993,0,0,1,.293.367.729.729,0,0,1,.113.218v.376a7.639,7.639,0,0,1-.094,1.17A3.522,3.522,0,0,1,205,70.985c-.129.164-.257.3-.352.4l-1.912-1.551.778-1.576Zm-2.587.817-.738,1.487.124.1-.174.174c-.034-.134-.069-.273-.094-.387a1.557,1.557,0,0,1-.029-.3.66.66,0,0,1,.148-.441c.1-.139.288-.312.5-.565Zm-.168,1.948.5.391-1.318,1.13-.3-.406Zm-.922-1.8-.129.154a1.243,1.243,0,0,0-.262.783,2.222,2.222,0,0,0,.044.406c.045.243.134.56.189.748l-.5.5-.327-.084V67.65a1.724,1.724,0,0,0,.292.07,6,6,0,0,0,.669.059Zm-.461,3.469.828,1.125a.766.766,0,0,1-.416.317h-.124a.863.863,0,0,1-.575-.218.956.956,0,0,1-.119-.119Zm.114,2.012-.153,1.254c-.109.044-.268.123-.461.223v-1.7a1.422,1.422,0,0,0,.6.238Zm-2.2,4.822-.258-.238,2.275-1.6h.055l-.11.615Zm2.017,1.486.268-1.318.366-2.081.674-.065-1.065,4.391-.421-.04Zm1.913-3.523.783-.075-1.487,4.614-.362-.035Zm1.4-.129.659-.064a1.039,1.039,0,0,1-.054.213c-.1.391-.268.991-.535,1.749a21.624,21.624,0,0,1-.877,2.091c-.164.342-.3.615-.387.778l-.362-.035Zm.337,2.82v2.259a4.368,4.368,0,0,0-.8-.213h-.123c.2-.426.574-1.169.911-2.017Zm-1.184,2.611.287.045a5.563,5.563,0,0,1,1.616.6c.5.268.912.531,1.14.635s.609.247.991.4l-.253.154-3.964-1.423Zm-3.182-9.569-.109.3-2.408-.991.074-.173Zm-1.833.218V77.08c-.372.308-.694.57-.991.813V72.457Zm-2.384,14.46a3.473,3.473,0,0,0,1.487-.3,7.1,7.1,0,0,0,1.318-.8l1.388.813v.03a.565.565,0,0,1-.085.312,6.87,6.87,0,0,0-.778-.06h-.332c-.951.07-1.328.248-1.937.248h-.154c-.788-.03-1.08-.079-1.239-.253a.43.43,0,0,1-.059-.069.884.884,0,0,0,.4.064Zm4.163-7.929a4.843,4.843,0,0,1-.654.323h-.035a2.61,2.61,0,0,0-.193-.332l1.447-.907-.089.5a1.637,1.637,0,0,1-.466.431Zm.53,3.405.729.079-.129.4a2.277,2.277,0,0,1-.337-.144.573.573,0,0,1-.258-.322ZM203.22,84.3v3.419h-.991V84.048Zm3.078.778-.63,1.258a1.372,1.372,0,0,0-.327.1V84.851Zm1.566-1.73c-.387-.149-.8-.312-.991-.386V62.442a1.433,1.433,0,0,1,.634.263.788.788,0,0,1,.342.619Zm-1.259-21.5a2.146,2.146,0,0,0-1.041.253,1.442,1.442,0,0,0-.168-.2l-.055-.05a11.361,11.361,0,0,0-.5-3.89,3.144,3.144,0,0,0-.164-.371,7.49,7.49,0,0,1,1.294,1.164,7.641,7.641,0,0,1,1.784,3.414,2.157,2.157,0,0,0-1.145-.307Zm-1.844-.342a2.483,2.483,0,0,0-.842-.138,3.938,3.938,0,0,0-.872.1,1.975,1.975,0,0,0-.8.381V56.619a4.06,4.06,0,0,1,.466.07l.114.029a2.23,2.23,0,0,1,1.487,1.452,10,10,0,0,1,.441,3.35Zm-2.264,2.24a3.8,3.8,0,0,0,.58.3,1.57,1.57,0,0,0-.288.8.914.914,0,0,0,.03.233v.07c-.114.153-.352.366-.55.351h0a.807.807,0,0,1-.421-.227,1.611,1.611,0,0,0-.2-.139,2.784,2.784,0,0,1,.055-.362.287.287,0,0,0-.154-.287l-.3-.149c.154-.238.248-.456.357-.644v.456a.579.579,0,0,0,.352.119.884.884,0,0,0,.381-.055.625.625,0,0,0-.168-.253,1.349,1.349,0,0,0-.535-.267c.029-.05.059-.114.089-.159a.544.544,0,0,1,.158-.148,1.772,1.772,0,0,0,.164-.134,1.565,1.565,0,0,0,.451.51Zm-2.076-1.9a2.112,2.112,0,0,0-1.249.4,14.04,14.04,0,0,1,.371-3.608c.362-1.184.932-1.928,2.131-2.027v5.58a2.417,2.417,0,0,0-1.244-.332Zm-1.438-3.364a14.581,14.581,0,0,0-.391,3.776,2.1,2.1,0,0,0-1.259-.412,2.133,2.133,0,0,0-1.149.327,7.7,7.7,0,0,1,1.729-3.419,7.283,7.283,0,0,1,1.531-1.353,4.4,4.4,0,0,0-.451,1.095Zm-2.576,4.227a1.428,1.428,0,0,1,.634-.263v1.784h-.991v-.887a.79.79,0,0,1,.367-.625Zm13.439,25.01V62.447a.946.946,0,0,1,.5.228.779.779,0,0,1,.228.441v24.6Zm-.164-28.742a8.993,8.993,0,0,0-.812-1.11V55.886h-.57v1.373a8.013,8.013,0,0,0-1.447-1.086l1.714-2.611,2.032,3.1v4.177a10.36,10.36,0,0,0-.892-1.868Zm-.822-5.991V46.7a.782.782,0,0,1,.842-.694,1.052,1.052,0,0,1,.649.223.629.629,0,0,1,.253.451v8.969Zm1.709-7.289a1.644,1.644,0,0,0-.867-.253,1.488,1.488,0,0,0-1.115.495,1.293,1.293,0,0,0-.991-.495,1.351,1.351,0,0,0-.728.213l1.848-5.144Zm-1.561-6V24.89q.828.931,1.6,1.917V44.1Zm-.57-.1-1.6,4.436v-21.4q.822.794,1.6,1.635Zm-.862,6.442a.709.709,0,0,1,.719.694v6.259l-1.457,2.22V46.634a.743.743,0,0,1,.733-.634Zm-12,.7a.71.71,0,0,1,.718-.7h0a.9.9,0,0,1,.574.219.641.641,0,0,1,.248.495v8.657l-1.531-2.378V46.7Zm1.536-2.591-1.605-4.46V14.9q.811.377,1.605.788Zm-.044,1.556a1.477,1.477,0,0,0-.773-.233,1.284,1.284,0,0,0-.991.495,1.455,1.455,0,0,0-1.1-.495,1.561,1.561,0,0,0-.827.237l1.858-5.138Zm-2.131-6.026-1.611,4.46V13.948c.54.213,1.081.431,1.611.669Zm-1.373,6.585a1,1,0,0,1,.62-.218.774.774,0,0,1,.822.694v6.254l-1.685,2.567V46.679a.636.636,0,0,1,.238-.461Zm1.725,7.359,1.7,2.637a7.95,7.95,0,0,0-1.4,1.045V55.96h-.57v1.873a8.32,8.32,0,0,0-.808,1.1,10.152,10.152,0,0,0-.9,1.853V56.56ZM193.3,63.379a.828.828,0,0,1,.318-.63,1.178,1.178,0,0,1,.421-.223V81.654l-.739-1.343V63.379Zm.432,19.524v5.1l-.65.58v-6.9Zm20.5,4.956c-.753.758-1.541,1.486-2.339,2.2V76.471a41.461,41.461,0,0,0,0-48.891v-1.9l-.659-1.09-.639,1.09v.2a41.548,41.548,0,0,0-3.771-4.054v-.951l-.867-1.205v1.368a41.573,41.573,0,0,0-7.988-5.575v-.723l-.868-1.269v1.536a41.419,41.419,0,0,0-3.786-1.685V11.361l-.644-1.1-.654,1.1v1.487a41.256,41.256,0,0,0-5.793-1.546V4.364l-.441-.555-.431.555v6.789c-.446-.074-.892-.144-1.338-.2v-9.3a50.66,50.66,0,0,1,30.228,86.176Zm-.064-39.7v-.495h-.57v.495h-.5v.57h.5v1.09l-1.705,2.607v-9.8l3.935,5.625v4.1l-1.66-2.528v-1.09h.5v-.57Zm-.283,2.265,1.943,2.973v1.383a1.559,1.559,0,0,0-.857-.263,1.409,1.409,0,0,0-1.086.5,1.436,1.436,0,0,0-1.1-.5,1.621,1.621,0,0,0-.887.268v-1.3Zm1.393,10.124a1.388,1.388,0,0,0-.783-1.244h1.328v2.478h-1.313a1.389,1.389,0,0,0,.778-1.229Zm-1.383,1.095a1.1,1.1,0,1,1,1.091-1.1v.005a1.1,1.1,0,0,1-1.081,1.1Zm.273-3.206V55.787a.753.753,0,0,1,.8-.694.958.958,0,0,1,.614.223.636.636,0,0,1,.243.436v2.686Zm-2.027-3.127a.992.992,0,0,1,.639-.223.768.768,0,0,1,.818.7v2.651h-1.705V55.747a.626.626,0,0,1,.263-.436Zm1.15,3.994a1.383,1.383,0,0,0,0,2.478h-1.383V59.305Zm3.4,3.355V40.539l-.441-.7-.426.7v6.719l-3.935-5.624V28.557a40.89,40.89,0,0,1,0,46.933V62.66Zm-2.245-9.673-.55-.882-.555.882.55.882ZM196.213,8.978l.531.237.232-.495.5.233.238-.53-.5-.233.233-.5-.53-.3-.233.5-.5-.233-.238.531.5.233Zm-.1,1.486-.53-.238-.233.5-.5-.233-.238.53.5.233-.233.5.531.238.232-.5.5.233.238-.53-.5-.233ZM217.6,24.657h.035V23.74l-.882-.124h-.025v.362l-2.894,2.25-.144-.055-.069-.768,2.6-1.982c.213-.164.327-.055.327-.055l.034-.029V22.293l-.931-.114h-.035a.823.823,0,0,1,.124.471l-2.681,2.056a.286.286,0,0,1-.282.05l-.035.03.158,1.3a14.746,14.746,0,0,1,1.769.639l2.6-1.982a.311.311,0,0,1,.337-.084ZM202.928,14.2l-.5-.322-.317.495-.47-.312-.323.495.471.318-.317.47.5.323.317-.471.47.317.323-.5-.471-.312ZM184.434,31.713l.55.882.55-.882-.55-.882Zm17.027-19.326v-.045l-.922-.991,1.869-.713-.095-.2-.287.129a7.131,7.131,0,0,1-.743-1.189,13.343,13.343,0,0,1-2.141-.337l-.644,1.249a.322.322,0,0,1-.317.153v.035l.991,1.16-2.433.961.114.144.465-.169a7.1,7.1,0,0,1,.991,1.15,11.871,11.871,0,0,1,2.186.2l.723-1.4a.286.286,0,0,1,.248-.144Zm-2.16,1.194h-.169a10.1,10.1,0,0,0-1.05-1.258l1.61-.645.382.417Zm.634-2.22-.387-.5.7-1.348h.1a10.279,10.279,0,0,0,.9,1.348Zm12.834,7.646.035-.034-.248-1.16-.921-.059-.164-.991a4.822,4.822,0,0,1-.961,0l-.025.029c.144.139.273.4.223.451l-2.4,2.5a.3.3,0,0,1-.308.094l-.024.03.114.911h.887l-.06-.356,2.384-2.478.411.035.124.535-2.295,2.388c-.188.2-.317.1-.317.1l-.034.035.178,1.031.942-.025.029-.03a.836.836,0,0,1-.193-.446l2.339-2.438a.29.29,0,0,1,.282-.134Zm1.6,2.2a.29.29,0,0,1,.273-.075l.034-.029-.049-1.051a3.709,3.709,0,0,1-.952-.069l-.029.024s.327.342.129.531l-2.478,2.215c-.2.183-.327.084-.327.084l-.035.035.1,1.04.942.04H212a.8.8,0,0,1-.158-.461Zm-7.245-2.592s2.012-2.567,2.141-2.726a.306.306,0,0,1,.292-.123v-.03l-.2-.892-.882.1v.025l.094.347-2.126,2.71h-.421l-.173-.5,2.041-2.607c.169-.213.308-.139.308-.139l.024-.034-.277-.991-.932.119v.034a.786.786,0,0,1,.233.426L205.153,17a.281.281,0,0,1-.258.118l-.034.035.366,1.13.927-.03.258.962a4.873,4.873,0,0,1,.956-.095v-.034c-.139-.164-.3-.412-.253-.466Zm-37.978,82.033.991-.754v-.371a9.551,9.551,0,0,0-1.14.525A2.4,2.4,0,0,0,169.142,100.649Zm47.245-81.111h-1.229s-.178.228-.238.287a9.679,9.679,0,0,0,1.224.268,2.4,2.4,0,0,0,.243-.555ZM175.381,7.545l-.55-.882-.555.882.55.883Zm-1.755,7.781-.55-.883-.535.883.55.882ZM143.175,61.287v-.456h.456v-.569h-.456v-.456h-.57v.456h-.456v.569h.456v.456Zm37.5-45.961-.55-.883-.55.883.55.882Zm-1.69-9.371-.55-.882-.55.882.55.882ZM142.357,52.987l.551.882.555-.882-.551-.882ZM182.5,7.59l-.541-.892-.55.882.55.882ZM145.44,20.137l.029.03,1.17-.3.322,1.937a4.1,4.1,0,0,1,1.3-.386,7.773,7.773,0,0,1,.575-1.636l-1.07-1.159a.29.29,0,0,1-.074-.278l-.03-.049-.991.317-.243-1.556a4.652,4.652,0,0,1-1.338.168,8.294,8.294,0,0,1-.669,1.566l.951,1.031a.3.3,0,0,1,.07.312Zm1.754-.847,1.135,1.234-.035.129a6.7,6.7,0,0,0-1.264.3l-.257-1.521Zm-2.175-1.284a7.458,7.458,0,0,0,1.342-.128l.169,1.234-.5.089L145,18.086Zm5.168-2.785a2.873,2.873,0,0,0-.233,1.452,2.346,2.346,0,0,1,1.308,0V15.187a2.777,2.777,0,0,1,.377-1.4l.263-.4a2.565,2.565,0,0,1,1.194.045v-1.1a1.828,1.828,0,0,1,.3-1.2h.312a3.459,3.459,0,0,0,2.166-.416,3.951,3.951,0,0,0-.347,1.546v1.378l-.069.079a1.64,1.64,0,0,1-.952.387h-1.293a3.655,3.655,0,0,1,0,1.2,2.66,2.66,0,0,0,1.12-.179,2.545,2.545,0,0,0-.2,1.2,2.766,2.766,0,0,1,1.347,0V14.889a2.488,2.488,0,0,1,.174-1.1,2.721,2.721,0,0,1,1.041,0V11.4a4.866,4.866,0,0,1,.247-2.171l.422-.639-.154-.1-.124.188-.406.64-.06.084a2.072,2.072,0,0,1-1.586.525h-.867c-.426,0-.674-.2-.674-.342h-.243V10.92c-.069.05-.193.149-.341.273a1.689,1.689,0,0,1-.957.391h-1.05a3.249,3.249,0,0,1,0,1.13,2.45,2.45,0,0,0,.946-.119,2.079,2.079,0,0,0-.1.669l-.287.436a1.851,1.851,0,0,1-1.1.54h-1.486a3.631,3.631,0,0,1,0,1.2,3.3,3.3,0,0,0,1.308-.2Zm10.525-4.772a2.481,2.481,0,0,0-.252,1.259,2.77,2.77,0,0,1,1.348,0V10.316a2.608,2.608,0,0,1,.163-1.086l.5-.758a2.882,2.882,0,0,0,1.308-.272,2.213,2.213,0,0,0-.253,1.189,2.551,2.551,0,0,1,1.234,0V8.1a1.96,1.96,0,0,1,.178-1.05l.719-1.085h1.412l-.728.857a2.147,2.147,0,0,0-.5,1.6,2.673,2.673,0,0,1,1.294,0V7.08A2.332,2.332,0,0,1,167.308,6,2.338,2.338,0,0,1,169.023,7l.158-.094-.733-1.189a2.537,2.537,0,0,0-2.151-.991h-3.632a1.23,1.23,0,0,1,.124,1.07,1.767,1.767,0,0,1-1.051.5h-1.486a3.655,3.655,0,0,1,0,1.2,2.4,2.4,0,0,0,2.19-.922l.5-.654h2.5l-.5.768a1.856,1.856,0,0,1-1.1.54h-1.486a3.561,3.561,0,0,1,0,1.041l-.417.624a1.791,1.791,0,0,1-1.075.5h-1.273a3.625,3.625,0,0,1,0,1.194,2.644,2.644,0,0,0,1.124-.114Zm5.481,43.94h.57v-.456h.456v-.569h-.456v-.456h-.57v.456h-.456v.569h.456Zm.813-19.489-.55-.882-.55.882.55.882Zm3.5,22.924h.55v-.456h.5V56.8h-.5v-.456h-.545V56.8h-.446v.57h.456Zm1.309-27-.55.882.55.882.55-.882Zm13.91,27.007h.57v-.455h.455V56.8h-.455v-.456h-.57V56.8h-.456v.57h.456ZM142.115,19.617a9.112,9.112,0,0,0,.143-1.244,2.3,2.3,0,0,0-.589-.188l.148,1.234a3.248,3.248,0,0,1,.317.213Zm43.568,5h.57v-.555h.57V23.5h-.57v-.575h-.57v.57h-.575v.57h.575Zm-1.4-9.3-.55-.883-.551.883.551.882Zm-.754,9.316h.57v-.575h.575V23.5H184.1v-.575h-.57V23.5h-.579v.57h.574ZM166.466,55.053a1.383,1.383,0,1,0-1.388-1.387,1.382,1.382,0,0,0,1.388,1.387Zm0-2.477a1.095,1.095,0,1,1-1.095,1.095h0A1.1,1.1,0,0,1,166.466,52.576ZM143.175,22.645l-.035-.03-.941.456-.471-1.487a4.619,4.619,0,0,1-1.3.367,8.345,8.345,0,0,1-.436,1.63l1.09.882a.309.309,0,0,1,.119.3l.03.024,1.115-.465.6,1.868a4.2,4.2,0,0,1,1.244-.57,7.851,7.851,0,0,1,.317-1.7l-1.224-.991a.292.292,0,0,1-.094-.282Zm-1.506,1.105-1.185-.957v-.074a7.46,7.46,0,0,0,1.333-.337l.347,1.2Zm2.477,1.11a6.821,6.821,0,0,0-1.2.5l-.5-1.486.4-.189,1.3,1.051Zm23.98,72.231h-1.447a.664.664,0,0,1-.441-.179,1.529,1.529,0,0,0,0-.287,1.587,1.587,0,0,0-.218-.744,2.135,2.135,0,0,0,.649.1h.555a1.271,1.271,0,0,1-.149-.645,2.972,2.972,0,0,1,.08-.644h-1.819a1.1,1.1,0,0,1-.833-.495l-.049-.07a9.219,9.219,0,0,1-.5-.778h-1.982a1.8,1.8,0,0,0,.813-.664c.158-.223.342-.5.342-.5l-.917-.5s-.53.828-.709,1.07a1.314,1.314,0,0,1-1.09.615h-.178a2.276,2.276,0,0,1-1.982-.942l-.169.1.773,1.18.917,1.392a3.405,3.405,0,0,1,.327,1.626v1.194a4.912,4.912,0,0,1,1.259,0v-.669a1.869,1.869,0,0,0-.3-.892,1.87,1.87,0,0,0,.749.154h.634a2.571,2.571,0,0,1,0-1.15h-1.626a1.488,1.488,0,0,1-.991-.545l-.416-.629a3.636,3.636,0,0,0,1.824.327h3.226a3.989,3.989,0,0,1,.337,1.764v.728a4.131,4.131,0,0,1,1.313,0v.025a1.776,1.776,0,0,1,.129.818V99.1a2.222,2.222,0,0,1,1.075,0,1.93,1.93,0,0,0-.223-1.154,1.551,1.551,0,0,0,.5.084h.555a.915.915,0,0,1-.124-.5,1.42,1.42,0,0,1,.1-.441ZM136.931,36.8c.213.356.05.465-.376.812L133.5,36.545l-.1-.189a5.748,5.748,0,0,1,1.14-.292V36.02a3.412,3.412,0,0,1-.5-.8h-.044l-1.15.376.377.833-.818.456a4.694,4.694,0,0,1,.4.872h.04c.064-.193.248-.416.317-.387l3.142,1.1a.3.3,0,0,1,.213.242h.04a7.469,7.469,0,0,1,1.085-.931l-.545-1.085Zm9.589-14.669-.03-.024a.806.806,0,0,1-.441.2l-2.477-2.265a.287.287,0,0,1-.1-.267l-.034-.035L142.4,19.9a3.741,3.741,0,0,1,.03.957l.03.025s.312-.362.5-.179l2.453,2.22c.2.184.114.317.114.317l.035.03,1.025-.2Zm-7.626,10.833a.824.824,0,0,1-.352.337l-3.355-1.487a.284.284,0,0,1-.178-.223h-.045l-1.175.808a5.842,5.842,0,0,1,.283,1.759l2.9,1.279a.3.3,0,0,1,.193.257h.035l1.149-.718.446.922.937-.749-.8-2.185Zm-1.537,1.64-3.245-1.412v-.045l.768-.475L137.907,34l.119.252Zm1.15.392-.411-.9,1.11.495Zm1.576-4.8c.149.391-.178.535-.793.917l-.991-.57a11.483,11.483,0,0,1-.406-1.958h-1.745a8.593,8.593,0,0,1-.129,1.71l2.9,1.635a.3.3,0,0,1,.164.273h.035a9.282,9.282,0,0,1,1.486-.907l-.352-1.174Zm-3.766-.763,1.486-.04s.139.585.258.991Zm5.535-1.373.991-.377-.228-.956h-.035a.82.82,0,0,1-.4.278l-2.839-1.814a.286.286,0,0,1-.144-.248l-.04-.025-1.09.5.124.917-.927.356a4.884,4.884,0,0,1,.189.942h.034c.109-.169.337-.347.4-.307l2.943,1.853a.307.307,0,0,1,.154.283h.035l.842-.253-.183-.867h-.03l-.337.128L138.4,26.579l-.05-.411.5-.228,2.805,1.774c.228.144.168.293.168.293ZM156.49,43.914l.55.882.551-.882-.551-.883Zm5.149.882.55-.882-.55-.883-.55.883Zm-13.469,0,.55-.882-.56-.907-.55.882Zm-13.875-3.965a11.5,11.5,0,0,1-.9-1.808h-.045l-1.645.45a8.257,8.257,0,0,1,.312,1.685l3.217.843a.306.306,0,0,1,.227.223h.04a9.294,9.294,0,0,1,1.229-1.264l-.659-1.045-.154.1c.243.341-.044.579-.54,1.075Zm-2.185-.575,1.407-.411s.282.53.5.912Zm21.1,3.633-.55-.882-.54.882.55.882ZM132.9,50.331a11.5,11.5,0,0,1-1.318-1.487h-.044l-1.487.853a8.41,8.41,0,0,1,.729,1.551H134.1a.307.307,0,0,1,.282.158h.04a9.178,9.178,0,0,1,.862-1.531l-.857-.852-.119.138c.322.268.109.555-.238,1.185Zm-2.259,0,1.268-.743s.407.441.724.753ZM135.891,64l-3.083,1.021a.293.293,0,0,1-.282-.045h-.045l-.327,1.115.991.58-1.576.52-.416.853a4.586,4.586,0,0,1,.853.446h.034c-.064-.194-.054-.5,0-.5l4.718-1.566c.257-.084.327.05.327.05h.044l.328-.991-.848-.417h-.035a.833.833,0,0,1-.039.5l-3.241,1.075-.367-.213.154-.54,3.345-1.11a3.682,3.682,0,0,1,1.149-.287V64.4a2.591,2.591,0,0,0-1.67-.391Zm-6.512-16.006h.05s.044-.5.317-.441l4.717.565c.268.034.278.188.278.188h.045l.7-.768-.609-.714a.824.824,0,0,1-.243.422l-4.782-.57a.292.292,0,0,1-.238-.159h-.045l-.758.729A3.614,3.614,0,0,1,129.379,47.992Zm4.762,14.371a11.564,11.564,0,0,1-1.685-1.076h-.044l-1.18,1.234a8.377,8.377,0,0,1,1.135,1.289l3.192-.932a.313.313,0,0,1,.312.074h.039a9.34,9.34,0,0,1,.4-1.714l-1.085-.57-.075.168c.382.164.258.5.1,1.2ZM131.976,63l.991-1.08s.495.307.9.525Zm-2.265-17.741c.04-.2.188-.446.258-.431l4.6.882a.3.3,0,0,1,.248.209h.04l.991-1.041-.7-1.685-3.1-.609a.3.3,0,0,1-.228-.174h-.044l-.957.991.456.739-1.343-.233-.778.54a4.68,4.68,0,0,1,.525.8Zm2.195-1.769,3.469.65v.024l-.6.659-3.321-.624-.084-.129Zm2.374,13.435.629.644a2.963,2.963,0,0,0,.635-.615l-.63-.644a2.784,2.784,0,0,0-.639.615ZM130.549,60l.817.495h.045a.808.808,0,0,1,.1-.495l1.526-1.16,3.073,1.021a8.592,8.592,0,0,1-.441-.991c-1.661-.495-4.693-1.546-5.015-1.724h-.04l-.436.807.728.5h0c-.029-.164.159-.322.159-.322l1.14.366-1.418.992Zm6.313,8.731a5.32,5.32,0,0,0,.094,1.408,2.452,2.452,0,0,0-1.848-.5,3.947,3.947,0,0,1,0,1.328h1.169a2.979,2.979,0,0,1,1.576.56l.3.451a1.912,1.912,0,0,0-1.095-.2,3.233,3.233,0,0,1,0,1.11h1.031a1.551,1.551,0,0,1,.867.332v1.031a4.844,4.844,0,0,0,.932,2.651l.133.2c-.5-.352-.911-.307-1.843-.292l-.114-.149L136.49,74.3a2.017,2.017,0,0,1-.168-.991V72.11a2.506,2.506,0,0,1-1.229,0,1.69,1.69,0,0,0,.312,1.2,2.97,2.97,0,0,0-1.115-.143,3.184,3.184,0,0,1,0,1.11h1.259a1.349,1.349,0,0,1,1.03.495l.451.684a2.385,2.385,0,0,0-1.675-.411,3.847,3.847,0,0,1,0,1.362h1.408a1.9,1.9,0,0,1,1.11.456,1.81,1.81,0,0,1,.089,1.13l1.031.035a3.24,3.24,0,0,1,2.477,1.333l.159.238a3.7,3.7,0,0,0,.159.847c-.878-1.045-1.3-.991-3.182-.991a3.34,3.34,0,0,1,.035,1.15h1.605a2.9,2.9,0,0,1,2.216,1.234l.113.173c.4.6.734,1.056.734,1.056l.163-.1s-.267-.377-.391-.58a6.209,6.209,0,0,1-.287-2.319V75.762a3.77,3.77,0,0,1-1.185-.044v3.469l-.862-1.3-.352-.56a6.526,6.526,0,0,1-.277-2.373v-.422c0-.287.024-1.308.416-1.308V73h-1.487L139,72.948l-.768-1.155a3.463,3.463,0,0,1-.189-1.15v-1.9A2.4,2.4,0,0,1,136.862,68.73Zm-5.823-13.454,3.226-.252a.313.313,0,0,1,.293.133h.039l.7-1.268-1.12-1.442-3.494.272a.289.289,0,0,1-.262-.109h-.045c-.545.991-1.045,1.789-1.69,2.79a3.527,3.527,0,0,1,.773.625h.04a10.311,10.311,0,0,1,.892-1.665Zm-.188-1.67,3.761-.3-.411.793-3.583.282-.149-.193Z"/>
    </g>
  </g>
  <g id="Wortmarke">
    <rect class="cls-4" x="118.883" width="0.267" height="103.979"/>
    <g>
      <path class="cls-4" d="M14.019,38.705v1.508H9.833v2.236h3.134v1.508H9.833v4.134H8.039V38.705Z"/>
      <path class="cls-4" d="M18.648,38.692l2.665,9.4H19.532l-.52-2.028H16.048l-.559,2.028H13.707l2.7-9.4ZM17.542,40.5l-1.105,4.082h2.184L17.569,40.5Z"/>
      <path class="cls-4" d="M24.289,38.705v4.173l3.134-4.173H29.49l-2.665,3.523,3.094,5.863H27.93L25.6,43.632,24.289,45.27v2.821H22.5V38.705Z"/>
      <path class="cls-4" d="M33.038,38.705V44.7c0,1.339.481,2.015,1.808,2.015s1.807-.689,1.807-2.028v-5.98h1.794v5.941a3.254,3.254,0,0,1-3.6,3.575,3.263,3.263,0,0,1-3.6-3.588V38.705Z"/>
      <path class="cls-4" d="M42.346,38.705v7.879h4.082v1.507H40.552V38.705Z"/>
      <path class="cls-4" d="M52.538,38.692V40.2H50.081v7.891H48.287V40.2H45.83V38.692Z"/>
      <path class="cls-4" d="M57.192,38.692l2.665,9.4H58.076l-.52-2.028H54.592l-.559,2.028H52.252l2.7-9.4ZM55.606,36.56v1.508h-1.56V36.56Zm.481,3.939-1.105,4.082h2.184L56.113,40.5Zm1.989-3.939v1.508h-1.56V36.56Z"/>
      <path class="cls-4" d="M66.279,38.692V40.2H63.822v7.891H62.028V40.2H59.571V38.692Z"/>
      <path class="cls-4" d="M77.5,38.705v1.508H73.312v2.236h3.133v1.508H73.312v4.134H71.518V38.705Z"/>
      <path class="cls-4" d="M80.618,38.705V44.7c0,1.339.481,2.015,1.808,2.015s1.806-.689,1.806-2.028v-5.98h1.794v5.941a3.6,3.6,0,0,1-7.2-.013V38.705Zm1.313-2.158v1.508h-1.56V36.547Zm2.47,0v1.508H82.842V36.547Z"/>
      <path class="cls-4" d="M91.928,38.705a2.651,2.651,0,0,1,2.951,2.834,2.315,2.315,0,0,1-1.716,2.366l2.067,4.186H93.241l-1.769-3.822H89.926v3.822H88.132V38.705Zm-.611,4.108c1.157,0,1.768-.325,1.768-1.326,0-.923-.585-1.326-1.508-1.326H89.926v2.652Z"/>
      <path class="cls-4" d="M10.6,52.205l1.808,6.552h.025l1.82-6.552H16.8v9.386h-1.56V54.207h-.026L13.11,61.591H11.744l-2.08-7.384H9.638v7.384H8.078V52.205Z"/>
      <path class="cls-4" d="M22.964,52.192l2.665,9.4H23.847l-.52-2.028H20.364l-.559,2.028H18.023l2.7-9.4ZM21.859,54l-1.106,4.082h2.184L21.885,54Z"/>
      <path class="cls-4" d="M32.051,52.192V53.7H29.594v7.891H27.8V53.7H25.342V52.192Z"/>
      <path class="cls-4" d="M35.2,52.205v3.744h3.614V52.205H40.6v9.386H38.811v-4.03H35.2v4.03H33.4V52.205Z"/>
      <path class="cls-4" d="M49,52.205v1.508h-4.42v2.236h3.211v1.508H44.582v2.627h4.563v1.507H42.788V52.205Z"/>
      <path class="cls-4" d="M53.214,52.205l1.807,6.552h.026l1.82-6.552h2.548v9.386h-1.56V54.207h-.026l-2.106,7.384H54.358l-2.08-7.384h-.026v7.384h-1.56V52.205Z"/>
      <path class="cls-4" d="M65.578,52.192l2.665,9.4H66.462l-.521-2.028H62.977l-.558,2.028H60.637l2.7-9.4ZM64.472,54l-1.1,4.082h2.185L64.5,54Z"/>
      <path class="cls-4" d="M74.665,52.192V53.7H72.208v7.891H70.414V53.7H67.957V52.192Z"/>
      <path class="cls-4" d="M77.979,52.205v9.386H76.185V52.205Z"/>
      <path class="cls-4" d="M82.061,52.205v4.173L85.2,52.205h2.067L84.6,55.728l3.095,5.863H85.7l-2.327-4.459L82.061,58.77v2.821H80.267V52.205Z"/>
      <path class="cls-4" d="M9.911,65.705V71.7c0,1.339.481,2.015,1.808,2.015s1.807-.689,1.807-2.028v-5.98H15.32v5.941a3.253,3.253,0,0,1-3.6,3.575,3.263,3.263,0,0,1-3.6-3.588V65.705Z"/>
      <path class="cls-4" d="M19.1,65.705l3.692,6.4h.026v-6.4h1.691v9.386H22.782l-3.836-6.682H18.92v6.682H17.23V65.705Z"/>
      <path class="cls-4" d="M29.476,65.705c2.639,0,4.186,1.612,4.186,4.693s-1.521,4.693-4.173,4.693H26.343V65.705Zm-.1,7.879c1.586,0,2.5-.95,2.5-3.186s-.91-3.185-2.509-3.185H28.137v6.371Z"/>
      <path class="cls-4" d="M40.552,65.705v9.386H38.758V65.705Z"/>
      <path class="cls-4" d="M44.517,65.705l3.692,6.4h.026v-6.4h1.69v9.386H48.2l-3.835-6.682h-.026v6.682h-1.69V65.705Z"/>
      <path class="cls-4" d="M57.738,65.705v1.508H53.552v2.236h3.133v1.508H53.552v4.134H51.758V65.705Z"/>
      <path class="cls-4" d="M66.006,70.4c0,3.081-1.405,4.823-3.94,4.823s-3.939-1.742-3.939-4.823,1.4-4.823,3.939-4.823S66.006,67.317,66.006,70.4Zm-3.94,3.315c1.456,0,2.146-1.079,2.146-3.315,0-2.2-.663-3.315-2.158-3.315-1.405,0-2.133,1.014-2.133,3.406C59.921,72.66,60.6,73.713,62.066,73.713Z"/>
      <path class="cls-4" d="M70.984,65.705a2.65,2.65,0,0,1,2.951,2.834,2.315,2.315,0,0,1-1.715,2.366l2.067,4.186H72.3l-1.769-3.822H68.982v3.822H67.188V65.705Zm-.61,4.108c1.157,0,1.767-.325,1.767-1.326,0-.923-.585-1.326-1.507-1.326H68.982v2.652Z"/>
      <path class="cls-4" d="M78.186,65.705l1.808,6.552h.025l1.821-6.552h2.548v9.386h-1.56V67.707H82.8L80.7,75.091H79.331l-2.08-7.384h-.027v7.384H75.665V65.705Z"/>
      <path class="cls-4" d="M90.316,65.692l2.665,9.4H91.2l-.52-2.028H87.716l-.559,2.028H85.376l2.7-9.4ZM89.211,67.5l-1.106,4.082H90.29L89.237,67.5Z"/>
      <path class="cls-4" d="M99.169,65.692V67.2H96.712v7.891H94.918V67.2H92.461V65.692Z"/>
      <path class="cls-4" d="M102.25,65.705v9.386h-1.794V65.705Z"/>
      <path class="cls-4" d="M106.1,65.705v4.173l3.134-4.173H111.3l-2.665,3.523,3.094,5.863h-1.989l-2.327-4.459L106.1,72.27v2.821H104.3V65.705Z"/>
    </g>
    <rect class="cls-4" x="0.068" width="0.267" height="103.979"/>
  </g>
</svg>
